/* XPM */
static char *result[] = {
/* columns rows colors chars-per-pixel */
"84 84 11 1 ",
"  c #10131B",
". c #1D2434",
"X c #212A3C",
"o c #252F44",
"O c #323F58",
"+ c #394765",
"@ c #445477",
"# c #445679",
"$ c #4D628B",
"% c #5F78A9",
"& c None",
/* pixels */
"&&&&&&&&&&&&&&&&&&&&&&&&&&&&&&&&&&&&&&&&&&&&&&&&&&&&&&&&&&&&&&&&&&&&&&&&&&&&&&&&&&&&",
"&&&&&&&&&&&&&&&&&&&&&&&&&&&&&&&&&&&&&&&&&&&&&&&&&&&&&&&&&&&&&&&&&&&&&&&&&&&&&&&&&&&&",
"&&&&&&&&&&&&&&&&&&&&&&&&&&&&&&&&&&&&&&&&&&&&&                      &&&&&&&&&&&&&&&&&",
"&&&&&&&&&&&&&&&&&&&&&&&&&&&&&&&&&&&&&&&&&&&&&                      &&&&&&&&&&&&&&&&&",
"&&&&&&&&&&&&&&&&&&&&&&&&&&&&&&&&&&&&&&&&&&&&&                      &&&&&&&&&&&&&&&&&",
"&&&&&&&&&&&&&&&&&&&&&&&&&&&&&&&&&&&&&&&      OOOOOOOOOooooooooooooo   &&&&&&&&&&&&&&",
"&&&&&&&&&&&&&&&&&&&&&&&&&&&&&&&&&&&&&&&      OOOOOOOOOooooooooooooo   &&&&&&&&&&&&&&",
"&&&&&&&&&&&&&&&&&&&&&&&&&&&&&&&&&&&&&&&      OOOOOOOOOooooooooooooo   &&&&&&&&&&&&&&",
"&&&&&&&&&&&&&&&&&&&&&&&&&&&&&&&&&&&&&&&      OOOOOOOOOooooooooooooo   &&&&&&&&&&&&&&",
"&&&&&&&&&&&&&&&&&          &&&&&&&&&   OOOOOO+++++++++OOOOOOoooooooooo  &&&&&&&&&&&&",
"&&&&&&&&&&&&&&&&&          &&&&&&&&&   OOOOOO+++++++++OOOOOOoooooooooo  &&&&&&&&&&&&",
"&&&&&&&&&&&&&&&&&          &&&&&&&&&   OOOOOO+++++++++OOOOOOoooooooooo  &&&&&&&&&&&&",
"&&&&&&&&&&&&     OOOOOOOooo   &&    OOOOOO@@@%%%$$$$++OOOOOOoooooooooo  &&&&&&&&&&&&",
"&&&&&&&&&&&&     OOOOOOOooo   &&    OOOOOO@@@%%%$$$$++OOOOOOoooooooooo  &&&&&&&&&&&&",
"&&&&&&&&&   OO+++++++OOOoooooo  ooooOOO+++%%%$$$++++OOOOOooooooooooooooo   &&&&&&&&&",
"&&&&&&&&&   OO+++++++OOOoooooo  ooooOOO+++%%%$$$++++OOOOOooooooooooooooo   &&&&&&&&&",
"&&&&&&&&&   OO+++++++OOOoooooo  ooooOOO+++%%%$$$++++OOOOOooooooooooooooo   &&&&&&&&&",
"&&&&&&   OOO++%%%####+++OOOooooo....oooOOO++++++OOOOOOoooooooooooooooooo   &&&&&&&&&",
"&&&&&&   OOO++%%%####+++OOOooooo....oooOOO++++++OOOOOOoooooooooooooooooo   &&&&&&&&&",
"&&&&&&   OOO++%%%####+++OOOooooo....oooOOO++++++OOOOOOoooooooooooooooooo   &&&&&&&&&",
"&&&&&&   OOOOO@@@++++OOOOOOooooo.......oooOOOOOOOOOOooOOOOOOOOOooooooooo...   &&&&&&",
"&&&&&&   OOOOO@@@++++OOOOOOooooo.......oooOOOOOOOOOOooOOOOOOOOOooooooooo...   &&&&&&",
"&&&&&&   OOOOO@@@++++OOOOOOooooo.......oooOOOOOOOOOOooOOOOOOOOOooooooooo...   &&&&&&",
"&&&&&&   OOOOO@@@++++OOOOOOooooo.......oooOOOOOOOOOOooOOOOOOOOOooooooooo...   &&&&&&",
"&&    oooOOOOOOOOOOOOOOOoooooo.........oooooooooooooooOOOOOOoooooooooo.....   &&&&&&",
"&&    oooOOOOOOOOOOOOOOOoooooo.........oooooooooooooooOOOOOOoooooooooo.....   &&&&&&",
"&&    oooOOOOOOOOOOOOOOOoooooo.........oooooooooooooooOOOOOOoooooooooo.....   &&&&&&",
"&&    ooooooOOOOOooooooooooooo......ooooooOOOOOOoooooooooooooooooooooo.....   &&&&&&",
"&&    ooooooOOOOOooooooooooooo......ooooooOOOOOOoooooooooooooooooooooo.....   &&&&&&",
"&&    ooooooOOOOOooooooooooooo......ooooooOOOOOOoooooooooooooooooooooo.....   &&&&&&",
"&&    ooooooooooooooooooOOOOOOoooooooooOOO++++++OOOOoo...ooooooooooooo........    &&",
"&&    ooooooooooooooooooOOOOOOoooooooooOOO++++++OOOOoo...ooooooooooooo........    &&",
"&&    oooooooooooooooOOO++++++OOooooOOO+++###+++++++OOooo...ooooooo...........    &&",
"&&    oooooooooooooooOOO++++++OOooooOOO+++###+++++++OOooo...ooooooo...........    &&",
"&&    oooooooooooooooOOO++++++OOooooOOO+++###+++++++OOooo...ooooooo...........    &&",
"&&    oooooooooooOOOO@@@%%%+++++ooooOOO+++++++++++++OOoooooo..................    &&",
"&&    oooooooooooOOOO@@@%%%+++++ooooOOO+++++++++++++OOoooooo..................    &&",
"&&    oooooooooooOOOO@@@%%%+++++ooooOOO+++++++++++++OOoooooo..................    &&",
"&&    oooooooooooOOOO@@@%%%+++++ooooOOO+++++++++++++OOoooooo..................    &&",
"&&&&&&   oooooOOO++++%%%$$$+++++OOOOOOOOOOOOOOOOOOOOOOooooooooo....           &&&&&&",
"&&&&&&   oooooOOO++++%%%$$$+++++OOOOOOOOOOOOOOOOOOOOOOooooooooo....           &&&&&&",
"&&&&&&   oooooOOO++++%%%$$$+++++OOOOOOOOOOOOOOOOOOOOOOooooooooo....           &&&&&&",
"&&&&&&&&&   OO+++#######++++++OOOOOOOOOoooOOOOOOOOOOOOooooooooooooo...  &&&&&&&&&&&&",
"&&&&&&&&&   OO+++#######++++++OOOOOOOOOoooOOOOOOOOOOOOooooooooooooo...  &&&&&&&&&&&&",
"&&&&&&&&&   OO+++#######++++++OOOOOOOOOoooOOOOOOOOOOOOooooooooooooo...  &&&&&&&&&&&&",
"&&&&&&&&&   ++++++++++++OOOOOOOOOOOOOOOOOOoooOOOOOOOoooooooooooooooooo..   &&&&&&&&&",
"&&&&&&&&&   ++++++++++++OOOOOOOOOOOOOOOOOOoooOOOOOOOoooooooooooooooooo..   &&&&&&&&&",
"&&&&&&&&&   ++++++++++++OOOOOOOOOOOOOOOOOOoooOOOOOOOoooooooooooooooooo..   &&&&&&&&&",
"&&&&&&   OOOOO+++++++OOOOOOOOOOOOOOOOOOOOOooooooooooooXXXoooooooooooooooooo   &&&&&&",
"&&&&&&   OOOOO+++++++OOOOOOOOOOOOOOOOOOOOOooooooooooooXXXoooooooooooooooooo   &&&&&&",
"&&&&&&   OOOOO+++++++OOOOOOOOOOOOOOOOOOOOOooooooooooooXXXoooooooooooooooooo   &&&&&&",
"&&&&&&   OOOOO+++++++OOOOOOOOOOOOOOOOOOOOOooooooooooooXXXoooooooooooooooooo   &&&&&&",
"&&&&&&   OOOOOOOOOOOOOOOOOOOOOOOOOOOOOOOOOoooooooooooooooXXXooooooooooooooo...    &&",
"&&&&&&   OOOOOOOOOOOOOOOOOOOOOOOOOOOOOOOOOoooooooooooooooXXXooooooooooooooo...    &&",
"&&    oooOOOOOOOOOOOOOOOOOOOOOOOOOOOOOOooooooooooooooooooXXX...XXXX...XXoooooo    &&",
"&&    oooOOOOOOOOOOOOOOOOOOOOOOOOOOOOOOooooooooooooooooooXXX...XXXX...XXoooooo    &&",
"&&    oooOOOOOOOOOOOOOOOOOOOOOOOOOOOOOOooooooooooooooooooXXX...XXXX...XXoooooo    &&",
"&&    oooOOOOOOOOOOOOOOOOOOOOOOOooooooooooooooooooooooXXX......ooooooooooooooo    &&",
"&&    oooOOOOOOOOOOOOOOOOOOOOOOOooooooooooooooooooooooXXX......ooooooooooooooo    &&",
"&&    oooOOOOOOOOOOOOOOOOOOOOOOOooooooooooooooooooooooXXX......ooooooooooooooo    &&",
"&&    oooOOOOOOOOoooooooooo.........ooooooooooooooooXX...oooXXX....ooooooooooo    &&",
"&&    oooOOOOOOOOoooooooooo.........ooooooooooooooooXX...oooXXX....ooooooooooo    &&",
"&&    oooOOOOOOOOoooooooooo.........ooooooooooooooooXX...oooXXX....ooooooooooo    &&",
"&&    oooOOOOOOOOOOOOOOOOOOOOOooooooooo...ooooooXXXXooooooooooo....XXXooooo...    &&",
"&&    oooOOOOOOOOOOOOOOOOOOOOOooooooooo...ooooooXXXXooooooooooo....XXXooooo...    &&",
"&&    oooOOOOOOOOOOOOOOOOOOOOOooooooooo...ooooooXXXXooooooooooo....XXXooooo...    &&",
"&&    oooOOOOOOOOOOOOOOOOOOOOOooooooooo...ooooooXXXXooooooooooo....XXXooooo...    &&",
"&&    ooooooOOOOOOOOOOOOOOOOOOooooooooo......oooooooooooooooooo.......oo......    &&",
"&&    ooooooOOOOOOOOOOOOOOOOOOooooooooo......oooooooooooooooooo.......oo......    &&",
"&&    ooooooOOOOOOOOOOOOOOOOOOooooooooo......oooooooooooooooooo.......oo......    &&",
"&&&&&&   ooooooooOOOOOOOOOOoooooooooooo...............oooooo...............   &&&&&&",
"&&&&&&   ooooooooOOOOOOOOOOoooooooooooo...............oooooo...............   &&&&&&",
"&&&&&&   ...oooooooooooooooooooooooo....................................   &&&&&&&&&",
"&&&&&&   ...oooooooooooooooooooooooo....................................   &&&&&&&&&",
"&&&&&&   ...oooooooooooooooooooooooo....................................   &&&&&&&&&",
"&&&&&&&&&     ..................                      .............     &&&&&&&&&&&&",
"&&&&&&&&&     ..................                      .............     &&&&&&&&&&&&",
"&&&&&&&&&     ..................                      .............     &&&&&&&&&&&&",
"&&&&&&&&&&&&&&                  &&&&&&&&&&&&&&&&&&&&&&             &&&&&&&&&&&&&&&&&",
"&&&&&&&&&&&&&&                  &&&&&&&&&&&&&&&&&&&&&&             &&&&&&&&&&&&&&&&&",
"&&&&&&&&&&&&&&                  &&&&&&&&&&&&&&&&&&&&&&             &&&&&&&&&&&&&&&&&",
"&&&&&&&&&&&&&&                  &&&&&&&&&&&&&&&&&&&&&&             &&&&&&&&&&&&&&&&&",
"&&&&&&&&&&&&&&&&&&&&&&&&&&&&&&&&&&&&&&&&&&&&&&&&&&&&&&&&&&&&&&&&&&&&&&&&&&&&&&&&&&&&",
"&&&&&&&&&&&&&&&&&&&&&&&&&&&&&&&&&&&&&&&&&&&&&&&&&&&&&&&&&&&&&&&&&&&&&&&&&&&&&&&&&&&&"
};
