/* XPM */
static char *result[] = {
/* columns rows colors chars-per-pixel */
"42 42 13 1 ",
"  c #1B191A",
". c black",
"X c #10131B",
"o c #323F58",
"O c #252F44",
"+ c #394765",
"@ c #445477",
"# c #5F78A9",
"$ c #4D628B",
"% c #445679",
"& c #1D2434",
"* c #131212",
"= c #212A3C",
/* pixels */
"            .          XXXXXXXXXX.   .   .",
" .         .           XXXXXXXXXX.    . . ",
"  .        .       XXXXooooOOOOOOXX    .  ",
"  .      XXXX     Xoooo++++oooOOOOOX .  . ",
"   .     XXXX     Xoooo++++oooOOOOOX . .  ",
"    . XXXoooOXX XXooo@@#$$+oooOOOOOX      ",
"    XXo+++ooOOOXOOo++##$++oooOOOOOOOXX    ",
"    XXo+++ooOOOXOOo++##$++oooOOOOOOOXX    ",
"   Xoo+##%++oOOO&&Ooo+++oooOOOOOOOOOXX    ",
"   Xooo@@+oooOOO&&&OOoooooOoooooOOOO&&X   ",
"   Xooo@@+oooOOO&&&OOoooooOoooooOOOO&&X   ",
" XXOooooooooOOO&&&&OOOOOOOOoooOOOOO&&&X   ",
" XXOOOoooOOOOOO&&&OOOoooOOOOOOOOOOO&&&X   ",
" XXOOOoooOOOOOO&&&OOOoooOOOOOOOOOOO&&&X   ",
" XXOOOOOOOOOoooOOOOoo+++ooO&&OOOOOO&&&&XX ",
" XXOOOOOOOoo+++oOOo++%%+++oOO&OOO&&&&&&XX ",
" XXOOOOOOOoo+++oOOo++%%+++oOO&OOO&&&&&&XX ",
" XXOOOOOOo@@#+++OOo+++++++oOOO&&&&&&&&&XX ",
" XXOOOOoo+##$+++oooooooooooOOOOO&XXXXXX   ",
" XXOOOOoo+##$+++oooooooooooOOOOO&XXXXXX   ",
"   XXXo++%%%+++ooooOOooooooOOOOOO&&X***** ",
"    XX++++++oooooooooOOoooOOOOOOOOO&XX*   ",
"    XX++++++oooooooooOOoooOOOOOOOOO&XX*   ",
"   Xooo+++oooooooooooOOOOOO==OOOOOOOOOX   ",
"   Xooo+++oooooooooooOOOOOO==OOOOOOOOOX   ",
"   XoooooooooooooooooOOOOOOOO=OOOOOOOO&XX ",
" XXOoooooooooooooooOOOOOOOOOO=&&=&&=OOOXX ",
" XXOoooooooooooooooOOOOOOOOOO=&&=&&=OOOXX ",
" XXOooooooooooooOOOOOOOOOOO==&&&OOOOOOOXX ",
" XXOoooooOOOO&&&&&OOOOOOOO=&&O==&OOOOOOXX ",
".XXOoooooOOOO&&&&&OOOOOOOO=&&O==&OOOOOOXX.",
".XXOoooooooooooOOOO&&OOO==OOOOOO&==OOO&XX.",
" XXOOOoooooooooOOOO&&&&OOOOOOOOO&&&O&&&XX ",
" XXOOOoooooooooOOOO&&&&OOOOOOOOO&&&O&&&XX ",
" **XOOOOOooooOOOOOO&&&&&&&&OOO&&&&&&&&X** ",
" **X&&OOOOOOOOOOOO&&&&&&&&&&&&&&&&&&XX*** ",
" **X&&OOOOOOOOOOOO&&&&&&&&&&&&&&&&&&XX*** ",
"  .*XXX&&&&&&&&&XXXXXXXXXXX&&&&&&XXX*** . ",
".. .***XXXXXXXXX***********XXXXXX*.***  . ",
"  .****XXXXXXXXX***********XXXXXX*.***   .",
" .  *****.***.*******************.*.      ",
".      ***.**.**           ******.  .     "
};
