/* XPM */
static char *result[] = {
/* columns rows colors chars-per-pixel */
"84 84 10 1 ",
"  c #080000",
". c gray33",
"X c gray47",
"o c #67979C",
"O c #68989C",
"+ c #A7A7A7",
"@ c #9CC8CC",
"# c #9CC8CD",
"$ c #9DC9CD",
"% c None",
/* pixels */
"%%%%%%%%%%%%%%%%%%%%%%%%%%%%%%%%%%%%%%%%%%%%%%%%%%%%%%%%%%%%%%%%%%%%%%%%%%%%%%%%%%%%",
"%%%%%%%%%%%%%%%%%%%%%%%%%%%%%%%%%%%%%%%%%%%%%%%%%%%%%%%%%%%%%%%%%%%%%%%%%%%%%%%%%%%%",
"%%%%%%%%%%%%%%%%%%%%%%%%%%%%%%%%%%%%%%%%%%%%%%%%%%%%%%%%%%%%%%%%%%%%%%%%%%%%%%%%%%%%",
"%%%%%%%%%%%%%%%%%%%%%%%%%%%%%%%%%%%%%%%%%%%%%%%%%%%%%%%%%%%%%%%%%%%%%%%%%%%%%%%%%%%%",
"%%%%%%%%%%%%%%%%%%%%%%%%%%%%%%%%%%%%%%%%%%%%%%%%%%%%%%%%%%%%%%%%%%%%%%%%%%%%%%%%%%%%",
"%%%%%%%%%%%%%%%%%%%%%%%%%%%%%%%%%%%%%%%%%%%%%%%%%%%%%%%%%%%%%%%%%%%%%%%%%%%%%%%%%%%%",
"%%%%%%%%%%%%%%%%%%%%%%%%%%%%%%%%%%%%%%%%%%%%%%%%%%%%%%%%%%%%%%%%%%%%%%%%%%%%%%%%%%%%",
"%%%%%%%%%%%%%%%%%%%%%%%%%%%%%%%%%%%%%%%%%%%%%%%%%%%%%%%%%%%%%%%%%%%%%%%%%%%%%%%%%%%%",
"%%%%%%%%%%%%%%%%%%%%%%%%%%%%%%%%%%%%%%%%%%%%%%%%%%%%%%%%%%%%%%%%%%%%%%%%%%%%%%%%%%%%",
"%%%%%%%%%%%%%%%%%%%%%%%%%%%%%%%%%%%%%%%%%%%%%%%%%%%%%%%%%%%%%%%%%%%%%%%%%%%%%%%%%%%%",
"%%%%%%%%%%%%%%%%%%%%%%%%%%%%%%%%%%                %%%%%%%%%%%%%%%%%%%%%%%%%%%%%%%%%%",
"%%%%%%%%%%%%%%%%%%%%%%%%%%%%%%%%%%                %%%%%%%%%%%%%%%%%%%%%%%%%%%%%%%%%%",
"%%%%%%%%%%%%%%%%%%%%%%%%%%%%%%                        %%%%%%%%%%%%%%%%%%%%%%%%%%%%%%",
"%%%%%%%%%%%%%%%%%%%%%%%%%%%%%%                        %%%%%%%%%%%%%%%%%%%%%%%%%%%%%%",
"%%%%%%%%%%%%%%%%%%%%%%%%%%        XXXXXXXXXXXXXXXX        %%%%%%%%%%%%%%%%%%%%%%%%%%",
"%%%%%%%%%%%%%%%%%%%%%%%%%%        XXXXXXXXXXXXXXXX        %%%%%%%%%%%%%%%%%%%%%%%%%%",
"%%%%%%%%%%%%%%%%%%%%%%%%      XX++++++++++++++++++++XX      %%%%%%%%%%%%%%%%%%%%%%%%",
"%%%%%%%%%%%%%%%%%%%%%%%%      XX++++++++++++++++++++XX      %%%%%%%%%%%%%%%%%%%%%%%%",
"%%%%%%%%%%%%%%%%%%%%%%    XX++++++++++++++++++++++++++++XX    %%%%%%%%%%%%%%%%%%%%%%",
"%%%%%%%%%%%%%%%%%%%%%%    XX++++++++++++++++++++++++++++XX    %%%%%%%%%%%%%%%%%%%%%%",
"%%%%%%%%%%%%%%%%%%%%    XX++++++++++++++++++++++++++++++++XX    %%%%%%%%%%%%%%%%%%%%",
"%%%%%%%%%%%%%%%%%%%%    XX++++++++++++++++++++++++++++++++XX    %%%%%%%%%%%%%%%%%%%%",
"%%%%%%%%%%%%%%%%%%    ..XXXX++++++++++++++++++++++++++++XXXX..    %%%%%%%%%%%%%%%%%%",
"%%%%%%%%%%%%%%%%%%    ..XXXX++++++++++++++++++++++++++++XXXX..    %%%%%%%%%%%%%%%%%%",
"%%%%%%%%%%%%%%%%%%    XX++++++++++++++++++++++++++++++++++++XX    %%%%%%%%%%%%%%%%%%",
"%%%%%%%%%%%%%%%%%%    XX++++++++++++++++++++++++++++++++++++XX    %%%%%%%%%%%%%%%%%%",
"%%%%%%%%%%%%%%%%    XX++++++++++++++++++++++++++++++++++++++++XX    %%%%%%%%%%%%%%%%",
"%%%%%%%%%%%%%%%%    XX++++++++++++++++++++++++++++++++++++++++XX    %%%%%%%%%%%%%%%%",
"%%%%%%%%%%%%%%%%    ++++XXXXXXXX++++++++++++++++++++XXXXXXXX++++    %%%%%%%%%%%%%%%%",
"%%%%%%%%%%%%%%%%    ++++XXXXXXXX++++++++++++++++++++XXXXXXXX++++    %%%%%%%%%%%%%%%%",
"%%%%%%%%%%%%%%    XX++XX        ..XX++++++++++++XX..        XX++XX    %%%%%%%%%%%%%%",
"%%%%%%%%%%%%%%    XX++XX        ..XX++++++++++++XX..        XX++XX    %%%%%%%%%%%%%%",
"%%%%%%%%%%%%%%    XX++            ..XXXXXXXXXXXX..            ++XX    %%%%%%%%%%%%%%",
"%%%%%%%%%%%%%%    XX++            ..XXXXXXXXXXXX..            ++XX    %%%%%%%%%%%%%%",
"%%%%%%%%%%%%%%    XX++            ..XXXXXXXXXXXX..            ++XX    %%%%%%%%%%%%%%",
"%%%%%%%%%%%%%%    XX++            ..XXXXXXXXXXXX..            ++XX    %%%%%%%%%%%%%%",
"%%%%%%%%%%%%%%    ..XX            ..XX++++++++XX..            XX..    %%%%%%%%%%%%%%",
"%%%%%%%%%%%%%%    ..XX            ..XX++++++++XX..            XX..    %%%%%%%%%%%%%%",
"%%%%%%%%%%%%%%%%    XX            XX++++++++++++XX            XX    %%%%%%%%%%%%%%%%",
"%%%%%%%%%%%%%%%%    XX            XX++++++++++++XX            XX    %%%%%%%%%%%%%%%%",
"%%%%%%%%%%%%%%%%    ..XX        XX++++++++++++++++XX        XX..    %%%%%%%%%%%%%%%%",
"%%%%%%%%%%%%%%%%    ..XX        XX++++++++++++++++XX        XX..    %%%%%%%%%%%%%%%%",
"%%%%%%%%%%%%%%%%%%    XX######++++++++..XXXX..++++++++######XX    %%%%%%%%%%%%%%%%%%",
"%%%%%%%%%%%%%%%%%%    XX######++++++++..XXXX..++++++++######XX    %%%%%%%%%%%%%%%%%%",
"%%%%%%%%%%%%%%%%%%    ..######++++XXXXXX++++XXXXXX++++######..    %%%%%%%%%%%%%%%%%%",
"%%%%%%%%%%%%%%%%%%    ..######++++XXXXXX++++XXXXXX++++######..    %%%%%%%%%%%%%%%%%%",
"%%%%%%%%%%%%%%%%%%%%    OO@@$$++XX++++XX++++XX++++XX++@@##oo    %%%%%%%%%%%%%%%%%%%%",
"%%%%%%%%%%%%%%%%%%%%    OO@@$$++XX++++XX++++XX++++XX++@@##oo    %%%%%%%%%%%%%%%%%%%%",
"%%%%%%%%%%%%%%%%%%%%%%            ++++XX++++XX++++            %%%%%%%%%%%%%%%%%%%%%%",
"%%%%%%%%%%%%%%%%%%%%%%            ++++XX++++XX++++            %%%%%%%%%%%%%%%%%%%%%%",
"%%%%%%%%%%%%%%%%%%%%%%%%          ..XX..XXXX..XX..          %%%%%%%%%%%%%%%%%%%%%%%%",
"%%%%%%%%%%%%%%%%%%%%%%%%          ..XX..XXXX..XX..          %%%%%%%%%%%%%%%%%%%%%%%%",
"%%%%%%%%%%%%%%%%%%%%%%%%%%%%%%                        %%%%%%%%%%%%%%%%%%%%%%%%%%%%%%",
"%%%%%%%%%%%%%%%%%%%%%%%%%%%%%%                        %%%%%%%%%%%%%%%%%%%%%%%%%%%%%%",
"%%%%%%%%%%%%%%%%%%%%%%%%%%%%    ..                ..    %%%%%%%%%%%%%%%%%%%%%%%%%%%%",
"%%%%%%%%%%%%%%%%%%%%%%%%%%%%    ..                ..    %%%%%%%%%%%%%%%%%%%%%%%%%%%%",
"%%%%%%%%%%%%%%%%%%%%%%%%%%    XX++XXXX++    ++XXXX++XX    %%%%%%%%%%%%%%%%%%%%%%%%%%",
"%%%%%%%%%%%%%%%%%%%%%%%%%%    XX++XXXX++    ++XXXX++XX    %%%%%%%%%%%%%%%%%%%%%%%%%%",
"%%%%%%%%%%%%%%%%%%%%%%%%    XX++++XX            XX++++XX    %%%%%%%%%%%%%%%%%%%%%%%%",
"%%%%%%%%%%%%%%%%%%%%%%%%    XX++++XX            XX++++XX    %%%%%%%%%%%%%%%%%%%%%%%%",
"%%%%%%%%%%%%%%%%%%%%%%%%    XX++  XXXX++    ++XXXX  ++XX    %%%%%%%%%%%%%%%%%%%%%%%%",
"%%%%%%%%%%%%%%%%%%%%%%%%    XX++  XXXX++    ++XXXX  ++XX    %%%%%%%%%%%%%%%%%%%%%%%%",
"%%%%%%%%%%%%%%%%%%%%%%%%    XX++    ++++++++++++    ++XX    %%%%%%%%%%%%%%%%%%%%%%%%",
"%%%%%%%%%%%%%%%%%%%%%%%%    XX++    ++++++++++++    ++XX    %%%%%%%%%%%%%%%%%%%%%%%%",
"%%%%%%%%%%%%%%%%%%%%%%%%%%        ++++XX    XX++++        %%%%%%%%%%%%%%%%%%%%%%%%%%",
"%%%%%%%%%%%%%%%%%%%%%%%%%%        ++++XX    XX++++        %%%%%%%%%%%%%%%%%%%%%%%%%%",
"%%%%%%%%%%%%%%%%%%%%%%%%%%%%      ++++++    XX++++      %%%%%%%%%%%%%%%%%%%%%%%%%%%%",
"%%%%%%%%%%%%%%%%%%%%%%%%%%%%      ++++++    XX++++      %%%%%%%%%%%%%%%%%%%%%%%%%%%%",
"%%%%%%%%%%%%%%%%%%%%%%%%%%%%%%      ++++    XX++      %%%%%%%%%%%%%%%%%%%%%%%%%%%%%%",
"%%%%%%%%%%%%%%%%%%%%%%%%%%%%%%      ++++    XX++      %%%%%%%%%%%%%%%%%%%%%%%%%%%%%%",
"%%%%%%%%%%%%%%%%%%%%%%%%%%%%%%%%                    %%%%%%%%%%%%%%%%%%%%%%%%%%%%%%%%",
"%%%%%%%%%%%%%%%%%%%%%%%%%%%%%%%%                    %%%%%%%%%%%%%%%%%%%%%%%%%%%%%%%%",
"%%%%%%%%%%%%%%%%%%%%%%%%%%%%%%%%%%      %%%%      %%%%%%%%%%%%%%%%%%%%%%%%%%%%%%%%%%",
"%%%%%%%%%%%%%%%%%%%%%%%%%%%%%%%%%%      %%%%      %%%%%%%%%%%%%%%%%%%%%%%%%%%%%%%%%%",
"%%%%%%%%%%%%%%%%%%%%%%%%%%%%%%%%%%%%%%%%%%%%%%%%%%%%%%%%%%%%%%%%%%%%%%%%%%%%%%%%%%%%",
"%%%%%%%%%%%%%%%%%%%%%%%%%%%%%%%%%%%%%%%%%%%%%%%%%%%%%%%%%%%%%%%%%%%%%%%%%%%%%%%%%%%%",
"%%%%%%%%%%%%%%%%%%%%%%%%%%%%%%%%%%%%%%%%%%%%%%%%%%%%%%%%%%%%%%%%%%%%%%%%%%%%%%%%%%%%",
"%%%%%%%%%%%%%%%%%%%%%%%%%%%%%%%%%%%%%%%%%%%%%%%%%%%%%%%%%%%%%%%%%%%%%%%%%%%%%%%%%%%%",
"%%%%%%%%%%%%%%%%%%%%%%%%%%%%%%%%%%%%%%%%%%%%%%%%%%%%%%%%%%%%%%%%%%%%%%%%%%%%%%%%%%%%",
"%%%%%%%%%%%%%%%%%%%%%%%%%%%%%%%%%%%%%%%%%%%%%%%%%%%%%%%%%%%%%%%%%%%%%%%%%%%%%%%%%%%%",
"%%%%%%%%%%%%%%%%%%%%%%%%%%%%%%%%%%%%%%%%%%%%%%%%%%%%%%%%%%%%%%%%%%%%%%%%%%%%%%%%%%%%",
"%%%%%%%%%%%%%%%%%%%%%%%%%%%%%%%%%%%%%%%%%%%%%%%%%%%%%%%%%%%%%%%%%%%%%%%%%%%%%%%%%%%%",
"%%%%%%%%%%%%%%%%%%%%%%%%%%%%%%%%%%%%%%%%%%%%%%%%%%%%%%%%%%%%%%%%%%%%%%%%%%%%%%%%%%%%",
"%%%%%%%%%%%%%%%%%%%%%%%%%%%%%%%%%%%%%%%%%%%%%%%%%%%%%%%%%%%%%%%%%%%%%%%%%%%%%%%%%%%%"
};
