/* XPM */
static char *result[] = {
/* columns rows colors chars-per-pixel */
"42 42 10 1 ",
"  c #080000",
". c gray33",
"X c gray47",
"o c #67979C",
"O c #68989C",
"+ c #A7A7A7",
"@ c #9CC8CC",
"# c #9CC8CD",
"$ c #9DC9CD",
"% c None",
/* pixels */
"%%%%%%%%%%%%%%%%%%%%%%%%%%%%%%%%%%%%%%%%%%",
"%%%%%%%%%%%%%%%%%%%%%%%%%%%%%%%%%%%%%%%%%%",
"%%%%%%%%%%%%%%%%%%%%%%%%%%%%%%%%%%%%%%%%%%",
"%%%%%%%%%%%%%%%%%%%%%%%%%%%%%%%%%%%%%%%%%%",
"%%%%%%%%%%%%%%%%%        %%%%%%%%%%%%%%%%%",
"%%%%%%%%%%%%%%%            %%%%%%%%%%%%%%%",
"%%%%%%%%%%%%%    XXXXXXXX    %%%%%%%%%%%%%",
"%%%%%%%%%%%%   X++++++++++X   %%%%%%%%%%%%",
"%%%%%%%%%%%  X++++++++++++++X  %%%%%%%%%%%",
"%%%%%%%%%%  X++++++++++++++++X  %%%%%%%%%%",
"%%%%%%%%%  .XX++++++++++++++XX.  %%%%%%%%%",
"%%%%%%%%%  X++++++++++++++++++X  %%%%%%%%%",
"%%%%%%%%  X++++++++++++++++++++X  %%%%%%%%",
"%%%%%%%%  ++++++++++++++++++++++  %%%%%%%%",
"%%%%%%%  X++XXXX++++++++++XXXX++X  %%%%%%%",
"%%%%%%%  X+X    .X++++++X.    X+X  %%%%%%%",
"%%%%%%%  X+      .XXXXXX.      +X  %%%%%%%",
"%%%%%%%  XX      .XXXXXX.      XX  %%%%%%%",
"%%%%%%%  .X      .X++++X.      X.  %%%%%%%",
"%%%%%%%%  X      X++++++X      X  %%%%%%%%",
"%%%%%%%%  .X    X++++++++X    X.  %%%%%%%%",
"%%%%%%%%%  X###++++.XX.++++###X  %%%%%%%%%",
"%%%%%%%%%  .###++XXX++XXX++###.  %%%%%%%%%",
"%%%%%%%%%%  O@$+X++X++X++X+@#o  %%%%%%%%%%",
"%%%%%%%%%%%      ++X++X++      %%%%%%%%%%%",
"%%%%%%%%%%%%     .X.XX.X.     %%%%%%%%%%%%",
"%%%%%%%%%%%%%%%            %%%%%%%%%%%%%%%",
"%%%%%%%%%%%%%%  .        .  %%%%%%%%%%%%%%",
"%%%%%%%%%%%%%  X+XX+  +XX+X  %%%%%%%%%%%%%",
"%%%%%%%%%%%%  X++X      X++X  %%%%%%%%%%%%",
"%%%%%%%%%%%%  X+ XX+  +XX +X  %%%%%%%%%%%%",
"%%%%%%%%%%%%  X+  ++++++  +X  %%%%%%%%%%%%",
"%%%%%%%%%%%%%    ++X  X++    %%%%%%%%%%%%%",
"%%%%%%%%%%%%%%   +++  X++   %%%%%%%%%%%%%%",
"%%%%%%%%%%%%%%%   ++  X+   %%%%%%%%%%%%%%%",
"%%%%%%%%%%%%%%%%          %%%%%%%%%%%%%%%%",
"%%%%%%%%%%%%%%%%%   %%   %%%%%%%%%%%%%%%%%",
"%%%%%%%%%%%%%%%%%%%%%%%%%%%%%%%%%%%%%%%%%%",
"%%%%%%%%%%%%%%%%%%%%%%%%%%%%%%%%%%%%%%%%%%",
"%%%%%%%%%%%%%%%%%%%%%%%%%%%%%%%%%%%%%%%%%%",
"%%%%%%%%%%%%%%%%%%%%%%%%%%%%%%%%%%%%%%%%%%",
"%%%%%%%%%%%%%%%%%%%%%%%%%%%%%%%%%%%%%%%%%%"
};
