/* XPM */
static char *result[] = {
/* columns rows colors chars-per-pixel */
"42 42 40 1 ",
"  c #0A162F",
". c #0B1730",
"X c #0B1831",
"o c #0B1830",
"O c #09152E",
"+ c #0A152E",
"@ c #09162E",
"# c #09162B",
"$ c #09162A",
"% c #09162C",
"& c #09172B",
"* c #09172C",
"= c #09162D",
"- c #09142D",
"; c #09152D",
": c #0A162E",
"> c #09152B",
", c #09152C",
"< c #09152A",
"1 c #0A172F",
"2 c #0A152F",
"3 c #0B172F",
"4 c #0A1730",
"5 c #09172A",
"6 c #0A1630",
"7 c #091529",
"8 c #0A152D",
"9 c #0B1630",
"0 c #09142E",
"q c #091629",
"w c #0B182F",
"e c #0B162F",
"r c #0C1830",
"t c #0B1731",
"y c #0B1832",
"u c #09162F",
"i c #0B1732",
"p c #09152F",
"a c #09172D",
"s c white",
/* pixels */
" ..XXoo O+ @#$#%%###&&*%=@O--;%##=:.:%>#;+",
"  ..  . O;@@,<#%%####&&&*=@O;;;%%; o =,#%;",
"  +:O+1 ;%,,%#<#%#####&&&%;;;;=@:O .2;%>,:",
"3 O;O4o:,<$#<$$#>##>#%#5&%=%%%,=  6 O;=,;3",
"31O;O .:#$$$$&&#<<<>#**5$%;%###,+.. ;%=;@3",
"3:;%;: =<$$&&&&7$$<7<###$%;%#$#%;: ;,#=,=+",
"OO;,;: %$75&&5&$<$7<$$$$##;;###%;;;,>####=",
"=;;;;:@%<7$&&&&$7777<#&$&#::%%,8+=,#>#<$$>",
";;;,,;=%##$&&&&$7$###$$$#%+ :O+33;;,><$$$#",
"%;%,,%,>>###$5&57<#>>$<$#; ..93..:=%>$&&5&",
"#%>>%%#>>#>$<$&&$$7$####%;@1. : :O%%#$&&$$",
"#>>>$$#<######$$&&5$$##%==;++@;=;;,>>$$$##",
"%>>#7$&5##>###$$$$&&$$>;OO;==;%,;;%>>#<$>%",
"=%#$$&&&##$$##$7$$&&$##=;;,=;;;,==%##>,%,,",
"=,>$&&&&$777##<7$&&$$>>;=%##=0;%=;%$#%,;;=",
"=%>$$&&&$777<#><$$$$#>>,%#>#,;;,;,#$$%;;==",
"%#>$<$&&&<$7$&#>><$#>,%=%##>>,,%=,%%##%**%",
"###########$$##>>####%;=,;,%#>#%,;O=>>####",
"$<$#>##>#>#%%###>##,,==;;+O%#>##,O :%>>$<<",
"$<q#%,>###%=,>>>#%%,,=,,;2:=%>#$%+62;,#$77",
"<7$##<###%%=,,#%%,#,%%%,;O 4@>#<,O220,>$qq",
">$$&<$#&&$$>###%%%#%%###=O .4=%>,;;;;,>>$$",
"$&#<#&&&##$$$$$#%%%%##$>,;:.2;#%;;,,%>$<#$",
"$&&>#&&&#>$$&&&$>,;,##$<,;O+O>>#;-;,#$7$<>",
"$5&#&&&&&>>>#&&&#>>#$&&>,=;O%###;-;,>$&&$>",
"###&&&&&&&&##&&&&$$$&&$>%=;;%##>%;,,>$&&<>",
",%#$$&$5&>#&&&&&&&&&$&$#,%;==;%#####$&&$>#",
";;%$$&&&&##&&&&$&5##$&$#%%%%+ =##$&&&&&$#%",
";=%$&&&&&&&&&&&#&$7<$&&$<#%;1. =>$&&&&&$#%",
"%#>&&&&&&&&$&&&&&&$&&&&$5$%:3.. ,#$5&$$&&#",
"##$5&&&&&&&$&&&&&&&&&&$$5#; wo.3=%#$$&$&5$",
"$$$$&&&&&&&&&&5$$$$$$###$#:33 1.O%#<7q&&&&",
"&$$q$&#&&&$&$#$#>%%#$#%#>#@.321.:%##>$&&#&",
"$$<#$&##&$$#>>>>%%%%##%,,%=   .3:,%=%<$$$$",
"7$7<$<$$<#>>>><#%%,,#%=+:=%=O . ;,=%<$<#$#",
"><q$$##$<>>#$&$&%==;%%;33:%;O :=,,%#$&*&#%",
",>$$$%%#>,%$$&&5&%%;,,+o3 =%;;;>,,>$$&*$%;",
" ;###%%>>,%#$$&$##%=>,:o  O,;O=%%#<$&#$#@6",
"3:=;+;%%%%#$$&&&&&&*%= 2O;;,O O;%#$&&$$% .",
"o.  .e:O;=%<$&#&##&&%=@O;-,,;@;=%#$$&##=.r",
"ottXyX4uO:=#$$$$#%&&&%;;OO;,;;,%%%####,;3r",
"..tyiXXp@  ,$7$#%%*&&&a=;O;@O=%>%,=:;>>=:3"
};
