/* XPM */
static char *result[] = {
/* columns rows colors chars-per-pixel */
"42 42 78 1 ",
"  c #202020",
". c #202121",
"X c gray13",
"o c #232222",
"O c #232323",
"+ c #242323",
"@ c #252424",
"# c #252525",
"$ c #262525",
"% c #272727",
"& c #282727",
"* c #292828",
"= c #2C2A2A",
"- c #2D2B2B",
"; c #2D2C2C",
": c #2E2D2D",
"> c #2F2D2D",
", c #302D2D",
"< c #312D2D",
"1 c #302E2E",
"2 c #312E2E",
"3 c #322E2E",
"4 c #332F2F",
"5 c #323030",
"6 c #333131",
"7 c #353131",
"8 c #343232",
"9 c #353232",
"0 c #363232",
"q c #373232",
"w c #383333",
"e c #3A3535",
"r c #3B3636",
"t c #3C3636",
"y c #3E3939",
"u c #3F3939",
"i c #403A3A",
"p c #413A3A",
"a c #413B3B",
"s c #423B3B",
"d c #433C3C",
"f c #433D3D",
"g c #433E3E",
"h c #443D3D",
"j c #453E3E",
"k c #5C5555",
"l c #5E5757",
"z c #605858",
"x c #605959",
"c c #615959",
"v c #615A5A",
"b c #625A5A",
"n c #655D5D",
"m c #675E5E",
"M c #6D6464",
"N c #6E6464",
"B c #6F6565",
"V c #7A6F6F",
"C c #807575",
"Z c #817575",
"A c #827676",
"S c #837777",
"D c #847878",
"F c #857979",
"G c #867979",
"H c #867A7A",
"J c #877A7A",
"K c #897C7C",
"L c #8A7D7D",
"P c #8D8080",
"I c #8E8080",
"U c #8E8181",
"Y c #918484",
"T c #928484",
"R c #938484",
"E c #938585",
"W c #948585",
"Q c None",
/* pixels */
"QQQQQQQQQQQQQQQQQQQQQQQQQQQQQQQQQQQQQQQQQQ",
"QQQQQQQQQQQQQQQQQQQQQQQQQQQQQQQQQQQQQQQQQQ",
"QQQQQQQQQQQQQQQQQQQQQQQQQQQQQQQQQQQQQQQQQQ",
"QQQQQQQQQQQQQQQQQQQQQQQQQQQQQQQQQQQQQQQQQQ",
"QQQQQQQQQQQQQQQQQQQQQQQQQQQQQQQQQQQQQQQQQQ",
"QQQQQQQQQQQQQQQQQQQQQQQQQQQQQQQQQQQQQQQQQQ",
"QQQQQQQQQQQQQQQQQQQQQQQQQQQQQQQQQQQQQQQQQQ",
"QQQQQQQQQQQQQQQQQQQQQQQQQQQQQQQQQQQQQQQQQQ",
"QQQQQQQQQQQQQQQQQQQQQQQQQQQQQQQQQQQQQQQQQQ",
"QQQQQQQQQQQQQQQQQQQQQQQQQQQQQQQQQQQQQQQQQQ",
"QQQQQQQQQQQQQQQQQQQQQQQQQQQQQQQQQQQQQQQQQQ",
"QQQQQQQQQQQQQQQQQQQQQQQQQQQQQQQQQQQQQQQQQQ",
"QQQQQQQQQQQQQQQQQQQQQQQQQQQQQQQQQQQQQQQQQQ",
"QQQQQQQQ>>>>>>>>>>>>>>>>>>>>>>>>>>QQQQQQQQ",
"QQQQQQQ>VZCDFFFFFFFFFFFFFFFFFFDCZV>QQQQQQQ",
"QQQQQQQ>ZBNUEEEEEWWWWWWWWEEEEEUNBZ>QQQQQQQ",
"QQQQQQQ>CNMPTTTTPHGGGGGGHPTTTTPMNC>QQQQQQQ",
"QQQQQQQ>DUPYTTPSz6-;;;;-6zSPTTYPUD>QQQQQQQ",
"QQQQQQQ>FETTTLc5%X      X%5cLTTTEF>QQQQQQQ",
"QQQQQQQ>FETTPc;..o+@@@@+o .;cPTTEF>QQQQQQQ",
"QQQQQQQ>FETEJ6Xo$2wyiiyw3$oX6JETEF>QQQQQQQ",
"QQQQQQQ>FETEG;O4utqqttqwsi4O;GETEF>QQQQQQQ",
"QQQQQQQ>FETEG>,sjdie77ephjs,>GETEF>QQQQQQQ",
"QQQQQQQ>FETEH8<aftqqrrqqtfs<8HETEF>QQQQQQQ",
"QQQQQQQ>FETTPc23w0tdhhdt0w32cPTTEF>QQQQQQQ",
"QQQQQQQ>DUPYTLx1=quppppuq=1xLTYPUD>QQQQQQQ",
"QQQQQQQ>CNMPTTKmk9======9kmKTTPMNC>QQQQQQQ",
"QQQQQQQ>ZNMPTTTUPAncvvcnAPUTTTPMNZ>QQQQQQQ",
"QQQQQQQ:ZUITTTTEERUIIIIUREETTTTIUZ:QQQQQQQ",
"QQQQQQQ*bLUIPPPPPIIIIIIIIPPPPPIULb*QQQQQQQ",
"QQQQQQQ#glvvvvvvvvvvvvvvvvvvvvvvlg#QQQQQQQ",
"QQQQQQQQ$&**********************&$QQQQQQQQ",
"QQQQQQQQQQQQQQQQQQQQQQQQQQQQQQQQQQQQQQQQQQ",
"QQQQQQQQQQQQQQQQQQQQQQQQQQQQQQQQQQQQQQQQQQ",
"QQQQQQQQQQQQQQQQQQQQQQQQQQQQQQQQQQQQQQQQQQ",
"QQQQQQQQQQQQQQQQQQQQQQQQQQQQQQQQQQQQQQQQQQ",
"QQQQQQQQQQQQQQQQQQQQQQQQQQQQQQQQQQQQQQQQQQ",
"QQQQQQQQQQQQQQQQQQQQQQQQQQQQQQQQQQQQQQQQQQ",
"QQQQQQQQQQQQQQQQQQQQQQQQQQQQQQQQQQQQQQQQQQ",
"QQQQQQQQQQQQQQQQQQQQQQQQQQQQQQQQQQQQQQQQQQ",
"QQQQQQQQQQQQQQQQQQQQQQQQQQQQQQQQQQQQQQQQQQ",
"QQQQQQQQQQQQQQQQQQQQQQQQQQQQQQQQQQQQQQQQQQ"
};
