/* XPM */
static char *result[] = {
/* columns rows colors chars-per-pixel */
"42 42 135 2 ",
"   c #252525",
".  c #262525",
"X  c #282727",
"o  c #292828",
"O  c #2C2A2A",
"+  c #2E2C2C",
"@  c #2E2D2D",
"#  c #2F2D2D",
"$  c #302E2E",
"%  c #312F2F",
"&  c #343131",
"*  c #353232",
"=  c #363333",
"-  c #363434",
";  c #373535",
":  c #383535",
">  c #3D3939",
",  c #3E3838",
"<  c #3E3A3A",
"1  c #3E3B3B",
"2  c #3F3B3B",
"3  c #3F3C3C",
"4  c #3F3D3D",
"5  c #413A3A",
"6  c #413B3B",
"7  c #413D3D",
"8  c #413F3F",
"9  c #423E3E",
"0  c #433E3E",
"q  c #423F3F",
"w  c #443D3D",
"e  c #443E3E",
"r  c #453E3E",
"t  c #463F3F",
"y  c #424040",
"u  c #464040",
"i  c #444343",
"p  c #464444",
"a  c #464545",
"s  c #474646",
"d  c #484141",
"f  c #494141",
"g  c #494242",
"h  c #4A4343",
"j  c #4D4545",
"k  c #4D4646",
"l  c #4E4747",
"z  c #524B4B",
"x  c #5B5454",
"c  c #5C5555",
"v  c #5E5757",
"b  c #605858",
"n  c #605959",
"m  c #615959",
"M  c #605A5A",
"N  c #615A5A",
"B  c #625A5A",
"V  c #635A5A",
"C  c #655D5D",
"Z  c #665D5D",
"A  c #675E5E",
"S  c #675F5F",
"D  c #696060",
"F  c #696161",
"G  c #6A6161",
"H  c #6D6464",
"J  c #6C6565",
"K  c #6E6464",
"L  c #6F6565",
"P  c #6E6868",
"I  c #6E6969",
"U  c #766B6B",
"Y  c #716C6C",
"T  c #756C6C",
"R  c #766C6C",
"E  c #776C6C",
"W  c #776D6D",
"Q  c #786E6E",
"!  c #796E6E",
"~  c #796F6F",
"^  c #7A6F6F",
"/  c #7B7070",
"(  c #7C7171",
")  c #7D7272",
"_  c #7E7272",
"`  c #807575",
"'  c #817575",
"]  c #807676",
"[  c #817777",
"{  c #827676",
"}  c #847777",
"|  c #847878",
" . c #857878",
".. c #857979",
"X. c #867979",
"o. c #867A7A",
"O. c #877A7A",
"+. c #877D7D",
"@. c #887B7B",
"#. c #897C7C",
"$. c #8A7C7C",
"%. c #8A7D7D",
"&. c #8B7E7E",
"*. c #8C7E7E",
"=. c #8C7F7F",
"-. c #8D7F7F",
";. c #8D8080",
":. c #8E8080",
">. c #8E8181",
",. c #8F8282",
"<. c #908282",
"1. c #918383",
"2. c #918484",
"3. c #928484",
"4. c #938484",
"5. c #938585",
"6. c #938686",
"7. c #978B8B",
"8. c #9C9090",
"9. c #9F9494",
"0. c #A09494",
"q. c #A19595",
"w. c #A59D9D",
"e. c #A59E9E",
"r. c #AEA6A6",
"t. c #B0A9A9",
"y. c #B5AEAE",
"u. c #BDB6B6",
"i. c #BFB7B7",
"p. c #C1BEBE",
"a. c #CAC7C7",
"s. c #D3D2D2",
"d. c #D6D4D4",
"f. c #DCDBDB",
"g. c None",
/* pixels */
"g.g.g.g.g.g.g.g.g.g.g.g.g.g.g.g.g.g.g.g.g.g.g.g.g.g.g.g.g.g.g.g.g.g.g.g.g.g.g.g.g.g.",
"g.g.g.g.g.g.g.g.g.g.g.g.g.g.g.g.g.g.g.g.g.g.g.g.g.g.g.g.g.g.g.g.g.g.g.g.g.g.g.g.g.g.",
"g.g.g.g.g.g.g.g.g.g.g.g.g.g.g.g.g.g.g.g.g.g.g.g.g.g.g.g.g.g.g.g.g.g.g.g.g.g.g.g.g.g.",
"g.g.g.g.g.g.g.g.g.g.g.g.g.g.g.g.g.g.g.g.g.g.g.g.g.g.g.g.g.g.g.g.g.g.g.g.g.g.g.g.g.g.",
"g.g.g.g.g.g.g.g.g.g.g.g.g.g.g.g.g.g.g.g.g.g.g.g.g.g.g.g.g.g.g.g.g.g.g.g.g.g.g.g.g.g.",
"g.g.g.g.g.g.g.g.g.g.g.g.g.g.g.g.g.g.g.g.g.g.g.g.g.g.g.g.g.g.g.g.g.g.g.g.g.g.g.g.g.g.",
"g.g.g.g.g.g.g.g.g.g.g.g.g.g.g.g.g.g.g.g.g.g.g.g.g.g.g.g.g.g.g.g.g.g.g.g.g.g.g.g.g.g.",
"g.g.g.g.g.g.g.g.g.g.g.g.g.g.g.g.g.g.g.g.g.g.g.g.g.g.g.g.g.g.g.g.g.g.g.g.g.g.g.g.g.g.",
"g.g.g.g.g.g.g.g.g.g.g.g.g.g.g.g.g.g.g.g.g.g.g.g.g.g.g.g.g.g.g.g.g.g.g.g.g.g.g.g.g.g.",
"g.g.g.g.g.g.g.g.g.g.g.g.g.g.g.g.g.g.g.g.g.g.g.g.g.g.g.g.g.g.g.g.g.g.g.g.g.g.g.g.g.g.",
"g.g.g.g.g.g.g.g.g.g.g.g.g.g.g.g.g.g.g.g.g.g.g.g.g.g.g.g.g.g.g.g.g.g.g.g.g.g.g.g.g.g.",
"g.g.g.g.g.g.g.g.g.g.g.g.g.g.g.g.g.g.g.g.g.g.g.g.g.g.g.g.g.g.g.g.g.g.g.g.g.g.g.g.g.g.",
"g.g.g.g.g.g.g.g.g.g.g.g.g.g.g.g.g.g.g.g.g.g.g.g.g.g.g.g.g.g.g.g.g.g.g.g.g.g.g.g.g.g.",
"g.g.g.g.g.g.g.g.# # # # # # # # # $ $ $ $ $ $ $ $ # # # # # # # # # g.g.g.g.g.g.g.g.",
"g.g.g.g.g.g.g.# ^ ' ` | ......X.| ^ E E E W W W ^ | X.......| ` ' ^ # g.g.g.g.g.g.g.",
"g.g.g.g.g.g.g.# ' L K >.5.5.3.@.( 3 i s a q 8 4 3 ) @.3.5.5.>.K L ' # g.g.g.g.g.g.g.",
"g.g.g.g.g.g.g.# ` K H ;.3.3._ 1 p Y s.f.d.y.t.e.M ; > _ 3.3.;.H K ` # g.g.g.g.g.g.g.",
"g.g.g.g.g.g.g.# | >.;.3.1._ 7 P a.u.i.9.8.7.6.[ F B x 9 _ 1.3.;.>.| # g.g.g.g.g.g.g.",
"g.g.g.g.g.g.g.# ..5.3.5.O.2 I r.0.+.T H Q ! H H / =.#.b < O.5.3.5...# g.g.g.g.g.g.g.",
"g.g.g.g.g.g.g.# ..5.3.5.| y p.q.1.-.X.U G G R o.;.3.3._ :  .5.3.5...# g.g.g.g.g.g.g.",
"g.g.g.g.g.g.g.# ..5.3.5...- J &.*./ H H ~ ~ H H / =.%.B * ..5.3.5...# g.g.g.g.g.g.g.",
"g.g.g.g.g.g.g.# ..5.3.5...% t V Z D / =.<.<.;.] F Z V u % ..5.3.5...# g.g.g.g.g.g.g.",
"g.g.g.g.g.g.g.# ..5.3.5...% 5 d h B } %.%.$.,.w.S h d 5 % ..5.3.5...# g.g.g.g.g.g.g.",
"g.g.g.g.g.g.g.# ..5.3.5.o.= , r r f j k k k l z g r r , = o.5.3.5...# g.g.g.g.g.g.g.",
"g.g.g.g.g.g.g.# ..5.3.3.;.m & , 6 r r r r r r w e 6 , & m ;.3.3.5...# g.g.g.g.g.g.g.",
"g.g.g.g.g.g.g.# | >.;.2.3.%.n % + , 5 5 5 5 5 5 , + % n %.3.2.;.>.| # g.g.g.g.g.g.g.",
"g.g.g.g.g.g.g.# ` K H ;.3.3.#.A c = O O O O O O = c A #.3.3.;.H K ` # g.g.g.g.g.g.g.",
"g.g.g.g.g.g.g.# ' K H ;.3.3.3.>.;.{ C m N N m C { ;.>.3.3.3.;.H K ' # g.g.g.g.g.g.g.",
"g.g.g.g.g.g.g.@ ' >.:.3.3.3.3.5.5.4.>.:.:.:.:.>.4.5.5.3.3.3.3.:.>.' @ g.g.g.g.g.g.g.",
"g.g.g.g.g.g.g.o B %.>.:.;.;.;.;.;.:.:.:.:.:.:.:.:.;.;.;.;.;.:.>.%.B o g.g.g.g.g.g.g.",
"g.g.g.g.g.g.g.  0 v N N N N N N N N N N N N N N N N N N N N N N v 0   g.g.g.g.g.g.g.",
"g.g.g.g.g.g.g.g.. X o o o o o o o o o o o o o o o o o o o o o o X . g.g.g.g.g.g.g.g.",
"g.g.g.g.g.g.g.g.g.g.g.g.g.g.g.g.g.g.g.g.g.g.g.g.g.g.g.g.g.g.g.g.g.g.g.g.g.g.g.g.g.g.",
"g.g.g.g.g.g.g.g.g.g.g.g.g.g.g.g.g.g.g.g.g.g.g.g.g.g.g.g.g.g.g.g.g.g.g.g.g.g.g.g.g.g.",
"g.g.g.g.g.g.g.g.g.g.g.g.g.g.g.g.g.g.g.g.g.g.g.g.g.g.g.g.g.g.g.g.g.g.g.g.g.g.g.g.g.g.",
"g.g.g.g.g.g.g.g.g.g.g.g.g.g.g.g.g.g.g.g.g.g.g.g.g.g.g.g.g.g.g.g.g.g.g.g.g.g.g.g.g.g.",
"g.g.g.g.g.g.g.g.g.g.g.g.g.g.g.g.g.g.g.g.g.g.g.g.g.g.g.g.g.g.g.g.g.g.g.g.g.g.g.g.g.g.",
"g.g.g.g.g.g.g.g.g.g.g.g.g.g.g.g.g.g.g.g.g.g.g.g.g.g.g.g.g.g.g.g.g.g.g.g.g.g.g.g.g.g.",
"g.g.g.g.g.g.g.g.g.g.g.g.g.g.g.g.g.g.g.g.g.g.g.g.g.g.g.g.g.g.g.g.g.g.g.g.g.g.g.g.g.g.",
"g.g.g.g.g.g.g.g.g.g.g.g.g.g.g.g.g.g.g.g.g.g.g.g.g.g.g.g.g.g.g.g.g.g.g.g.g.g.g.g.g.g.",
"g.g.g.g.g.g.g.g.g.g.g.g.g.g.g.g.g.g.g.g.g.g.g.g.g.g.g.g.g.g.g.g.g.g.g.g.g.g.g.g.g.g.",
"g.g.g.g.g.g.g.g.g.g.g.g.g.g.g.g.g.g.g.g.g.g.g.g.g.g.g.g.g.g.g.g.g.g.g.g.g.g.g.g.g.g."
};
