/* XPM */
static char *result[] = {
/* columns rows colors chars-per-pixel */
"42 42 80 1 ",
"  c gray10",
". c #1B1A1B",
"X c #1B1B1B",
"o c #1B1A1C",
"O c #1C1A1C",
"+ c #1C1A1D",
"@ c #1C1A1E",
"# c #1D1A1F",
"$ c gray11",
"% c #1D1C1C",
"& c #1D1D1D",
"* c #1E1C1E",
"= c #1F1E1E",
"- c #1F1E1F",
"; c #201F1F",
": c #1F1A22",
"> c #1F1A23",
", c #1F1C20",
"< c #201E20",
"1 c #201F20",
"2 c #201A24",
"3 c #211A25",
"4 c #211A26",
"5 c #211C24",
"6 c #221C26",
"7 c #221A28",
"8 c #241A2A",
"9 c #251A2B",
"0 c #251A2C",
"q c #261C2D",
"w c #271C2D",
"e c #271C2E",
"r c #281D2E",
"t c #291D2F",
"y c #281A32",
"u c #2C1A37",
"i c #2C1A38",
"p c #2F1A3C",
"a c #301A3E",
"s c #311E3D",
"d c #212021",
"f c #222121",
"g c #222022",
"h c #242223",
"j c #242224",
"k c #2B2829",
"l c #2D2A2C",
"z c #2E292E",
"x c #2F2B2E",
"c c #2F2C2D",
"v c #302C2E",
"b c #302C2F",
"n c #312C30",
"m c #322D30",
"M c #322E30",
"N c #322E31",
"B c #332E31",
"V c #332E32",
"C c #342E33",
"Z c #332935",
"A c #322A34",
"S c #352C37",
"D c #372C39",
"F c #372E38",
"G c #372E39",
"H c #3A2C3F",
"J c #353032",
"K c #343033",
"L c #353033",
"P c #353034",
"I c #3A1A50",
"U c #3C1A53",
"Y c #3D1C53",
"T c #401E56",
"R c #401A59",
"E c #411E58",
"W c #431A5E",
"Q c #461E5F",
"! c #441A60",
"~ c None",
/* pixels */
"~~~~~~~~~~~~~~~~~~~~~~~~~~~~~~~~~~~~~~~~~~",
"~~~~~~~~~~~~~~~~~~~~~~~~~~~~~~~~~~~~~~~~~~",
"~~~~~~~~~~~~~~~~~~~~~~~~~~~~~~~~~~~~~~~~~~",
"~~~~~~~~~~~~~~~~~~~~~~~~~~~~~~~~~~~~~~~~~~",
"~~~~~~~~~~~~~~~~~~~~~~~~~~~~~~~~~~~~~~~~~~",
"~~~~~~~~~~~~~~~~~~~~~~~~~~~~~~~~~~~~~~~~~~",
"~~~~~~~~~~~~~~~~~~~~~~~~~~~~~~~~~~~~~~~~~~",
"~~~~~~~~~~~~~~~~~~~~~~~~~~~~~~~~~~~~~~~~~~",
"~~~~~~~~~~~~~~~~~~~~~~~~~~~~~~~~~~~~~~~~~~",
"~~~~~~~~~~~~~~~~~~~~~~~~~~~~~~~~~~~~~~~~~~",
"~~~~~~~~~~~~~~~~~~~~~~~~~~~~~~~~~~~~~~~~~~",
"~~~~~~~~~~~~~~~~~~~~~~~~~~~~~~~~~~~~~~~~~~",
"~~~~~~~~~~~~~~~~~~~~~~~~~~~~~~~~~~~~~~~~~~",
"~~~~~~~~~~~~~~~~~~~~~~~~~~~~~~~~~~~~~~~~~~",
"~~~~~~~~~~~~~~~~~~~~~~~~~~~~~~~~~~~~~~~~~~",
"~~~~~~~~~~~~~~~~~~~~~~~~~~~~~~~~~~~~~~~~~~",
"~~~~~~~~~~~~~~~~~~~~~~~~~~~~~~~~~~~~~~~~~~",
"~~~~~~~~~~~~~~~~~~~~~~~~~~~~~~~~~~~~~~~~~~",
"~~~~~~~~~~~~~~~~~~~~~~~~~~~~~~~~~~~~~~~~~~",
"~~~~~~~~~~~~~~~~~~~~~~~~~~~~~~~~~~~~~~~~~~",
"~~~~~~~~~~~~~~~~~~~~~~~~~~~~~~~~~~~~~~~~~~",
"~~~~~~~~~~~~~~~~~~~~~~~~~~~~~~~~~~~~~~~~~~",
"~~~~~~~~~~~~~~~~~~~~~~~~~~~~~~~~~~~~~~~~~~",
"~~~~~~~~~~~~~~~~~~~~~~~~~~~~~~~~~~~~~~~~~~",
"~~~~~~~~~~~~~~~~~~~~~~~~~~~~~~~~~~~~~~~~~~",
"~~~~~~~~~~~~~~~~~~~~~~~~~~~~~~~~~~~~~~~~~~",
"~~~~~~~~~~~~~~~~~~~~~~~~~~~~~~~~~~~~~~~~~~",
"~~~~~~~~~~~~~~~~~~~~~~~~~~~~~~~~~~~~~~~~~~",
"~~~~~~~~~~~00000~~~~~~~~~~~~~~~~~~~~~~~~~~",
"00~~~~~~~tr,Oo+40~~~~~~~~~~~~~~~~~~~~~~~~~",
"@2..88o%1nCv-$:I40~~~~~~~~~~~~~~~~~~~~~~~~",
"6Y6:@2<vNLLLBv*2#0~~~~~~~~~~~~~~~~~~~~~~~~",
"VFSTyYAJLLLLBx*78~~~~~~~~~~~~~~~~~~~~~~~~~",
"LLPHEwgbLLLbf-&*#~~~~~~~~~~~~~~~~~~~~~~~~~",
"LLLPGBvhMBMdlmBZe~~~~~~~~~~~~~~~~~~~~~~~~~",
"LLLLLLLBMjl-;MDQu~~~~~~~~~~~~~~~~~~~~~~~~~",
"LLLLLLLLLvhk=zs!i~~~~~~~~~~~~~~~~~~~~~~~~~",
"LLLLLLLLLLbdXqRa~~~~~~~~~~~~~~~~~~~~~~~~~~",
"LLLLLLLLLLLc5Up~~~~~~~~~~~~~~~~~~~~~~~~~~~",
"LLLLLLLLLLLB<290~~~~~~~~~~~~~~~~~~~~~~~~~~",
"LLLLLLLLLLLKl$+3~~~~~~~~~~~~~~~~~~~~~~~~~~",
"LLLLLLLLLLLN; >W~~~~~~~~~~~~~~~~~~~~~~~~~~"
};
