/* XPM */
static char *result[] = {
/* columns rows colors chars-per-pixel */
"42 42 107 2 ",
"   c #191A18",
".  c #191A19",
"X  c #1A1A19",
"o  c gray10",
"O  c #1A1A1B",
"+  c #1B1A1B",
"@  c gray11",
"#  c #1D1D1D",
"$  c #1D1C1E",
"%  c #201F1F",
"&  c #1E1A20",
"*  c #1E1A21",
"=  c #1F1A22",
"-  c #1F1A23",
";  c #1F1C21",
":  c #211E21",
">  c #201A24",
",  c #201A25",
"<  c #211A25",
"1  c #221A27",
"2  c #221A28",
"3  c #231A29",
"4  c #231A2A",
"5  c #241A2A",
"6  c #241A2B",
"7  c #241C28",
"8  c #241C29",
"9  c #251C2B",
"0  c #251A2D",
"q  c #261A2E",
"w  c #261C2C",
"e  c #281F2D",
"r  c #271A30",
"t  c #281A32",
"y  c #281A33",
"u  c #291A33",
"i  c #2B1A36",
"p  c #2B1A37",
"a  c #222122",
"s  c #2F2B2D",
"d  c #2B2031",
"f  c #302B30",
"g  c #312B30",
"h  c #322D30",
"j  c #322E30",
"k  c #322E31",
"l  c #332E31",
"z  c #322C32",
"x  c #332E32",
"c  c #362C38",
"v  c #362C39",
"b  c #372E39",
"n  c #382E39",
"m  c #382E3A",
"M  c #392E3D",
"N  c #392C3E",
"B  c #3A2D3E",
"V  c #3A2E3E",
"C  c #3B2E3F",
"Z  c #343031",
"A  c #343032",
"S  c #353032",
"D  c #353033",
"F  c #353034",
"G  c #363034",
"H  c #3F1A57",
"J  c #3F1A58",
"K  c #392A40",
"L  c #3B2D40",
"P  c #3B2C41",
"I  c #3D2C45",
"U  c #3E2C47",
"Y  c #3F2B49",
"T  c #3F2C48",
"R  c #401A5A",
"E  c #451F5E",
"W  c #441A60",
"Q  c #441A61",
"!  c #451A62",
"~  c #461A65",
"^  c #471A66",
"/  c #481A67",
"(  c #481A68",
")  c #491A6A",
"_  c #4A1A6A",
"`  c #4A1A6B",
"'  c #4B1A6B",
"]  c #4B1A6D",
"[  c #4E1A71",
"{  c #4E1A72",
"}  c #4F1A73",
"|  c #4F1E72",
" . c #4F1A74",
".. c #501A74",
"X. c #501A75",
"o. c #521C79",
"O. c #531C7B",
"+. c #561E7D",
"@. c #472060",
"#. c #482061",
"$. c #591C85",
"%. c #5A1C86",
"&. c #5B1A8A",
"*. c #5F1C8F",
"=. c #621A95",
"-. c #651A9B",
";. c None",
/* pixels */
"D D D h h f 9 ; g D D D D D m ;.;.;.;.;.;.;.;.;.;.;.;.;.;.;.;.;.;.;.;.;.;.;.;.;.;.;.",
"D D l a % # & w d c F D G P E ;.;.;.;.;.;.;.;.;.;.;.;.;.;.;.;.;.;.;.;.;.;.;.;.;.;.;.",
"D D D k s $ 9 z v @.b Z V +.y ;.;.;.;.;.;.;.;.;.;.;.;.;.;.;.;.;.;.;.;.;.;.;.;.;.;.;.",
"D D S D k : e x n #.I V Y O.4 ;.;.;.;.;.;.;.;.;.;.;.;.;.;.;.;.;.;.;.;.;.;.;.;.;.;.;.",
"j x M F A l N L B K +.*.$.p ;.;.;.;.;.;.;.;.;.;.;.;.;.;.;.;.;.;.;.;.;.;.;.;.;.;.;.;.",
"@ 7 | T C U +.%.o.8 i ( ] ;.;.;.;.;.;.;.;.;.;.;.;.;.;.;.;.;.;.;.;.;.;.;.;.;.;.;.;.;.",
"o O t O.%.O.u 3 r 0 R 0 > ;.;.;.;.;.;.;.;.;.;.;.;.;.;.;.;.;.;.;.;.;.;.;.;.;.;.;.;.;.",
"o o + 2 4 1 + 3 Q ` [ ;.;.;.;.;.;.;.;.;.;.;.;.;.;.;.;.;.;.;.;.;.;.;.;.;.;.;.;.;.;.;.",
"o o o . .   = !  ...} ;.;.;.;.;.;.;.;.;.;.;.;.;.;.;.;.;.;.;.;.;.;.;.;.;.;.;.;.;.;.;.",
"o o o o + - 0 _ ` _ { ;.;.;.;.;.;.;.;.;.;.;.;.;.;.;.;.;.;.;.;.;.;.;.;.;.;.;.;.;.;.;.",
"o o o X = J ! W 6 < ;.;.;.;.;.;.;.;.;.;.;.;.;.;.;.;.;.;.;.;.;.;.;.;.;.;.;.;.;.;.;.;.",
"o o o o O - < 6 , ;.;.;.;.;.;.;.;.;.;.;.;.;.;.;.;.;.;.;.;.;.;.;.;.;.;.;.;.;.;.;.;.;.",
"o o o + * + 5 ~ ) ;.;.;.;.;.;.;.;.;.;.;.;.;.;.;.;.;.;.;.;.;.;.;.;.;.;.;.;.;.;.;.;.;.",
"o o . - H 6 ^ =.;.;.;.;.;.;.;.;.;.;.;.;.;.;.;.;.;.;.;.;.;.;.;.;.;.;.;.;.;.;.;.;.;.;.",
"o + = 0 Q q { -.;.;.;.;.;.;.;.;.;.;.;.;.;.;.;.;.;.;.;.;.;.;.;.;.;.;.;.;.;.;.;.;.;.;.",
"X - Q ' / t &.;.;.;.;.;.;.;.;.;.;.;.;.;.;.;.;.;.;.;.;.;.;.;.;.;.;.;.;.;.;.;.;.;.;.;.",
"X > _ X.;.;.;.;.;.;.;.;.;.;.;.;.;.;.;.;.;.;.;.;.;.;.;.;.;.;.;.;.;.;.;.;.;.;.;.;.;.;.",
";.;.;.;.;.;.;.;.;.;.;.;.;.;.;.;.;.;.;.;.;.;.;.;.;.;.;.;.;.;.;.;.;.;.;.;.;.;.;.;.;.;.",
";.;.;.;.;.;.;.;.;.;.;.;.;.;.;.;.;.;.;.;.;.;.;.;.;.;.;.;.;.;.;.;.;.;.;.;.;.;.;.;.;.;.",
";.;.;.;.;.;.;.;.;.;.;.;.;.;.;.;.;.;.;.;.;.;.;.;.;.;.;.;.;.;.;.;.;.;.;.;.;.;.;.;.;.;.",
";.;.;.;.;.;.;.;.;.;.;.;.;.;.;.;.;.;.;.;.;.;.;.;.;.;.;.;.;.;.;.;.;.;.;.;.;.;.;.;.;.;.",
";.;.;.;.;.;.;.;.;.;.;.;.;.;.;.;.;.;.;.;.;.;.;.;.;.;.;.;.;.;.;.;.;.;.;.;.;.;.;.;.;.;.",
";.;.;.;.;.;.;.;.;.;.;.;.;.;.;.;.;.;.;.;.;.;.;.;.;.;.;.;.;.;.;.;.;.;.;.;.;.;.;.;.;.;.",
";.;.;.;.;.;.;.;.;.;.;.;.;.;.;.;.;.;.;.;.;.;.;.;.;.;.;.;.;.;.;.;.;.;.;.;.;.;.;.;.;.;.",
";.;.;.;.;.;.;.;.;.;.;.;.;.;.;.;.;.;.;.;.;.;.;.;.;.;.;.;.;.;.;.;.;.;.;.;.;.;.;.;.;.;.",
";.;.;.;.;.;.;.;.;.;.;.;.;.;.;.;.;.;.;.;.;.;.;.;.;.;.;.;.;.;.;.;.;.;.;.;.;.;.;.;.;.;.",
";.;.;.;.;.;.;.;.;.;.;.;.;.;.;.;.;.;.;.;.;.;.;.;.;.;.;.;.;.;.;.;.;.;.;.;.;.;.;.;.;.;.",
";.;.;.;.;.;.;.;.;.;.;.;.;.;.;.;.;.;.;.;.;.;.;.;.;.;.;.;.;.;.;.;.;.;.;.;.;.;.;.;.;.;.",
";.;.;.;.;.;.;.;.;.;.;.;.;.;.;.;.;.;.;.;.;.;.;.;.;.;.;.;.;.;.;.;.;.;.;.;.;.;.;.;.;.;.",
";.;.;.;.;.;.;.;.;.;.;.;.;.;.;.;.;.;.;.;.;.;.;.;.;.;.;.;.;.;.;.;.;.;.;.;.;.;.;.;.;.;.",
";.;.;.;.;.;.;.;.;.;.;.;.;.;.;.;.;.;.;.;.;.;.;.;.;.;.;.;.;.;.;.;.;.;.;.;.;.;.;.;.;.;.",
";.;.;.;.;.;.;.;.;.;.;.;.;.;.;.;.;.;.;.;.;.;.;.;.;.;.;.;.;.;.;.;.;.;.;.;.;.;.;.;.;.;.",
";.;.;.;.;.;.;.;.;.;.;.;.;.;.;.;.;.;.;.;.;.;.;.;.;.;.;.;.;.;.;.;.;.;.;.;.;.;.;.;.;.;.",
";.;.;.;.;.;.;.;.;.;.;.;.;.;.;.;.;.;.;.;.;.;.;.;.;.;.;.;.;.;.;.;.;.;.;.;.;.;.;.;.;.;.",
";.;.;.;.;.;.;.;.;.;.;.;.;.;.;.;.;.;.;.;.;.;.;.;.;.;.;.;.;.;.;.;.;.;.;.;.;.;.;.;.;.;.",
";.;.;.;.;.;.;.;.;.;.;.;.;.;.;.;.;.;.;.;.;.;.;.;.;.;.;.;.;.;.;.;.;.;.;.;.;.;.;.;.;.;.",
";.;.;.;.;.;.;.;.;.;.;.;.;.;.;.;.;.;.;.;.;.;.;.;.;.;.;.;.;.;.;.;.;.;.;.;.;.;.;.;.;.;.",
";.;.;.;.;.;.;.;.;.;.;.;.;.;.;.;.;.;.;.;.;.;.;.;.;.;.;.;.;.;.;.;.;.;.;.;.;.;.;.;.;.;.",
";.;.;.;.;.;.;.;.;.;.;.;.;.;.;.;.;.;.;.;.;.;.;.;.;.;.;.;.;.;.;.;.;.;.;.;.;.;.;.;.;.;.",
";.;.;.;.;.;.;.;.;.;.;.;.;.;.;.;.;.;.;.;.;.;.;.;.;.;.;.;.;.;.;.;.;.;.;.;.;.;.;.;.;.;.",
";.;.;.;.;.;.;.;.;.;.;.;.;.;.;.;.;.;.;.;.;.;.;.;.;.;.;.;.;.;.;.;.;.;.;.;.;.;.;.;.;.;.",
";.;.;.;.;.;.;.;.;.;.;.;.;.;.;.;.;.;.;.;.;.;.;.;.;.;.;.;.;.;.;.;.;.;.;.;.;.;.;.;.;.;."
};
