/* XPM */
static char *result[] = {
/* columns rows colors chars-per-pixel */
"42 42 120 2 ",
"   c #060000",
".  c #070000",
"X  c #080000",
"o  c #090101",
"O  c #0A0202",
"+  c #0D0608",
"@  c #0E0608",
"#  c #100909",
"$  c #110909",
"%  c #10080A",
"&  c #110A0A",
"*  c #130B0B",
"=  c #120B0D",
"-  c #130C0C",
";  c #160F0F",
":  c #170F0F",
">  c #171010",
",  c #171012",
"<  c #181111",
"1  c #191111",
"2  c #181112",
"3  c #181113",
"4  c #191212",
"5  c #1A1313",
"6  c #191214",
"7  c #1A1414",
"8  c #1B1515",
"9  c #1B1517",
"0  c #1D1616",
"q  c #1E1616",
"w  c #1D1618",
"e  c #1E1818",
"r  c #1F1919",
"t  c #201919",
"y  c #20191A",
"u  c #201A1A",
"i  c #211A1A",
"p  c #221C1C",
"a  c #231D1D",
"s  c #241E1E",
"d  c #262020",
"f  c #272121",
"g  c #282222",
"h  c #292222",
"j  c #2A2323",
"k  c #2B2525",
"l  c #2D2727",
"z  c #2C2628",
"x  c #302A2C",
"c  c #342E3C",
"v  c #373131",
"b  c #3A3535",
"n  c #36303F",
"m  c #403A3A",
"M  c #484646",
"N  c #4A4747",
"B  c #45404C",
"V  c #4E4C4C",
"C  c #4F4D4D",
"Z  c #504E4E",
"A  c #4C4755",
"S  c #515050",
"D  c #525050",
"F  c #525151",
"G  c #5C5B5B",
"H  c #5F5E5E",
"J  c #605F5F",
"K  c #616060",
"L  c #636161",
"P  c #646464",
"I  c #666565",
"U  c #676666",
"Y  c DimGray",
"T  c #717171",
"R  c #7E7D7D",
"E  c #7F7D7D",
"W  c #828080",
"Q  c #828181",
"!  c #838181",
"~  c #838282",
"^  c #848282",
"/  c #868585",
"(  c #868686",
")  c #898888",
"_  c #8C8B8B",
"`  c #8D8B8B",
"'  c #8E8D8D",
"]  c #8F8E8E",
"[  c #909090",
"{  c #919090",
"}  c #919190",
"|  c #939191",
" . c #939292",
".. c #949393",
"X. c #989898",
"o. c #9B9A9A",
"O. c #9B9B9B",
"+. c #9E9A9A",
"@. c #9E9B9B",
"#. c #9F9F9F",
"$. c #AAA8AB",
"%. c #ABAAAA",
"&. c gray67",
"*. c #AFAEAE",
"=. c gray70",
"-. c #B6B5B5",
";. c #B7B6B6",
":. c #B7B7B7",
">. c #B8B7B7",
",. c gray72",
"<. c #B9B8B8",
"1. c #C5C5C5",
"2. c #C6C6C6",
"3. c gray78",
"4. c #C8C8C8",
"5. c gray79",
"6. c gray80",
"7. c #CDCDCD",
"8. c #CECECE",
"9. c None",
/* pixels */
"9.9.9.9.9.9.9.9.9.9.9.9.9.9.9.9.9.9.9.9.9.9.9.9.9.9.9.9.9.9.9.9.9.9.9.9.9.9.9.9.9.9.",
"9.9.9.9.9.9.9.9.9.9.9.9.9.9.9.9.9.9.9.9.9.9.9.9.9.9.9.9.9.9.9.9.9.9.9.9.9.9.9.9.9.9.",
"9.9.9.9.9.9.9.9.9.9.9.9.9.9.9.9.9.9.9.9.9.9.9.9.9.9.9.9.9.9.9.9.9.9.9.9.9.9.9.9.9.9.",
"9.9.9.9.9.9.9.9.9.9.9.9.9.9.9.9.9.9.9.9.9.9.9.9.9.9.9.9.9.9.9.9.9.9.9.9.9.9.9.9.9.9.",
"9.9.9.9.9.9.9.9.9.9.9.9.9.9.9.9.9.9.9.9.9.9.9.9.9.9.9.9.9.9.9.9.9.9.9.9.9.9.9.9.9.9.",
"9.9.9.9.9.9.9.9.9.9.9.9.9.9.9.9.9.9.9.9.9.9.9.9.9.9.9.9.9.9.9.9.9.9.9.9.9.9.9.9.9.9.",
"9.9.9.9.9.9.9.9.9.9.9.9.9.9.9.9.9.9.9.9.9.9.9.9.9.9.9.9.9.9.9.9.9.9.9.9.9.9.9.9.9.9.",
"9.9.9.9.9.9.9.9.9.9.9.9.9.9.9.9.9.9.9.9.9.9.9.9.9.9.9.9.9.9.9.9.9.9.9.9.9.9.9.9.9.9.",
"9.9.9.9.9.9.9.9.9.9.9.9.9.9.9.9.9.9.9.9.9.9.9.9.9.9.9.9.9.9.9.9.9.9.9.9.9.9.9.9.9.9.",
"9.9.9.9.9.9.9.9.9.9.9.9.9.9.9.9.9.9.9.9.9.9.9.9.9.9.9.9.9.9.9.9.9.9.9.9.9.9.9.9.9.9.",
"9.9.9.9.9.9.9.9.9.9.9.9.9.9.9.9.9.9.9.9.9.9.9.9.9.9.9.9.9.9.9.9.9.9.9.9.9.9.9.9.9.9.",
"9.9.9.9.9.9.9.9.9.9.9.9.9.9.9.9.9.9.. .     . . 9.9.9.9.9.9.9.9.9.9.9.9.9.9.9.9.9.9.",
"9.9.9.9.9.9.9.9.9.9.9.9.9.9.9.9.. o : 4 0 0 4 : o . 9.9.9.9.9.9.9.9.9.9.9.9.9.9.9.9.",
"9.9.9.9.9.9.9.9.9.9.9.9.9.9.9.o ; j ) o.=.=.o.) j ; o 9.9.9.9.9.9.9.9.9.9.9.9.9.9.9.",
"9.9.9.9.9.9.9.9.9.9.9.9.9.9.X s _ -.3.5.7.7.5.3.-._ s X 9.9.9.9.9.9.9.9.9.9.9.9.9.9.",
"9.9.9.9.9.9.9.9.9.9.9.9.9.o s ' 1.7.6.6.6.6.6.6.7.1.' s o 9.9.9.9.9.9.9.9.9.9.9.9.9.",
"9.9.9.9.9.9.9.9.9.9.9.9.. ; ` 2.8.6.6.6.6.6.6.6.6.8.2.` ; . 9.9.9.9.9.9.9.9.9.9.9.9.",
"9.9.9.9.9.9.9.9.9.9.9.9.o h %.:.,.3.6.6.6.6.6.6.3.;.<.&.h o 9.9.9.9.9.9.9.9.9.9.9.9.",
"9.9.9.9.9.9.9.9.9.9.9.. > R I b l ] 3.7.7.7.7.3.| m f L E > . 9.9.9.9.9.9.9.9.9.9.9.",
"9.9.9.9.9.9.9.9.9.9.9.. 5 W v +.q g <.4.>.>.4.;.m @.0 r ~ 5 . 9.9.9.9.9.9.9.9.9.9.9.",
"9.9.9.9.9.9.9.9.9.9.9.. 5 Q s 0 O a *.{ x x { *.f 0 O i ! 5 . 9.9.9.9.9.9.9.9.9.9.9.",
"9.9.9.9.9.9.9.9.9.9.9.. 1 ( J e r K { z n n z } K e t J ( 1 . 9.9.9.9.9.9.9.9.9.9.9.",
"9.9.9.9.9.9.9.9.9.9.9.. $ G [  ...O.^ > @ @ > ^ O... .[ G $ . 9.9.9.9.9.9.9.9.9.9.9.",
"9.9.9.9.9.9.9.9.9.9.9.o # 7 U X.#...d X   . X d ..#.X.U 7 # o 9.9.9.9.9.9.9.9.9.9.9.",
"9.9.9.9.9.9.9.9.9.9.. & M p F Y T / < % y = + 2 / T Y F p M & . 9.9.9.9.9.9.9.9.9.9.",
"9.9.9.9.9.9.9.9.9.9.. & Z N u S P H , B $.A c 3 H P S u N Z & . 9.9.9.9.9.9.9.9.9.9.",
"9.9.9.9.9.9.9.9.9.9.9.o & & o 4 D D 8 9 k w 6 8 D D 4 o & & o 9.9.9.9.9.9.9.9.9.9.9.",
"9.9.9.9.9.9.9.9.9.9.9.9.. . 9.o # 4 M C V C C M 4 # o 9.. . 9.9.9.9.9.9.9.9.9.9.9.9.",
"9.9.9.9.9.9.9.9.9.9.9.9.9.9.9.9.. o & - * * - & o . 9.9.9.9.9.9.9.9.9.9.9.9.9.9.9.9.",
"9.9.9.9.9.9.9.9.9.9.9.9.9.9.9.9.9.9.. . . . . . 9.9.9.9.9.9.9.9.9.9.9.9.9.9.9.9.9.9.",
"9.9.9.9.9.9.9.9.9.9.9.9.9.9.9.9.9.9.9.9.9.9.9.9.9.9.9.9.9.9.9.9.9.9.9.9.9.9.9.9.9.9.",
"9.9.9.9.9.9.9.9.9.9.9.9.9.9.9.9.9.9.9.9.9.9.9.9.9.9.9.9.9.9.9.9.9.9.9.9.9.9.9.9.9.9.",
"9.9.9.9.9.9.9.9.9.9.9.9.9.9.9.9.9.9.9.9.9.9.9.9.9.9.9.9.9.9.9.9.9.9.9.9.9.9.9.9.9.9.",
"9.9.9.9.9.9.9.9.9.9.9.9.9.9.9.9.9.9.9.9.9.9.9.9.9.9.9.9.9.9.9.9.9.9.9.9.9.9.9.9.9.9.",
"9.9.9.9.9.9.9.9.9.9.9.9.9.9.9.9.9.9.9.9.9.9.9.9.9.9.9.9.9.9.9.9.9.9.9.9.9.9.9.9.9.9.",
"9.9.9.9.9.9.9.9.9.9.9.9.9.9.9.9.9.9.9.9.9.9.9.9.9.9.9.9.9.9.9.9.9.9.9.9.9.9.9.9.9.9.",
"9.9.9.9.9.9.9.9.9.9.9.9.9.9.9.9.9.9.9.9.9.9.9.9.9.9.9.9.9.9.9.9.9.9.9.9.9.9.9.9.9.9.",
"9.9.9.9.9.9.9.9.9.9.9.9.9.9.9.9.9.9.9.9.9.9.9.9.9.9.9.9.9.9.9.9.9.9.9.9.9.9.9.9.9.9.",
"9.9.9.9.9.9.9.9.9.9.9.9.9.9.9.9.9.9.9.9.9.9.9.9.9.9.9.9.9.9.9.9.9.9.9.9.9.9.9.9.9.9.",
"9.9.9.9.9.9.9.9.9.9.9.9.9.9.9.9.9.9.9.9.9.9.9.9.9.9.9.9.9.9.9.9.9.9.9.9.9.9.9.9.9.9.",
"9.9.9.9.9.9.9.9.9.9.9.9.9.9.9.9.9.9.9.9.9.9.9.9.9.9.9.9.9.9.9.9.9.9.9.9.9.9.9.9.9.9.",
"9.9.9.9.9.9.9.9.9.9.9.9.9.9.9.9.9.9.9.9.9.9.9.9.9.9.9.9.9.9.9.9.9.9.9.9.9.9.9.9.9.9."
};
