/* XPM */
static char *result[] = {
/* columns rows colors chars-per-pixel */
"42 42 108 2 ",
"   c #060000",
".  c #070000",
"X  c #080000",
"o  c #090101",
"O  c #090202",
"+  c #0A0202",
"@  c #0B0303",
"#  c #0D0505",
"$  c #0E0608",
"%  c #0F0808",
"&  c #100808",
"*  c #100909",
"=  c #10090B",
"-  c #110A0A",
";  c #120B0D",
":  c #130C0C",
">  c #150D0D",
",  c #150E0E",
"<  c #160F0F",
"1  c #170F0F",
"2  c #171010",
"3  c #181111",
"4  c #181212",
"5  c #191212",
"6  c #191312",
"7  c #191313",
"8  c #1A1313",
"9  c #1C1515",
"0  c #1D1616",
"q  c #1E1717",
"w  c #1C1618",
"e  c #1F191B",
"r  c #201919",
"t  c #20191A",
"y  c #201A1A",
"u  c #201A1B",
"i  c #211B1B",
"p  c #201A1C",
"a  c #221C1C",
"s  c #221C1E",
"d  c #231E1E",
"f  c #241E1E",
"g  c #251F1F",
"h  c #2A2323",
"j  c #2A2424",
"k  c #2A2425",
"l  c #2D2729",
"z  c #2F2828",
"x  c #302A2C",
"c  c #35303E",
"v  c #36313F",
"b  c #413B3B",
"n  c #413E3E",
"m  c #484645",
"M  c #484646",
"N  c #4A4747",
"B  c #46424E",
"V  c #4B4949",
"C  c #4E4C4C",
"Z  c #4F4D4D",
"A  c #514F4F",
"S  c #4C4755",
"D  c #525050",
"F  c #525151",
"G  c #535252",
"H  c #575656",
"J  c #5A5959",
"K  c #5F5D5D",
"L  c #5F5E5E",
"P  c #646464",
"I  c #676666",
"U  c DimGray",
"Y  c #717171",
"T  c #787575",
"R  c #797777",
"E  c #7E7D7D",
"W  c #838181",
"Q  c #868484",
"!  c #868686",
"~  c #878686",
"^  c #898888",
"/  c #8C8B8B",
"(  c #8D8D8D",
")  c #8F8E8E",
"_  c #908E8E",
"`  c #918F90",
"'  c #929191",
"]  c #939191",
"[  c #959494",
"{  c #989999",
"}  c #9B9A9A",
"|  c #9E9B9B",
" . c #9FA0A0",
".. c #AAA7AB",
"X. c #AFAEAE",
"o. c #B0AFAF",
"O. c gray70",
"+. c #B6B5B5",
"@. c #B7B7B7",
"#. c #B8B7B7",
"$. c #B9B8B8",
"%. c #C6C6C6",
"&. c gray78",
"*. c gray79",
"=. c gray80",
"-. c #CDCDCD",
";. c #CECECE",
":. c None",
/* pixels */
":.:.:.:.:.:.:.:.:.:.:.:.:.:.:.:.:.:.:.:.:.:.:.:.:.:.:.:.:.:.:.:.:.:.:.:.:.:.:.:.:.:.",
":.:.:.:.:.:.:.:.:.:.:.:.:.:.:.:.:.:.:.:.:.:.:.:.:.:.:.:.:.:.:.:.:.:.:.:.:.:.:.:.:.:.",
":.:.:.:.:.:.:.:.:.:.:.:.:.:.:.:.:.:.:.:.:.:.:.:.:.:.:.:.:.:.:.:.:.:.:.:.:.:.:.:.:.:.",
":.:.:.:.:.:.:.:.:.:.:.:.:.:.:.:.:.:.:.:.:.:.:.:.:.:.:.:.:.:.:.:.:.:.:.:.:.:.:.:.:.:.",
":.:.:.:.:.:.:.:.:.:.:.:.:.:.:.:.:.:.:.:.:.:.:.:.:.:.:.:.:.:.:.:.:.:.:.:.:.:.:.:.:.:.",
":.:.:.:.:.:.:.:.:.:.:.:.:.:.:.:.:.:.:.:.:.:.:.:.:.:.:.:.:.:.:.:.:.:.:.:.:.:.:.:.:.:.",
":.:.:.:.:.:.:.:.:.:.:.:.:.:.:.:.:.:.:.:.:.:.:.:.:.:.:.:.:.:.:.:.:.:.:.:.:.:.:.:.:.:.",
":.:.:.:.:.:.:.:.:.:.:.:.:.:.:.:.:.:.:.:.:.:.:.:.:.:.:.:.:.:.:.:.:.:.:.:.:.:.:.:.:.:.",
":.:.:.:.:.:.:.:.:.:.:.:.:.:.:.:.:.:.:.:.:.:.:.:.:.:.:.:.:.:.:.:.:.:.:.:.:.:.:.:.:.:.",
":.:.:.:.:.:.:.:.:.:.:.:.:.:.:.:.:.:.:.:.:.:.:.:.:.:.:.:.:.:.:.:.:.:.:.:.:.:.:.:.:.:.",
":.:.:.:.:.:.:.:.:.:.:.:.:.:.:.:.:.:.:.:.:.:.:.:.:.:.:.:.:.:.:.:.:.:.:.:.:.:.:.:.:.:.",
":.:.:.:.:.:.:.:.:.:.:.:.:.:.:.:.:.:.. .     . . :.:.:.:.:.:.:.:.:.:.:.:.:.:.:.:.:.:.",
":.:.:.:.:.:.:.:.:.:.:.:.:.:.:.:.. o 1 5 0 0 5 1 o . :.:.:.:.:.:.:.:.:.:.:.:.:.:.:.:.",
":.:.:.:.:.:.:.:.:.:.:.:.:.:.:.o < h ^ } O.O.} ^ h < o :.:.:.:.:.:.:.:.:.:.:.:.:.:.:.",
":.:.:.:.:.:.:.:.:.:.:.:.:.:.X f / +.&.*.-.-.*.&.+./ f X :.:.:.:.:.:.:.:.:.:.:.:.:.:.",
":.:.:.:.:.:.:.:.:.:.:.:.:.o g _ %.;.=.=.=.=.=.=.;.%._ g o :.:.:.:.:.:.:.:.:.:.:.:.:.",
":.:.:.:.:.:.:.:.:.:.:.:.. > T X.$.&.=.=.-.-.=.=.&.@.X.R , . :.:.:.:.:.:.:.:.:.:.:.:.",
":.:.:.:.:.:.:.:.:.:.:.:.X # z r j ) &.&.#.#.&.&.] b r 3 + X :.:.:.:.:.:.:.:.:.:.:.:.",
":.:.:.:.:.:.:.:.:.:.:.X . q | 0   j o.` x x ` X.b | 0   X X X :.:.:.:.:.:.:.:.:.:.:.",
":.:.:.:.:.:.:.:.:.:.:.X X @ q @   5 Q l v v l Q 9 0 @ X . X X :.:.:.:.:.:.:.:.:.:.:.",
":.:.:.:.:.:.:.:.:.:.:.X o % .   . i W 8 $ $ 8 W i     X & o X :.:.:.:.:.:.:.:.:.:.:.",
":.:.:.:.:.:.:.:.:.:.:.. - N i 3 y K E 2 . . 2 E K y 3 i N - . :.:.:.:.:.:.:.:.:.:.:.",
":.:.:.:.:.:.:.:.:.:.:.o 4 H ~ ' [ ( g o X X o g ( [ ' ~ H 4 o :.:.:.:.:.:.:.:.:.:.:.",
":.:.:.:.:.:.:.:.:.:.. - M d I {  .' 3 . X X . 3 '  .{ I d M - . :.:.:.:.:.:.:.:.:.:.",
":.:.:.:.:.:.:.:.:.:.. - M a F U Y ! 3     .   3 ! Y U F a M - . :.:.:.:.:.:.:.:.:.:.",
":.:.:.:.:.:.:.:.:.:.:.o 3 n i D P L : = t ; $ : L P D i n 3 o :.:.:.:.:.:.:.:.:.:.:.",
":.:.:.:.:.:.:.:.:.:.:.:.o - O 4 G J e B ..S c u J G 4 O - o :.:.:.:.:.:.:.:.:.:.:.:.",
":.:.:.:.:.:.:.:.:.:.:.:.:.:.:.X 5 A V s k w p V A 5 X :.:.:.:.:.:.:.:.:.:.:.:.:.:.:.",
":.:.:.:.:.:.:.:.:.:.:.:.:.:.:.:.o * 7 m C Z M 6 * o :.:.:.:.:.:.:.:.:.:.:.:.:.:.:.:.",
":.:.:.:.:.:.:.:.:.:.:.:.:.:.:.:.:.. o - : : - o . :.:.:.:.:.:.:.:.:.:.:.:.:.:.:.:.:.",
":.:.:.:.:.:.:.:.:.:.:.:.:.:.:.:.:.:.:.. . . . :.:.:.:.:.:.:.:.:.:.:.:.:.:.:.:.:.:.:.",
":.:.:.:.:.:.:.:.:.:.:.:.:.:.:.:.:.:.:.:.:.:.:.:.:.:.:.:.:.:.:.:.:.:.:.:.:.:.:.:.:.:.",
":.:.:.:.:.:.:.:.:.:.:.:.:.:.:.:.:.:.:.:.:.:.:.:.:.:.:.:.:.:.:.:.:.:.:.:.:.:.:.:.:.:.",
":.:.:.:.:.:.:.:.:.:.:.:.:.:.:.:.:.:.:.:.:.:.:.:.:.:.:.:.:.:.:.:.:.:.:.:.:.:.:.:.:.:.",
":.:.:.:.:.:.:.:.:.:.:.:.:.:.:.:.:.:.:.:.:.:.:.:.:.:.:.:.:.:.:.:.:.:.:.:.:.:.:.:.:.:.",
":.:.:.:.:.:.:.:.:.:.:.:.:.:.:.:.:.:.:.:.:.:.:.:.:.:.:.:.:.:.:.:.:.:.:.:.:.:.:.:.:.:.",
":.:.:.:.:.:.:.:.:.:.:.:.:.:.:.:.:.:.:.:.:.:.:.:.:.:.:.:.:.:.:.:.:.:.:.:.:.:.:.:.:.:.",
":.:.:.:.:.:.:.:.:.:.:.:.:.:.:.:.:.:.:.:.:.:.:.:.:.:.:.:.:.:.:.:.:.:.:.:.:.:.:.:.:.:.",
":.:.:.:.:.:.:.:.:.:.:.:.:.:.:.:.:.:.:.:.:.:.:.:.:.:.:.:.:.:.:.:.:.:.:.:.:.:.:.:.:.:.",
":.:.:.:.:.:.:.:.:.:.:.:.:.:.:.:.:.:.:.:.:.:.:.:.:.:.:.:.:.:.:.:.:.:.:.:.:.:.:.:.:.:.",
":.:.:.:.:.:.:.:.:.:.:.:.:.:.:.:.:.:.:.:.:.:.:.:.:.:.:.:.:.:.:.:.:.:.:.:.:.:.:.:.:.:.",
":.:.:.:.:.:.:.:.:.:.:.:.:.:.:.:.:.:.:.:.:.:.:.:.:.:.:.:.:.:.:.:.:.:.:.:.:.:.:.:.:.:."
};
