/* XPM */
static char *result[] = {
/* columns rows colors chars-per-pixel */
"42 42 114 2 ",
"   c #050000",
".  c #060000",
"X  c #070000",
"o  c #080000",
"O  c #090101",
"+  c #0A0202",
"@  c #0B0303",
"#  c #0D0505",
"$  c #0E0608",
"%  c #0F0808",
"&  c #100808",
"*  c #100909",
"=  c #11090B",
"-  c #110A0A",
";  c #130B0B",
":  c #120B0D",
">  c #130C0C",
",  c #130C0D",
"<  c #140C0D",
"1  c #150D0D",
"2  c #150E0E",
"3  c #160F0F",
"4  c #170F0F",
"5  c #160F11",
"6  c #171010",
"7  c #171111",
"8  c #171012",
"9  c #181010",
"0  c #181111",
"q  c #181212",
"w  c #191212",
"e  c #191213",
"r  c #191313",
"t  c #191214",
"y  c #1B1515",
"u  c #1B1517",
"i  c #1C1515",
"p  c #1C1516",
"a  c #1D1616",
"s  c #1E1717",
"d  c #1D1618",
"f  c #1F1818",
"g  c #201919",
"h  c #20191A",
"j  c #201A1A",
"k  c #211B1B",
"l  c #221B1B",
"z  c #221C1C",
"x  c #241E1E",
"c  c #251F1F",
"v  c #262020",
"b  c #2A2323",
"n  c #2A2424",
"m  c #2B2525",
"M  c #2D2729",
"N  c #2F2828",
"B  c #302A2C",
"V  c #342E3C",
"C  c #36313F",
"Z  c #413B3B",
"A  c #484646",
"S  c #4A4747",
"D  c #45404C",
"F  c #4A4848",
"G  c #4E4C4C",
"H  c #4F4D4D",
"J  c #504E4E",
"K  c #4C4755",
"L  c #525050",
"P  c #525151",
"I  c #535252",
"U  c #565454",
"Y  c #585757",
"T  c #5F5E5E",
"R  c #615F5F",
"E  c #646464",
"W  c #676767",
"Q  c DimGray",
"!  c #717171",
"~  c #787575",
"^  c #797777",
"/  c #848383",
"(  c #868585",
")  c #878686",
"_  c #898888",
"`  c #8C8B8B",
"'  c #8F8E8E",
"]  c #908E8E",
"[  c #919090",
"{  c #929191",
"}  c #939191",
"|  c #949393",
" . c #989999",
".. c #9B9A9A",
"X. c #9B9B9B",
"o. c #9E9B9B",
"O. c #9F9F9F",
"+. c #AAA8AB",
"@. c #AEADAD",
"#. c #AFAEAE",
"$. c gray70",
"%. c #B6B5B5",
"&. c #B7B6B6",
"*. c #B7B7B7",
"=. c #B8B7B7",
"-. c #B9B8B8",
";. c #C6C6C6",
":. c gray78",
">. c #C8C8C8",
",. c gray79",
"<. c gray80",
"1. c #CDCDCD",
"2. c #CECECE",
"3. c None",
/* pixels */
"3.3.3.3.3.3.3.3.3.3.3.3.3.3.3.3.3.3.3.3.3.3.3.3.3.3.3.3.3.3.3.3.3.3.3.3.3.3.3.3.3.3.",
"3.3.3.3.3.3.3.3.3.3.3.3.3.3.3.3.3.3.3.3.3.3.3.3.3.3.3.3.3.3.3.3.3.3.3.3.3.3.3.3.3.3.",
"3.3.3.3.3.3.3.3.3.3.3.3.3.3.3.3.3.3.3.3.3.3.3.3.3.3.3.3.3.3.3.3.3.3.3.3.3.3.3.3.3.3.",
"3.3.3.3.3.3.3.3.3.3.3.3.3.3.3.3.3.3.3.3.3.3.3.3.3.3.3.3.3.3.3.3.3.3.3.3.3.3.3.3.3.3.",
"3.3.3.3.3.3.3.3.3.3.3.3.3.3.3.3.3.3.3.3.3.3.3.3.3.3.3.3.3.3.3.3.3.3.3.3.3.3.3.3.3.3.",
"3.3.3.3.3.3.3.3.3.3.3.3.3.3.3.3.3.3.3.3.3.3.3.3.3.3.3.3.3.3.3.3.3.3.3.3.3.3.3.3.3.3.",
"3.3.3.3.3.3.3.3.3.3.3.3.3.3.3.3.3.3.3.3.3.3.3.3.3.3.3.3.3.3.3.3.3.3.3.3.3.3.3.3.3.3.",
"3.3.3.3.3.3.3.3.3.3.3.3.3.3.3.3.3.3.3.3.3.3.3.3.3.3.3.3.3.3.3.3.3.3.3.3.3.3.3.3.3.3.",
"3.3.3.3.3.3.3.3.3.3.3.3.3.3.3.3.3.3.3.3.3.3.3.3.3.3.3.3.3.3.3.3.3.3.3.3.3.3.3.3.3.3.",
"3.3.3.3.3.3.3.3.3.3.3.3.3.3.3.3.3.3.3.3.3.3.3.3.3.3.3.3.3.3.3.3.3.3.3.3.3.3.3.3.3.3.",
"3.3.3.3.3.3.3.3.3.3.3.3.3.3.3.3.3.3.3.3.3.3.3.3.3.3.3.3.3.3.3.3.3.3.3.3.3.3.3.3.3.3.",
"3.3.3.3.3.3.3.3.3.3.3.3.3.3.3.3.3.3.X X . . X X 3.3.3.3.3.3.3.3.3.3.3.3.3.3.3.3.3.3.",
"3.3.3.3.3.3.3.3.3.3.3.3.3.3.3.3.X O 4 w a a w 4 O X 3.3.3.3.3.3.3.3.3.3.3.3.3.3.3.3.",
"3.3.3.3.3.3.3.3.3.3.3.3.3.3.3.O 3 b _ ..$.$..._ b 3 O 3.3.3.3.3.3.3.3.3.3.3.3.3.3.3.",
"3.3.3.3.3.3.3.3.3.3.3.3.3.3.o x ` %.:.,.1.1.,.:.%.` x o 3.3.3.3.3.3.3.3.3.3.3.3.3.3.",
"3.3.3.3.3.3.3.3.3.3.3.3.3.O c ] ;.2.<.<.<.<.<.<.2.;.] c O 3.3.3.3.3.3.3.3.3.3.3.3.3.",
"3.3.3.3.3.3.3.3.3.3.3.3.X 1 ~ #.-.:.<.<.<.<.<.<.:.*.#.^ 2 X 3.3.3.3.3.3.3.3.3.3.3.3.",
"3.3.3.3.3.3.3.3.3.3.3.3.o # N g n ' :.1.1.1.1.:.} Z g 0 + o 3.3.3.3.3.3.3.3.3.3.3.3.",
"3.3.3.3.3.3.3.3.3.3.3.o X s o.a . n -.>.=.=.>.&.Z o.a . o o o 3.3.3.3.3.3.3.3.3.3.3.",
"3.3.3.3.3.3.3.3.3.3.3.o o @ s @ . i @.[ B B [ @.f a @ o X o o 3.3.3.3.3.3.3.3.3.3.3.",
"3.3.3.3.3.3.3.3.3.3.3.o O % X . X l ) M C C M ) k   . o & O o 3.3.3.3.3.3.3.3.3.3.3.",
"3.3.3.3.3.3.3.3.3.3.3.X - F k 0 j R ` e $ $ e ` R j 0 k F - X 3.3.3.3.3.3.3.3.3.3.3.",
"3.3.3.3.3.3.3.3.3.3.3.X * U ) { | X./ 6 X X 6 / X.| { ) U * X 3.3.3.3.3.3.3.3.3.3.3.",
"3.3.3.3.3.3.3.3.3.3.3.O * y W  .O.| v O o o O v | O. .W y * O 3.3.3.3.3.3.3.3.3.3.3.",
"3.3.3.3.3.3.3.3.3.3.X - A z P Q ! ( 9 . . X . 9 ( ! Q P z A - X 3.3.3.3.3.3.3.3.3.3.",
"3.3.3.3.3.3.3.3.3.3.X - J S j L E T , = h : $ < T E L j S J - X 3.3.3.3.3.3.3.3.3.3.",
"3.3.3.3.3.3.3.3.3.3.3.O - - O q I Y 5 D +.K V 8 Y I q O - - O 3.3.3.3.3.3.3.3.3.3.3.",
"3.3.3.3.3.3.3.3.3.3.3.3.X X 3.o r S y u m d t p S r o 3.X X 3.3.3.3.3.3.3.3.3.3.3.3.",
"3.3.3.3.3.3.3.3.3.3.3.3.3.3.3.3.o 7 A H G H H A 7 o 3.3.3.3.3.3.3.3.3.3.3.3.3.3.3.3.",
"3.3.3.3.3.3.3.3.3.3.3.3.3.3.3.3.3.O - > ; ; > - O 3.3.3.3.3.3.3.3.3.3.3.3.3.3.3.3.3.",
"3.3.3.3.3.3.3.3.3.3.3.3.3.3.3.3.3.3.X X X X X X 3.3.3.3.3.3.3.3.3.3.3.3.3.3.3.3.3.3.",
"3.3.3.3.3.3.3.3.3.3.3.3.3.3.3.3.3.3.3.3.3.3.3.3.3.3.3.3.3.3.3.3.3.3.3.3.3.3.3.3.3.3.",
"3.3.3.3.3.3.3.3.3.3.3.3.3.3.3.3.3.3.3.3.3.3.3.3.3.3.3.3.3.3.3.3.3.3.3.3.3.3.3.3.3.3.",
"3.3.3.3.3.3.3.3.3.3.3.3.3.3.3.3.3.3.3.3.3.3.3.3.3.3.3.3.3.3.3.3.3.3.3.3.3.3.3.3.3.3.",
"3.3.3.3.3.3.3.3.3.3.3.3.3.3.3.3.3.3.3.3.3.3.3.3.3.3.3.3.3.3.3.3.3.3.3.3.3.3.3.3.3.3.",
"3.3.3.3.3.3.3.3.3.3.3.3.3.3.3.3.3.3.3.3.3.3.3.3.3.3.3.3.3.3.3.3.3.3.3.3.3.3.3.3.3.3.",
"3.3.3.3.3.3.3.3.3.3.3.3.3.3.3.3.3.3.3.3.3.3.3.3.3.3.3.3.3.3.3.3.3.3.3.3.3.3.3.3.3.3.",
"3.3.3.3.3.3.3.3.3.3.3.3.3.3.3.3.3.3.3.3.3.3.3.3.3.3.3.3.3.3.3.3.3.3.3.3.3.3.3.3.3.3.",
"3.3.3.3.3.3.3.3.3.3.3.3.3.3.3.3.3.3.3.3.3.3.3.3.3.3.3.3.3.3.3.3.3.3.3.3.3.3.3.3.3.3.",
"3.3.3.3.3.3.3.3.3.3.3.3.3.3.3.3.3.3.3.3.3.3.3.3.3.3.3.3.3.3.3.3.3.3.3.3.3.3.3.3.3.3.",
"3.3.3.3.3.3.3.3.3.3.3.3.3.3.3.3.3.3.3.3.3.3.3.3.3.3.3.3.3.3.3.3.3.3.3.3.3.3.3.3.3.3.",
"3.3.3.3.3.3.3.3.3.3.3.3.3.3.3.3.3.3.3.3.3.3.3.3.3.3.3.3.3.3.3.3.3.3.3.3.3.3.3.3.3.3."
};
