/* XPM */
static char *result[] = {
/* columns rows colors chars-per-pixel */
"42 42 245 2 ",
"   c #17191A",
".  c #181A1B",
"X  c #191A1B",
"o  c #1C1B1B",
"O  c #191B1C",
"+  c #1D1B1C",
"@  c #1D1B1D",
"#  c #1A1C1D",
"$  c #1B1C1D",
"%  c #1B1D1D",
"&  c #1B1D1E",
"*  c #1E1C1D",
"=  c #1C1D1E",
"-  c #1E1D1E",
";  c #1F1D1E",
":  c #1C1E1E",
">  c #1C1E1F",
",  c #1D1E1F",
"<  c #1D1F1F",
"1  c #2D1719",
"2  c #201E1E",
"3  c #201E1F",
"4  c #211E1F",
"5  c #201F1F",
"6  c #211F1F",
"7  c #221E1F",
"8  c #231E1F",
"9  c #321518",
"0  c #34171A",
"q  c #32181A",
"w  c #33191B",
"e  c #351A1C",
"r  c #371A1C",
"t  c #361B1D",
"y  c #3B1A1C",
"u  c #3B1B1D",
"i  c #3C1B1C",
"p  c #3C1B1D",
"a  c #381C1D",
"s  c #3A1C1D",
"d  c #381D1E",
"f  c #391D1E",
"g  c #3A1C1E",
"h  c #3E1D1E",
"j  c #3F1D1E",
"k  c #3C1E1F",
"l  c #1D1F20",
"z  c #1E1F20",
"x  c #211F20",
"c  c #231E20",
"v  c #221F20",
"b  c #231F20",
"n  c #241F20",
"m  c #1D2020",
"M  c #1E2020",
"N  c #1E2021",
"B  c #1F2021",
"V  c #1F2122",
"C  c #212020",
"Z  c #222020",
"A  c #232020",
"S  c #232120",
"D  c #232021",
"F  c #232121",
"G  c #202122",
"H  c #232122",
"J  c #202222",
"K  c #202223",
"L  c #242121",
"P  c #272121",
"I  c #242122",
"U  c #262122",
"Y  c #242222",
"T  c #242223",
"R  c #252323",
"E  c #272223",
"W  c #212324",
"Q  c #222324",
"!  c #222425",
"~  c #232425",
"^  c #232526",
"/  c #262425",
"(  c #242526",
")  c #242627",
"_  c #292222",
"`  c #282323",
"'  c #282526",
"]  c #2A2526",
"[  c #282626",
"{  c #2B2627",
"}  c #2C2727",
"|  c #252728",
" . c #262728",
".. c #282728",
"X. c #2D2728",
"o. c #2E292A",
"O. c #302E2E",
"+. c #2F3031",
"@. c #313232",
"#. c #313233",
"$. c #313333",
"%. c #323333",
"&. c #353030",
"*. c #323334",
"=. c #333434",
"-. c #333535",
";. c #343535",
":. c #343536",
">. c #353636",
",. c #353737",
"<. c #363737",
"1. c #373738",
"2. c #363838",
"3. c #373838",
"4. c #373839",
"5. c #373939",
"6. c #383939",
"7. c #38393A",
"8. c #383A3A",
"9. c #393A3A",
"0. c #393B3B",
"q. c #3A3B3B",
"w. c #3A3C3C",
"e. c #3B3C3C",
"r. c #3C3E3E",
"t. c #3D3E3E",
"y. c #3D3E3F",
"u. c #3E3F3F",
"i. c #411F1F",
"p. c #421F1F",
"a. c #411F20",
"s. c #422626",
"d. c #472727",
"f. c #452928",
"g. c #452A28",
"h. c #462A28",
"j. c #462A29",
"k. c #472A29",
"l. c #482928",
"z. c #492928",
"x. c #4A2928",
"c. c #492A28",
"v. c #492A29",
"b. c #4A2A29",
"n. c #4B2B29",
"m. c #4D2A29",
"M. c #4C2B29",
"N. c #4E2B29",
"B. c #492C2A",
"V. c #4B2E2B",
"C. c #4C2C2A",
"Z. c #4C2C2B",
"A. c #4F2C2A",
"S. c #4C2E2B",
"D. c #4C2E2C",
"F. c #4F2E2C",
"G. c #4E2F2C",
"H. c #4F2F2C",
"J. c #502C2A",
"K. c #512C2A",
"L. c #502C2B",
"P. c #502F2C",
"I. c #522E2C",
"U. c #532E2C",
"Y. c #532F2C",
"T. c #542F2D",
"R. c #4E302D",
"E. c #4F302D",
"W. c #52302D",
"Q. c #52312D",
"!. c #55302D",
"~. c #56312E",
"^. c #54322E",
"/. c #58332F",
"(. c #5F3731",
"). c #5E3732",
"_. c #5D3831",
"`. c #5E3932",
"'. c #633A33",
"]. c #613B34",
"[. c #643B34",
"{. c #633D35",
"}. c #643D35",
"|. c #663C35",
" X c #673D35",
".X c #643E35",
"XX c #663F36",
"oX c #683E36",
"OX c #693F36",
"+X c #6A3F36",
"@X c #6A3F37",
"#X c #6A4037",
"$X c #6B4038",
"%X c #6D4238",
"&X c #6D4239",
"*X c #6E4239",
"=X c #6E4339",
"-X c #70443A",
";X c #71443A",
":X c #71453A",
">X c #3E4040",
",X c #3F4040",
"<X c #404041",
"1X c #404141",
"2X c #414242",
"3X c gray26",
"4X c #424243",
"5X c #424343",
"6X c #434343",
"7X c #434444",
"8X c #444444",
"9X c #454646",
"0X c #464646",
"qX c #464647",
"wX c #464747",
"eX c #474849",
"rX c #484848",
"tX c #484849",
"yX c #484949",
"uX c #494A4A",
"iX c #4A4B4B",
"pX c #4B4B4B",
"aX c #4C4C4C",
"sX c #4C4C4D",
"dX c #4C4D4D",
"fX c #4D4E4E",
"gX c #4E4E4E",
"hX c #505151",
"jX c #515151",
"kX c #515251",
"lX c gray32",
"zX c #525353",
"xX c #5A5B5B",
"cX c #5B5B5C",
"vX c #5C5E5E",
"bX c #5F5F5F",
"nX c #5F6060",
"mX c #646565",
"MX c #656566",
"NX c #656666",
"BX c gray40",
"VX c #676868",
"CX c #686868",
"ZX c #6A6A6A",
"AX c None",
/* pixels */
"AXAXAXAXAXAXAXAXAXAXAXAXAXAXAXAXAXAXAXAXAXAXAXAXAXAXAXAXAXAXAXAXAXAXAXAXAXAXAXAXAXAX",
"AXAXAXAXAXAXAXAXAXAXAXAXAXAXAXAXAXAXAXAXAXAXAXAXAXAXAXAXAXAXAXAXAXAXAXAXAXAXAXAXAXAX",
"AXAXAXAXAXAXAXAXAXAXAXAXAXAXAXAXAXAXAXAXAXAXAXAXAXAXAXAXAXAXAXAXAXAXAXAXAXAXAXAXAXAX",
"AXAXAXAXAXAXAXAXAXAXAXAXAXAXAXAXAXAXAXAXAXAXAXAXAXAXAXAXAXAXAXAXAXAXAXAXAXAXAXAXAXAX",
"AXAXAXAXAXAXAXAXAXAXAXAXAXAXAXAXAXAXAXAXAXAXAXAXAXAXAXAXAXAXAXAXAXAXAXAXAXAXAXAXAXAX",
"AXAXAXAXAXAXAXAXAXAXAXAXAXAXAXAXAXAXAXAXAXAXAXAXAXAXAXAXAXAXAXAXAXAXAXAXAXAXAXAXAXAX",
"AXAXAXAXAXN N AXB ~ G ! O N ~ V ( ( V N > N N N = % . l , ^ ~ X AXN N AXAXAXAXAXAXAX",
"AXAXAXAXz 7X7X~ uXBXjXnX .wXBXzXVXVXaX0X9.0XyX0X6.%.G <Xu.CXmXK > 8X7Xz AXAXAXAXAXAX",
"AXAXAXAX& >.:.K uXkX5XpXW 2.fXiX,Xr.9.6.<.6.6.6.<.%.N 5.t.lXgXl # >.>.& AXAXAXAXAXAX",
"AXAXAXAXAX& l K >.4.,.;.6 3 x F 6 4 4 ; A x 6 4 ; 2 - %.,.4.;.& & V & AXAXAXAXAXAXAX",
"AXAXAXAXAX% <.3XJ 3 x _ V.C.r v.H.H.v.s `.Q.H.b.g d.w 8 x 6 3 & >.5Xl AXAXAXAXAXAXAX",
"AXAXAXAXAXN wXq.5 j.W..X&X Xh U.$X$XU.j +X*XoX/.T.L.y b.H.P.B.6 7.yXN AXAXAXAXAXAXAX",
"AXAXAXAXAXV sXw.x H.$X-X:X+Xj I.&X&XI.h +X=X).$X$XI.y U.$X*X}.L 5.0XN AXAXAXAXAXAXAX",
"AXAXAXAXAX^ ZXfXF H.&X-X-X+Xj I.&X&XI.h OX-X&X-X&XU.y U.&X:XXXL ,.9.> AXAXAXAXAXAXAX",
"AXAXAXAXAX^ ZXfXF F.&X-X-X Xh I.&X&XI.h OX-X-X-X&XU.y U.&X;XXXL 5.0XN AXAXAXAXAXAXAX",
"AXAXAXAXAXG hXy.x H.&X-X&X!.p !.*X*X!.j OX-X-X-X&XU.y U.&X;XXXL 6.tXN AXAXAXAXAXAXAX",
"AXAXAXAXAX~ MXiXD H.&X-X&XI.h  X-X-X Xi. X-X-X-X&XU.y U.&X;XXXL 6.tXN AXAXAXAXAXAXAX",
"AXAXAXAXAXV dXe.x H.&X-X&XI.j +X-X-XOXj !.&X-X-X&XU.u !.&X;XXXL 5.0XN AXAXAXAXAXAXAX",
"AXAXAXAXAXN 0X5.6 H.&X-X&XI.h OX-X-XOXh I.&X-X-X&XI.h  X-X;XXXL ,.3.& AXAXAXAXAXAXAX",
"AXAXAXAXAX& 3.,.6 H.&X-X&XI.h OX-X-XOXh I.&X-X-X&XI.j +X-X;XXXL ,.3.& AXAXAXAXAXAXAX",
"AXAXAXAXAX& 3.,.6 H.&X-X&XU.h OX-X-XOXh U.&X-X-X&XI.h OX-X;XXXL 5.0XN AXAXAXAXAXAXAX",
"AXAXAXAXAXN 0X6.6 H.&X-X%XJ.i.+X-X-X@Xa.K.&X-X-X&XI.h OX-X;XXXL 6.tXN AXAXAXAXAXAXAX",
"AXAXAXAXAXN tX6.6 H.&X;X+Xi.J.%X-X-X#Xx.k  X-X-X&XI.h OX-X;XXXL 6.rXN AXAXAXAXAXAXAX",
"AXAXAXAXAXN rX6.6 H.&X:XOXh U.&X-X$XE.X.] R.$X-X&X!.j OX-X;XXXL 6.rXN AXAXAXAXAXAXAX",
"AXAXAXAXAXN tX6.6 H.&X:XOXh U.&X$XS.{ NXNX{ S.$X-X Xp.OX-X;XXXL 6.rXN AXAXAXAXAXAXAX",
"AXAXAXAXAXN wXq.x H.&X:X+Xj I.oXR.] V gXgXN U G.$XOXp. X-X;XXXL 6.tXN AXAXAXAXAXAXAX",
"AXAXAXAXAX& q.wXI F.&X-X Xh A.D.&.xX) -.;.K u.X.R.[.j !.&X-X{.L 5.0XN AXAXAXAXAXAXAX",
"AXAXAXAXAX& q.wXI F.&X*X!.p z.} nX,X- + @ * 1.2X` M.p I.&X=X^.v <.9.> AXAXAXAXAXAXAX",
"AXAXAXAXAXz 8X2.6 H.&X&XI.p n.R eX..1 0 9 1 / >.C l.p U.&X-X].S 5.0XN AXAXAXAXAXAXAX",
"AXAXAXAXAX: ;.l + P.&X&XI.j _.P <.6Xo.s.q E 3X;.8 z.p U.&X*XQ.6 6.yXN AXAXAXAXAXAXAX",
"AXAXAXAXAX: ;.m + P.&X&XI.j '.f 7 e.bXO.T 4X3.b d m.p U.&X&XH.6 6.0XN AXAXAXAXAXAXAX",
"AXAXAXAXAXN 0X>.3 H.*X&XU.h [.Y.e b >XvX8.;.c a (.I.y U.&X*XH.6 ,.3.& AXAXAXAXAXAXAX",
"AXAXAXAXAXN 0X>.4 H.$X$XU.p !.|.K.t n [ D 8 t N.~.L.i U.$X$XH.x ,.,.& AXAXAXAXAXAXAX",
"AXAXAXAXAX& @.l o j.F.F.v.r v.F.Z.v.h.f.g.h.c.C.Z.c.r v.H.H.k.3 %.%.# AXAXAXAXAXAXAX",
"AXAXAXAXAX& V O Q R ' T H ; 6 x Z I Z Z Y Y Y Y I x x x x x 5 = & N z AXAXAXAXAXAXAX",
"AXAXAXAX& >.1X| cXhXNXdX9X;.$.$.-.1X-.-.9XyXtXyXqX0.7X;.#.*.3.+.< ;.2XM AXAXAXAXAXAX",
"AXAXAXAX& =.>.> ( 9.pXe.>.N % & & l & N >.6.6.6.6.<.>.N # K u.G % =.>.& AXAXAXAXAXAX",
"AXAXAXAXAX& & AX  & l & #               # & & & & & $     . , . AX& & AXAXAXAXAXAXAX",
"AXAXAXAXAXAXAXAXAXAXAXAXAXAXAXAXAXAXAXAXAXAXAXAXAXAXAXAXAXAXAXAXAXAXAXAXAXAXAXAXAXAX",
"AXAXAXAXAXAXAXAXAXAXAXAXAXAXAXAXAXAXAXAXAXAXAXAXAXAXAXAXAXAXAXAXAXAXAXAXAXAXAXAXAXAX",
"AXAXAXAXAXAXAXAXAXAXAXAXAXAXAXAXAXAXAXAXAXAXAXAXAXAXAXAXAXAXAXAXAXAXAXAXAXAXAXAXAXAX",
"AXAXAXAXAXAXAXAXAXAXAXAXAXAXAXAXAXAXAXAXAXAXAXAXAXAXAXAXAXAXAXAXAXAXAXAXAXAXAXAXAXAX"
};
