/* XPM */
static char *result[] = {
/* columns rows colors chars-per-pixel */
"42 42 232 2 ",
"   c #060607",
".  c #070708",
"X  c #070809",
"o  c gray3",
"O  c #090808",
"+  c #080809",
"@  c #090809",
"#  c #0A0809",
"$  c #0A0909",
"%  c #09090A",
"&  c #0B0A0A",
"*  c #0D0A0A",
"=  c #0D0B0A",
"-  c #0D0A0B",
";  c #0C0B0B",
":  c #0D0B0B",
">  c #0E0B0B",
",  c #0E0C0B",
"<  c #0F0C0B",
"1  c #0F0C0C",
"2  c #100B0C",
"3  c #100C0C",
"4  c #110D0C",
"5  c #110E0E",
"6  c #120F0E",
"7  c #190D12",
"8  c #1B0D12",
"9  c #1E0E14",
"0  c #1B1412",
"q  c #1F1713",
"w  c #1D1115",
"e  c #1F1216",
"r  c #1F1714",
"t  c #151718",
"y  c #17191A",
"u  c #19191B",
"i  c #181A1B",
"p  c #191A1B",
"a  c #191B1B",
"s  c #191B1C",
"d  c #1B1B1C",
"f  c #1A1C1D",
"g  c #1B1C1D",
"h  c #1B1D1D",
"j  c #1B1D1E",
"k  c #1C1C1D",
"l  c #1D1C1D",
"z  c #1E1C1D",
"x  c #1C1D1E",
"c  c #1C1E1E",
"v  c #1C1E1F",
"b  c #1D1E1F",
"n  c #1D1F1F",
"m  c #1E1E1E",
"M  c #2D1417",
"N  c #241B17",
"B  c #2F1418",
"V  c #2F1518",
"C  c #271C18",
"Z  c #271D18",
"A  c #201D1D",
"S  c #211E1D",
"D  c #211F1E",
"F  c #201E1F",
"G  c #291E19",
"H  c #291F19",
"J  c #2A1E19",
"K  c #2A1F19",
"L  c #2B1F19",
"P  c #2B1F1A",
"I  c #2C1F19",
"U  c #2C1F1A",
"Y  c #22201E",
"T  c #22201F",
"R  c #2B201A",
"E  c #2C211B",
"W  c #2F221C",
"Q  c #30231C",
"!  c #31231C",
"~  c #31241C",
"^  c #31241D",
"/  c #32241D",
"(  c #31241E",
")  c #32241E",
"_  c #32251E",
"`  c #34261E",
"'  c #35261E",
"]  c #34261F",
"[  c #35261F",
"{  c #36261F",
"}  c #36271F",
"|  c #1D1F20",
" . c #1E1F20",
".. c #1E2020",
"X. c #1E2021",
"o. c #1F2021",
"O. c #1F2122",
"+. c #202020",
"@. c gray13",
"#. c #222221",
"$. c #202122",
"%. c #202223",
"&. c #212323",
"*. c #222222",
"=. c #232222",
"-. c #232323",
";. c #212324",
":. c #222425",
">. c #232425",
",. c #232526",
"<. c #242425",
"1. c #242526",
"2. c #252728",
"3. c #262728",
"4. c #272728",
"5. c #282829",
"6. c gray16",
"7. c #292A2A",
"8. c #2A2A2A",
"9. c #2A2B2B",
"0. c #362720",
"q. c #372820",
"w. c #372821",
"e. c #342924",
"r. c #382820",
"t. c #382821",
"y. c #392921",
"u. c #392922",
"i. c #392A22",
"p. c #3A2A22",
"a. c #3B2B22",
"s. c #3B2B23",
"d. c #3C2A23",
"f. c #3C2B23",
"g. c #382C26",
"h. c #3A2D27",
"j. c #3C2C24",
"k. c #3C2C25",
"l. c #3F3029",
"z. c #3F302A",
"x. c #2F3131",
"c. c #313232",
"v. c #313333",
"b. c #323333",
"n. c #323334",
"m. c #333434",
"M. c #343535",
"N. c #343536",
"B. c #353636",
"V. c #353737",
"C. c #363737",
"Z. c #373838",
"A. c #383839",
"S. c #383939",
"D. c #38393A",
"F. c #393A3A",
"G. c #3A3B3B",
"H. c #3B3C3C",
"J. c #3D3E3E",
"K. c #3E3F3F",
"L. c #402E25",
"P. c #433026",
"I. c #453028",
"U. c #493229",
"Y. c #49352A",
"T. c #513A2C",
"R. c #553D2F",
"E. c #5D4332",
"W. c #5D4738",
"Q. c #604235",
"!. c #614634",
"~. c #614734",
"^. c #624735",
"/. c #624436",
"(. c #61493A",
"). c #614A3A",
"_. c #634C3B",
"`. c #6A483B",
"'. c #6D4F3A",
"]. c #6C4B3C",
"[. c #6E4C3D",
"{. c #6E503A",
"}. c #3F4040",
"|. c #404041",
" X c #404141",
".X c #414141",
"XX c #414242",
"oX c #424243",
"OX c #424343",
"+X c #434444",
"@X c #444444",
"#X c #444545",
"$X c #464646",
"%X c #464647",
"&X c #464747",
"*X c gray28",
"=X c #474748",
"-X c #484848",
";X c #484849",
":X c #484949",
">X c #494949",
",X c #494A4A",
"<X c #4A4A4B",
"1X c #4A4B4B",
"2X c #4B4B4B",
"3X c #4B4B4C",
"4X c #4C4C4C",
"5X c #4C4D4D",
"6X c gray30",
"7X c #4D4E4E",
"8X c #4E4E4E",
"9X c #505151",
"0X c #515151",
"qX c #525353",
"wX c #5B5B5C",
"eX c #6F5441",
"rX c #7D5A42",
"tX c #5F6060",
"yX c #656565",
"uX c #656566",
"iX c gray40",
"pX c #676868",
"aX c #686868",
"sX c DimGray",
"dX c #706863",
"fX c #7B7068",
"gX c #825E44",
"hX c #8B6349",
"jX c #8E674A",
"kX c #89674E",
"lX c #8F684B",
"zX c None",
/* pixels */
"zXzXzXzXzXzXzXzXzXzXzXzXzXzXzXzXzXzXzXzXzXzXzXzXzXzXzXzXzXzXzXzXzXzXzXzXzXzXzXzXzXzX",
"zXzXzXzXzXzXzXzXzXzXzXzXzXzXzXzXzXzXzXzXzXzXzXzXzXzXzXzXzXzXzXzXzXzXzXzXzXzXzXzXzXzX",
"zXzXzXzXzXzXzXzXzXzXzXzXzXzXzXzXzXzXzXzXzXzXzXzXzXzXzXzXzXzXzXzXzXzXzXzXzXzXzXzXzXzX",
"zXzXzXzXzXzXzXzXzXzXzXzXzXzXzXzXzXzXzXzXzXzXzXzXzXzXzXzXzXzXzXzXzXzXzXzXzXzXzXzXzXzX",
"zXzXzXzXzXzXzXzXzXzXzXzXzXzXzXzXzXzXzXzXzXzXzXzXzXzXzXzXzXzXzXzXzXzXzXzXzXzXzXzXzXzX",
"zXzXzXzXzXzXzXzXzXzXzXzXzXzXzXzXzXzXzXzXzXzXzXzXzXzXzXzXzXzXzXzXzXzXzXzXzXzXzXzXzXzX",
"zXzXzXzXzXX.X.zXo.>.$.:.s X.>.O.1.1.O.X.v X.X.X.x h i | b ,.>.p zXX.X.zXzXzXzXzXzXzX",
"zXzXzXzX .+X+X>.,XiX0XtX3.&XiXqXpXpX4X$XF.$X:X$XS.b.$.|.K.aXyX%.v @X+X .zXzXzXzXzXzX",
"zXzXzXzXj B.N.%.-X7XK.>X;.Z.7X1X}.J.F.S.C.S.S.S.C.b.X.Z.H.8X1Xo.f B.B.j zXzXzXzXzXzX",
"zXzXzXzXzXj | c 6.*.+.5.d l F F z z z z z z z z z l k c.8.#.@.<.j O.j zXzXzXzXzXzXzX",
"zXzXzXzXzXj b.4.Y k.k.A w M B B V V V V V V V V V M e u D k.k.T 7..X| zXzXzXzXzXzXzX",
"zXzXzXzXzXX.OX=.k.`.].s.2 8 9 9 9 9 9 9 9 9 9 9 9 9 7 1 s.].`.k.-.#Xo.zXzXzXzXzXzXzX",
"zXzXzXzXzXO.;X-.j.[.hXP.4 - > > > > > > > > > > > > - 4 P.hX[.k.*.oXX.zXzXzXzXzXzXzX",
"zXzXzXzXzX1.iXm.S Y.gXT.P.P.P.P.P.P.P.P.P.P.P.P.P.P.P.P.T.gXY.D 9.A.v zXzXzXzXzXzXzX",
"zXzXzXzXzX,.sX<X+.f.R.kXlXjXjXjXjXjXjXjXjXjXjXjXjXjXjXlXkXR.f.m Z.$XX.zXzXzXzXzXzXzX",
"zXzXzXzXzX$.9XK.m i.).fXeX'.{.{.{.{.{.{.{.{.{.{.{.{.'.eXfX).i.m S.;XX.zXzXzXzXzXzXzX",
"zXzXzXzXzX>.uX3Xg 5 _ z.L.} ! Q Q Q Q Q Q Q Q Q Q ! ' f.l.] 6 a D.;XX.zXzXzXzXzXzXzX",
"zXzXzXzXzXO.5XH.p & P /.rX` = @ # # # # # # # # @ : Q ^.Q.{ ; i S.$XX.zXzXzXzXzXzXzX",
"zXzXzXzXzXX.$XS.p + > r.!.! * @ # # # # # # # # @ = Q E.q.3 + p C.Z.j zXzXzXzXzXzXzX",
"zXzXzXzXzXj Z.C.a X $ L r.0.e.( ~ ^ ^ ^ ^ ^ ^ ^ ~ _ g.a.L # X a C.Z.j zXzXzXzXzXzXzX",
"zXzXzXzXzXj Z.C.a X # G U.(.dX_.~.~.~.~.~.~.~.~.!._.dXW.I @ X p S.$XX.zXzXzXzXzXzXzX",
"zXzXzXzXzXX.$XS.p +   , W u.h.0./ ^ ^ ^ ^ ^ ^ / [ w.h.) <   + p D.;XX.zXzXzXzXzXzXzX",
"zXzXzXzXzXX.;XD.p +   @ G I.d.P : @ # # # # @ : P p.t.C @   + p D.-XX.zXzXzXzXzXzXzX",
"zXzXzXzXzXX.-XD.p +     > U u.R > $ $ $ $ $ $ > R y.J :     + p D.-XX.zXzXzXzXzXzXzX",
"zXzXzXzXzXX.;XS.p +       > K E Z N N N N N N Z E K >       + p D.-XX.zXzXzXzXzXzXzX",
"zXzXzXzXzXX.&XG.s +       O q H r = $ $ $ $ = r H q O       + p D.;XX.zXzXzXzXzXzXzX",
"zXzXzXzXzXj G.*Xj X         & 0 &             & 0 &         + p S.$XX.zXzXzXzXzXzXzX",
"zXzXzXzXzXj G.=Xj X           o                 o           + p C.F.v zXzXzXzXzXzXzX",
"zXzXzXzXzX .@XZ.p +                                         + p S.$XX.zXzXzXzXzXzXzX",
"zXzXzXzXzXc M.X.t +                                         + p F.:XX.zXzXzXzXzXzXzX",
"zXzXzXzXzXc M.X.t +                                         + p S.$XX.zXzXzXzXzXzXzX",
"zXzXzXzXzXX.$XV.i +                                         + a C.Z.j zXzXzXzXzXzXzX",
"zXzXzXzXzXX.$XC.i +                                         X a C.V.j zXzXzXzXzXzXzX",
"zXzXzXzXzXj c...t % . X X + + + + X + + X X X X X + X + + X % i n.b.f zXzXzXzXzXzXzX",
"zXzXzXzXzXj O.s &.| $.v j s s s s j s s j x x x j s j s s s s h j X. .zXzXzXzXzXzXzX",
"zXzXzXzXj B. X2.wX0XiX6X$XN.b.b.M. XM.M.%X>X:X>X&XG.@XN.v.m.Z.x.n M.XX..zXzXzXzXzXzX",
"zXzXzXzXj m.B.v 1.F.2XH.B.X.h j j | j X.B.S.S.S.S.C.B.X.f %.K.$.h m.B.j zXzXzXzXzXzX",
"zXzXzXzXzXj j zXy j | j f y y y y y y y f j j j j j g y y i b i zXj j zXzXzXzXzXzXzX",
"zXzXzXzXzXzXzXzXzXzXzXzXzXzXzXzXzXzXzXzXzXzXzXzXzXzXzXzXzXzXzXzXzXzXzXzXzXzXzXzXzXzX",
"zXzXzXzXzXzXzXzXzXzXzXzXzXzXzXzXzXzXzXzXzXzXzXzXzXzXzXzXzXzXzXzXzXzXzXzXzXzXzXzXzXzX",
"zXzXzXzXzXzXzXzXzXzXzXzXzXzXzXzXzXzXzXzXzXzXzXzXzXzXzXzXzXzXzXzXzXzXzXzXzXzXzXzXzXzX",
"zXzXzXzXzXzXzXzXzXzXzXzXzXzXzXzXzXzXzXzXzXzXzXzXzXzXzXzXzXzXzXzXzXzXzXzXzXzXzXzXzXzX"
};
