/* XPM */
static char *result[] = {
/* columns rows colors chars-per-pixel */
"42 42 143 2 ",
"   c #060000",
".  c #070000",
"X  c #080000",
"o  c #090101",
"O  c #090102",
"+  c #090202",
"@  c #0A0202",
"#  c #0B0303",
"$  c #0F0707",
"%  c #0F0808",
"&  c #100808",
"*  c #100909",
"=  c #110A0A",
"-  c #120A0A",
";  c #120B0B",
":  c #130B0B",
">  c #130C0C",
",  c #110F0F",
"<  c #120F0F",
"1  c #140C0C",
"2  c #140D0D",
"3  c #150D0D",
"4  c #160F0F",
"5  c #170F0F",
"6  c #161010",
"7  c #171010",
"8  c #171516",
"9  c #181010",
"0  c #181111",
"q  c #191212",
"w  c #1A1313",
"e  c #181515",
"r  c #1A1414",
"t  c #1B1414",
"y  c #1B1515",
"u  c #181516",
"i  c #181616",
"p  c #1D1616",
"a  c #1D1717",
"s  c #1E1717",
"d  c #1E1818",
"f  c #221B1B",
"g  c #221C1C",
"h  c #241D1D",
"j  c #241E1E",
"k  c #251E1E",
"l  c #251F1F",
"z  c #261F1F",
"x  c #211F20",
"c  c #272121",
"v  c #2C2626",
"b  c #2F2929",
"n  c #322C2C",
"m  c #474444",
"M  c #4B4A4A",
"N  c #4C4B4B",
"B  c #4D4C4C",
"V  c #4F4E4E",
"C  c #504E4E",
"Z  c #4F5353",
"A  c #515050",
"S  c #505353",
"D  c #535252",
"F  c #545353",
"G  c #575656",
"H  c #5F5E5E",
"J  c #605F5F",
"K  c #615F5F",
"L  c #656363",
"P  c #666565",
"I  c #676565",
"U  c #676666",
"Y  c #686767",
"T  c #6B6969",
"R  c #6B6A6A",
"E  c #6C6B6B",
"W  c #6D6B6B",
"Q  c #6C6C6C",
"!  c #6D6C6C",
"~  c #706F6F",
"^  c #726F6F",
"/  c #6D7071",
"(  c #717070",
")  c #717171",
"_  c #727171",
"`  c #737272",
"'  c gray45",
"]  c #757474",
"[  c gray46",
"{  c #767575",
"}  c #767676",
"|  c #777676",
" . c #7A7979",
".. c gray48",
"X. c #7B7A7A",
"o. c #7C7C7C",
"O. c gray49",
"+. c #7E7E7E",
"@. c gray50",
"#. c #5E8286",
"$. c #808080",
"%. c #828080",
"&. c gray51",
"*. c #848282",
"=. c #848383",
"-. c #868686",
";. c #878686",
":. c #898787",
">. c #898888",
",. c #8A8888",
"<. c #8F8E8E",
"1. c #909090",
"2. c #929292",
"3. c #949393",
"4. c #909494",
"5. c #969595",
"6. c gray59",
"7. c #969A9A",
"8. c #9A9A9A",
"9. c gray61",
"0. c #9D9D9D",
"q. c gray62",
"w. c #9F9F9F",
"e. c #8AADB1",
"r. c #88AFB3",
"t. c #8DAFB3",
"y. c #88AFB4",
"u. c #8EB0B3",
"i. c #8CB3B7",
"p. c #91BABE",
"a. c #A0A0A0",
"s. c gray63",
"d. c #A2A1A1",
"f. c #A2A2A2",
"g. c gray64",
"h. c gray65",
"j. c #A7A7A7",
"k. c gray66",
"l. c #A8ADAD",
"z. c #9FC7CC",
"x. c #9ECBD1",
"c. c #A0C7CC",
"v. c None",
/* pixels */
"v.v.v.v.v.v.v.v.v.v.v.v.v.v.v.v.v.v.v.v.v.v.v.v.v.v.v.v.v.v.v.v.v.v.v.v.v.v.v.v.v.v.",
"v.v.v.v.v.v.v.v.v.v.v.v.v.v.v.v.v.v.v.v.v.v.v.v.v.v.v.v.v.v.v.v.v.v.v.v.v.v.v.v.v.v.",
"v.v.v.v.v.v.v.v.v.v.v.v.v.v.v.v.v.v.v.v.v.v.v.v.v.v.v.v.v.v.v.v.v.v.v.v.v.v.v.v.v.v.",
"v.v.v.v.v.v.v.v.v.v.v.v.v.v.v.v.v.v.v.v.v.v.v.v.v.v.v.v.v.v.v.v.v.v.v.v.v.v.v.v.v.v.",
"v.v.v.v.v.v.v.v.v.v.v.v.v.v.v.v.v.. . . . . . . . v.v.v.v.v.v.v.v.v.v.v.v.v.v.v.v.v.",
"v.v.v.v.v.v.v.v.v.v.v.v.v.v.v.. X ; 2 2 2 2 2 2 ; X . v.v.v.v.v.v.v.v.v.v.v.v.v.v.v.",
"v.v.v.v.v.v.v.v.v.v.v.v.v.. X ; g U _ ( ( ( ( _ U g ; X . v.v.v.v.v.v.v.v.v.v.v.v.v.",
"v.v.v.v.v.v.v.v.v.v.v.v.o ; f R 3.f.g.g.g.g.g.g.f.3.R f ; o v.v.v.v.v.v.v.v.v.v.v.v.",
"v.v.v.v.v.v.v.v.v.v.v.X p T 3.f.k.j.j.j.j.j.j.j.j.k.f.3.T p X v.v.v.v.v.v.v.v.v.v.v.",
"v.v.v.v.v.v.v.v.v.v.X q I 8.j.j.j.j.j.j.j.j.j.j.j.j.j.j.8.I q X v.v.v.v.v.v.v.v.v.v.",
"v.v.v.v.v.v.v.v.v.. $ N ..-.g.j.j.j.j.j.j.j.j.j.j.j.j.g.-...N $ . v.v.v.v.v.v.v.v.v.",
"v.v.v.v.v.v.v.v.v.o a ` q.f.h.j.j.j.j.j.j.j.j.j.j.j.j.h.f.q.` a o v.v.v.v.v.v.v.v.v.",
"v.v.v.v.v.v.v.v.. ; T q.j.k.j.j.j.j.j.j.j.j.j.j.j.j.j.j.k.j.q.T ; . v.v.v.v.v.v.v.v.",
"v.v.v.v.v.v.v.v.X g 3.k.g.g.g.g.j.j.j.j.j.j.j.j.j.j.g.g.g.g.k.3.g X v.v.v.v.v.v.v.v.",
"v.v.v.v.v.v.v.. ; U s.q.} ( ( { 8.g.j.j.j.j.j.j.g.8.{ ( ( } q.s.U ; . v.v.v.v.v.v.v.",
"v.v.v.v.v.v.v.. 2 _ q.! s > > t A ..q.f.f.f.f.q...A t > > s ! q._ 2 . v.v.v.v.v.v.v.",
"v.v.v.v.v.v.v.. 2 _ <.g X . . X 6 F ..O.O.O.O...F 6 X . . X g <._ 2 . v.v.v.v.v.v.v.",
"v.v.v.v.v.v.v.. 2 R ~ 2 . X X . & V [ o.O.O.o.[ V & . X X . 2 ~ R 2 . v.v.v.v.v.v.v.",
"v.v.v.v.v.v.v.. & B Y 2 . X X . * D +.q.f.f.q.+.D * . X X . 2 Y B & . v.v.v.v.v.v.v.",
"v.v.v.v.v.v.v.v.X t H d X . . X a ` w.k.k.k.k.w.` a X . . X d H t X v.v.v.v.v.v.v.v.",
"v.v.v.v.v.v.v.v.. % M J x 8 e g W q.h.w.s.s.w.h.q.W g e 8 x J M % . v.v.v.v.v.v.v.v.",
"v.v.v.v.v.v.v.v.v.X w / e.i.t.7.d.g.8.Q +.+.Q 8.g.d.7.t.i.e./ w X v.v.v.v.v.v.v.v.v.",
"v.v.v.v.v.v.v.v.v.. $ S p.x.c.l.a.-.$...0.0...$.-.a.l.z.x.p.Z $ . v.v.v.v.v.v.v.v.v.",
"v.v.v.v.v.v.v.v.v.v.X i #.r.u.4. .0.0.&.g.g.&.0.0. .4.u.y.#.i X v.v.v.v.v.v.v.v.v.v.",
"v.v.v.v.v.v.v.v.v.v.v.+ < 8 u 0 h 1.q.@.q.q.@.q.1.h 0 u 8 , O v.v.v.v.v.v.v.v.v.v.v.",
"v.v.v.v.v.v.v.v.v.v.v.v.. . .   % C R G ! ! G R C %   . . . v.v.v.v.v.v.v.v.v.v.v.v.",
"v.v.v.v.v.v.v.v.v.v.v.v.v.v.v.X $ % ; * > > * ; % $ X v.v.v.v.v.v.v.v.v.v.v.v.v.v.v.",
"v.v.v.v.v.v.v.v.v.v.v.v.v.v.X r m y 2 7 o o 7 2 y m r X v.v.v.v.v.v.v.v.v.v.v.v.v.v.",
"v.v.v.v.v.v.v.v.v.v.v.v.v.o p E 6.~ L ^ 3 3 ^ L ~ 6.E p o v.v.v.v.v.v.v.v.v.v.v.v.v.",
"v.v.v.v.v.v.v.v.v.v.v.v.. ; I 9.5.` v z # # z v ` 5.9.I ; . v.v.v.v.v.v.v.v.v.v.v.v.",
"v.v.v.v.v.v.v.v.v.v.v.v.. 2 ' 3.n K ] *.c c *.] K n 3.' 2 . v.v.v.v.v.v.v.v.v.v.v.v.",
"v.v.v.v.v.v.v.v.v.v.v.v.. : P %.q b 5.a.;.;.s.5.b q %.P : . v.v.v.v.v.v.v.v.v.v.v.v.",
"v.v.v.v.v.v.v.v.v.v.v.v.v.@ 1 4 q :.g.X.k j | g.:.q 4 1 @ v.v.v.v.v.v.v.v.v.v.v.v.v.",
"v.v.v.v.v.v.v.v.v.v.v.v.v.v..   7 >.k.2.7 - ) g.,.7   . v.v.v.v.v.v.v.v.v.v.v.v.v.v.",
"v.v.v.v.v.v.v.v.v.v.v.v.v.v.v.X o k >.;.5 = P =.l o X v.v.v.v.v.v.v.v.v.v.v.v.v.v.v.",
"v.v.v.v.v.v.v.v.v.v.v.v.v.v.v.v.X o 7 9 @ o 1 5 o X v.v.v.v.v.v.v.v.v.v.v.v.v.v.v.v.",
"v.v.v.v.v.v.v.v.v.v.v.v.v.v.v.v.v.X . . v.v.. . X v.v.v.v.v.v.v.v.v.v.v.v.v.v.v.v.v.",
"v.v.v.v.v.v.v.v.v.v.v.v.v.v.v.v.v.v.v.v.v.v.v.v.v.v.v.v.v.v.v.v.v.v.v.v.v.v.v.v.v.v.",
"v.v.v.v.v.v.v.v.v.v.v.v.v.v.v.v.v.v.v.v.v.v.v.v.v.v.v.v.v.v.v.v.v.v.v.v.v.v.v.v.v.v.",
"v.v.v.v.v.v.v.v.v.v.v.v.v.v.v.v.v.v.v.v.v.v.v.v.v.v.v.v.v.v.v.v.v.v.v.v.v.v.v.v.v.v.",
"v.v.v.v.v.v.v.v.v.v.v.v.v.v.v.v.v.v.v.v.v.v.v.v.v.v.v.v.v.v.v.v.v.v.v.v.v.v.v.v.v.v.",
"v.v.v.v.v.v.v.v.v.v.v.v.v.v.v.v.v.v.v.v.v.v.v.v.v.v.v.v.v.v.v.v.v.v.v.v.v.v.v.v.v.v."
};
