/* XPM */
static char *result[] = {
/* columns rows colors chars-per-pixel */
"42 42 147 2 ",
"   c #060000",
".  c #070000",
"X  c #080000",
"o  c #090101",
"O  c #090102",
"+  c #090202",
"@  c #0A0202",
"#  c #0B0303",
"$  c #0F0707",
"%  c #0F0808",
"&  c #100808",
"*  c #100909",
"=  c #110A0A",
"-  c #120A0A",
";  c #120B0B",
":  c #130B0B",
">  c #130C0C",
",  c #110F0F",
"<  c #120F0F",
"1  c #140C0C",
"2  c #140D0D",
"3  c #150D0D",
"4  c #160F0F",
"5  c #170F0F",
"6  c #161010",
"7  c #171010",
"8  c #171516",
"9  c #181010",
"0  c #181111",
"q  c #191212",
"w  c #1A1313",
"e  c #181515",
"r  c #1A1414",
"t  c #1B1414",
"y  c #1B1515",
"u  c #181516",
"i  c #181616",
"p  c #1D1616",
"a  c #1D1717",
"s  c #1E1717",
"d  c #1E1818",
"f  c #221B1B",
"g  c #221C1C",
"h  c #231C1C",
"j  c #241D1D",
"k  c #241E1E",
"l  c #251E1E",
"z  c #251F1F",
"x  c #261F1F",
"c  c #211F20",
"v  c #272121",
"b  c #2C2626",
"n  c #2F2929",
"m  c #322C2C",
"M  c #474444",
"N  c #4B4A4A",
"B  c #4C4B4B",
"V  c #4E4C4C",
"C  c #4F4E4E",
"Z  c #504E4E",
"A  c #4F5353",
"S  c #515050",
"D  c #505353",
"F  c #535252",
"G  c #545353",
"H  c #575656",
"J  c #5F5E5E",
"K  c #605F5F",
"L  c #615F5F",
"P  c #656363",
"I  c #666565",
"U  c #676565",
"Y  c #676666",
"T  c #686666",
"R  c #6B6969",
"E  c #6B6A6A",
"W  c #6C6B6B",
"Q  c #6D6B6B",
"!  c #6C6C6C",
"~  c #6D6C6C",
"^  c #6F6E6E",
"/  c #706F6F",
"(  c #726F6F",
")  c #6D7071",
"_  c #717070",
"`  c #717171",
"'  c #727171",
"]  c #737272",
"[  c gray45",
"{  c #757474",
"}  c gray46",
"|  c #767575",
" . c #767676",
".. c #777676",
"X. c #7A7979",
"o. c gray48",
"O. c #7B7A7A",
"+. c #7C7C7C",
"@. c gray49",
"#. c #7E7E7E",
"$. c gray50",
"%. c #5E8286",
"&. c #808080",
"*. c #828080",
"=. c gray51",
"-. c #848282",
";. c #848383",
":. c #868686",
">. c #878686",
",. c #898787",
"<. c #898888",
"1. c #8A8888",
"2. c #8D8C8C",
"3. c #909090",
"4. c #929292",
"5. c #939292",
"6. c #949393",
"7. c #909494",
"8. c #969595",
"9. c gray59",
"0. c #969A9A",
"q. c #9A9A9A",
"w. c gray61",
"e. c #9D9D9D",
"r. c gray62",
"t. c #9E9F9F",
"y. c #9F9F9F",
"u. c #8AADB1",
"i. c #88AFB3",
"p. c #8DAFB3",
"a. c #88AFB4",
"s. c #8EB0B3",
"d. c #8CB3B7",
"f. c #91BABE",
"g. c #A0A0A0",
"h. c gray63",
"j. c #A2A1A1",
"k. c #A2A2A2",
"l. c gray64",
"z. c gray65",
"x. c #A7A7A7",
"c. c gray66",
"v. c #A8ADAD",
"b. c #9FC7CC",
"n. c #9ECBD1",
"m. c #A0C7CC",
"M. c None",
/* pixels */
"M.M.M.M.M.M.M.M.M.M.M.M.M.M.M.M.M.M.M.M.M.M.M.M.M.M.M.M.M.M.M.M.M.M.M.M.M.M.M.M.M.M.",
"M.M.M.M.M.M.M.M.M.M.M.M.M.M.M.M.M.M.M.M.M.M.M.M.M.M.M.M.M.M.M.M.M.M.M.M.M.M.M.M.M.M.",
"M.M.M.M.M.M.M.M.M.M.M.M.M.M.M.M.M.M.M.M.M.M.M.M.M.M.M.M.M.M.M.M.M.M.M.M.M.M.M.M.M.M.",
"M.M.M.M.M.M.M.M.M.M.M.M.M.M.M.M.M.M.M.M.M.M.M.M.M.M.M.M.M.M.M.M.M.M.M.M.M.M.M.M.M.M.",
"M.M.M.M.M.M.M.M.M.M.M.M.M.M.M.M.M.M.M.M.M.M.M.M.M.M.M.M.M.M.M.M.M.M.M.M.M.M.M.M.M.M.",
"M.M.M.M.M.M.M.M.M.M.M.M.M.M.M.M.M.. . . . . . . . M.M.M.M.M.M.M.M.M.M.M.M.M.M.M.M.M.",
"M.M.M.M.M.M.M.M.M.M.M.M.M.M.M.. X ; 2 2 2 2 2 2 ; X . M.M.M.M.M.M.M.M.M.M.M.M.M.M.M.",
"M.M.M.M.M.M.M.M.M.M.M.M.M.. X ; g Y ' _ _ _ _ ' Y g ; X . M.M.M.M.M.M.M.M.M.M.M.M.M.",
"M.M.M.M.M.M.M.M.M.M.M.M.o ; f E 6.k.l.l.l.l.l.l.k.6.E f ; o M.M.M.M.M.M.M.M.M.M.M.M.",
"M.M.M.M.M.M.M.M.M.M.M.X p R 6.k.c.x.x.x.x.x.x.x.x.c.k.6.R p X M.M.M.M.M.M.M.M.M.M.M.",
"M.M.M.M.M.M.M.M.M.M.X q U q.x.x.x.x.x.x.x.x.x.x.x.x.x.x.q.U q X M.M.M.M.M.M.M.M.M.M.",
"M.M.M.M.M.M.M.M.M.. $ B o.:.l.x.x.x.x.x.x.x.x.x.x.x.x.l.:.o.B $ . M.M.M.M.M.M.M.M.M.",
"M.M.M.M.M.M.M.M.M.o a ] t.l.x.x.x.x.x.x.x.x.x.x.x.x.x.x.l.t.] a o M.M.M.M.M.M.M.M.M.",
"M.M.M.M.M.M.M.M.. ; R r.l.l.l.l.x.x.x.x.x.x.x.x.x.x.l.l.l.l.r.R ; . M.M.M.M.M.M.M.M.",
"M.M.M.M.M.M.M.M.X g 6.y. ._ _ | q.l.x.x.x.x.x.x.l.q.| _ _  .y.6.g X M.M.M.M.M.M.M.M.",
"M.M.M.M.M.M.M.. ; T w.~ s > > t S o.r.k.k.k.k.r.o.S t > > s ~ w.T ; . M.M.M.M.M.M.M.",
"M.M.M.M.M.M.M.. 2 ] 5.h . . . X 6 G o.@.@.@.@.o.G 6 X . . . h 5.] 2 . M.M.M.M.M.M.M.",
"M.M.M.M.M.M.M.. > ^ 2.0 . X X . & C } +.@.@.+.} C & . X X . 0 2.^ > . M.M.M.M.M.M.M.",
"M.M.M.M.M.M.M.. & V W 2 . X X . * F #.r.k.k.r.#.F * . X X . 2 W V & . M.M.M.M.M.M.M.",
"M.M.M.M.M.M.M.M.X t J d X . . X a ] y.c.c.c.c.y.] a X . . X d J t X M.M.M.M.M.M.M.M.",
"M.M.M.M.M.M.M.M.. % N K c 8 e g Q r.z.y.h.h.y.z.r.Q g e 8 c K N % . M.M.M.M.M.M.M.M.",
"M.M.M.M.M.M.M.M.M.X w ) u.d.p.0.j.l.q.! #.#.! q.l.j.0.p.d.u.) w X M.M.M.M.M.M.M.M.M.",
"M.M.M.M.M.M.M.M.M.. $ D f.n.m.v.g.:.&.o.e.e.o.&.:.g.v.b.n.f.A $ . M.M.M.M.M.M.M.M.M.",
"M.M.M.M.M.M.M.M.M.M.X i %.i.s.7.X.e.e.=.l.l.=.e.e.X.7.s.a.%.i X M.M.M.M.M.M.M.M.M.M.",
"M.M.M.M.M.M.M.M.M.M.M.+ < 8 u 0 j 3.r.$.r.r.$.r.3.j 0 u 8 , O M.M.M.M.M.M.M.M.M.M.M.",
"M.M.M.M.M.M.M.M.M.M.M.M.. . .   % Z E H ~ ~ H E Z %   . . . M.M.M.M.M.M.M.M.M.M.M.M.",
"M.M.M.M.M.M.M.M.M.M.M.M.M.M.M.X $ % ; * > > * ; % $ X M.M.M.M.M.M.M.M.M.M.M.M.M.M.M.",
"M.M.M.M.M.M.M.M.M.M.M.M.M.M.X r M y 2 7 o o 7 2 y M r X M.M.M.M.M.M.M.M.M.M.M.M.M.M.",
"M.M.M.M.M.M.M.M.M.M.M.M.M.o p W 9./ P ( 3 3 ( P / 9.W p o M.M.M.M.M.M.M.M.M.M.M.M.M.",
"M.M.M.M.M.M.M.M.M.M.M.M.. ; U w.8.] b x # # x b ] 8.w.U ; . M.M.M.M.M.M.M.M.M.M.M.M.",
"M.M.M.M.M.M.M.M.M.M.M.M.. 2 [ 6.m L { -.v v -.{ L m 6.[ 2 . M.M.M.M.M.M.M.M.M.M.M.M.",
"M.M.M.M.M.M.M.M.M.M.M.M.. : I *.q n 8.g.>.>.h.8.n q *.I : . M.M.M.M.M.M.M.M.M.M.M.M.",
"M.M.M.M.M.M.M.M.M.M.M.M.M.@ 1 4 q ,.l.O.l k ..l.,.q 4 1 @ M.M.M.M.M.M.M.M.M.M.M.M.M.",
"M.M.M.M.M.M.M.M.M.M.M.M.M.M..   7 <.c.4.7 - ` l.1.7   . M.M.M.M.M.M.M.M.M.M.M.M.M.M.",
"M.M.M.M.M.M.M.M.M.M.M.M.M.M.M.X o l <.>.5 = I ;.z o X M.M.M.M.M.M.M.M.M.M.M.M.M.M.M.",
"M.M.M.M.M.M.M.M.M.M.M.M.M.M.M.M.X o 7 9 @ o 1 5 o X M.M.M.M.M.M.M.M.M.M.M.M.M.M.M.M.",
"M.M.M.M.M.M.M.M.M.M.M.M.M.M.M.M.M.X . . M.M.. . X M.M.M.M.M.M.M.M.M.M.M.M.M.M.M.M.M.",
"M.M.M.M.M.M.M.M.M.M.M.M.M.M.M.M.M.M.M.M.M.M.M.M.M.M.M.M.M.M.M.M.M.M.M.M.M.M.M.M.M.M.",
"M.M.M.M.M.M.M.M.M.M.M.M.M.M.M.M.M.M.M.M.M.M.M.M.M.M.M.M.M.M.M.M.M.M.M.M.M.M.M.M.M.M.",
"M.M.M.M.M.M.M.M.M.M.M.M.M.M.M.M.M.M.M.M.M.M.M.M.M.M.M.M.M.M.M.M.M.M.M.M.M.M.M.M.M.M.",
"M.M.M.M.M.M.M.M.M.M.M.M.M.M.M.M.M.M.M.M.M.M.M.M.M.M.M.M.M.M.M.M.M.M.M.M.M.M.M.M.M.M.",
"M.M.M.M.M.M.M.M.M.M.M.M.M.M.M.M.M.M.M.M.M.M.M.M.M.M.M.M.M.M.M.M.M.M.M.M.M.M.M.M.M.M."
};
