/* XPM */
static char *result[] = {
/* columns rows colors chars-per-pixel */
"42 42 209 2 ",
"   c #0F1119",
".  c #0F1219",
"X  c #0F121A",
"o  c #10121A",
"O  c #10131A",
"+  c #10131B",
"@  c #11141C",
"#  c #11141D",
"$  c #11151D",
"%  c #11151E",
"&  c #12151E",
"*  c #12151F",
"=  c #12161F",
"-  c #121620",
";  c #131620",
":  c #131720",
">  c #131821",
",  c #131822",
"<  c #141821",
"1  c #141822",
"2  c #141823",
"3  c #141923",
"4  c #151924",
"5  c #151A25",
"6  c #161B26",
"7  c #161B27",
"8  c #171C28",
"9  c #171C29",
"0  c #171D29",
"q  c #181D29",
"w  c #181D2A",
"e  c #1A202E",
"r  c #1A202F",
"t  c #1A212F",
"y  c #1B212F",
"u  c #1B222F",
"i  c #1B2130",
"p  c #1B2230",
"a  c #1B2231",
"s  c #1C2231",
"d  c #1C2232",
"f  c #1C2332",
"g  c #1C2333",
"h  c #1D2433",
"j  c #1D2434",
"k  c #1D2435",
"l  c #1D2535",
"z  c #1E2535",
"x  c #1E2536",
"c  c #1E2636",
"v  c #1E2637",
"b  c #1F2637",
"n  c #1F2737",
"m  c #1F2738",
"M  c #1F2739",
"N  c #202837",
"B  c #202838",
"V  c #202839",
"C  c #212939",
"Z  c #20283A",
"A  c #21293A",
"S  c #20293B",
"D  c #21293B",
"F  c #21293C",
"G  c #212A3C",
"H  c #212A3D",
"J  c #212B3D",
"K  c #222A3C",
"L  c #222A3D",
"P  c #222B3D",
"I  c #232B3D",
"U  c #222B3E",
"Y  c #232B3F",
"T  c #232C3D",
"R  c #222C3F",
"E  c #232C3F",
"W  c #232C40",
"Q  c #232D40",
"!  c #232D41",
"~  c #242D42",
"^  c #242E42",
"/  c #242E43",
"(  c #252E43",
")  c #252F43",
"_  c #252F44",
"`  c #252F45",
"'  c #253044",
"]  c #253045",
"[  c #273044",
"{  c #263045",
"}  c #263046",
"|  c #263146",
" . c #273146",
".. c #273147",
"X. c #273247",
"o. c #273248",
"O. c #283248",
"+. c #283349",
"@. c #29344A",
"#. c #2A354C",
"$. c #2A364C",
"%. c #2B364C",
"&. c #2B374C",
"*. c #2B364D",
"=. c #2B374E",
"-. c #2C374C",
";. c #2C374E",
":. c #2C374F",
">. c #2C384F",
",. c #2D394F",
"<. c #2D3850",
"1. c #2D3950",
"2. c #2E3A51",
"3. c #2E3A52",
"4. c #2F3B52",
"5. c #2F3B53",
"6. c #2F3C54",
"7. c #303C54",
"8. c #303D55",
"9. c #313D55",
"0. c #303D56",
"q. c #313D56",
"w. c #313E56",
"e. c #313E57",
"r. c #323E57",
"t. c #323F57",
"y. c #323E58",
"u. c #323F58",
"i. c #323F59",
"p. c #324059",
"a. c #334059",
"s. c #33405A",
"d. c #33415A",
"f. c #33405B",
"g. c #33415B",
"h. c #34415B",
"j. c #34415C",
"k. c #34415D",
"l. c #34425C",
"z. c #34425D",
"x. c #35425D",
"c. c #35425E",
"v. c #35435E",
"b. c #36435F",
"n. c #36445F",
"m. c #364460",
"M. c #374460",
"N. c #374461",
"B. c #374561",
"V. c #374462",
"C. c #374562",
"Z. c #384562",
"A. c #384563",
"S. c #384663",
"D. c #384763",
"F. c #384664",
"G. c #394664",
"H. c #394764",
"J. c #394765",
"K. c #394866",
"L. c #3A4866",
"P. c #3A4867",
"I. c #3A4967",
"U. c #3B4967",
"Y. c #3A4968",
"T. c #3B4A69",
"R. c #3C4B6A",
"E. c #3C4C6B",
"W. c #3D4C6C",
"Q. c #3D4D6D",
"!. c #3E4D6D",
"~. c #3E4D6E",
"^. c #3E4E6E",
"/. c #3F4F6F",
"(. c #405071",
"). c #415172",
"_. c #415275",
"`. c #425375",
"'. c #435375",
"]. c #425376",
"[. c #435376",
"{. c #435477",
"}. c #435577",
"|. c #445577",
" X c #455679",
".X c #45577B",
"XX c #46587C",
"oX c #47587D",
"OX c #475A7F",
"+X c #485A80",
"@X c #4A5D83",
"#X c #4A5E84",
"$X c #4B5E84",
"%X c #4B5E86",
"&X c #4C5F86",
"*X c #4D6088",
"=X c #4D628A",
"-X c #4D628B",
";X c #4F638C",
":X c #50658F",
">X c #536892",
",X c #566D9A",
"<X c #576E9B",
"1X c #586F9C",
"2X c #59709E",
"3X c #59719F",
"4X c #5B73A3",
"5X c #5E76A7",
"6X c None",
/* pixels */
"6X6X6X6X6X6X6X6X6X6X6X6X6X6X6X6X6X6X6X6X6X6X6X6X6X6X6X6X6X6X6X6X6X6X6X6X6X6X6X6X6X6X",
"6X6X6X6X6X6X6X6X6X6X6X6X6X6X6X6X6X6X6X6X6X6X6XX X X X o o o o o o 6X6X6X6X6X6X6X6X6X",
"6X6X6X6X6X6X6X6X6X6X6X6X6X6X6X6X6X6X6X6X+ 6Xu A C C B p t t t t i 9 6X6X6X6X6X6X6X6X",
"6X6X6X6X6X6X6X6X6X6X6X6X6X6X6X6X6X6X6X6XX   C d.a.a.e..._ _ ] ] } t . 6X6X6X6X6X6X6X",
"6X6X6X6X6X6X6X6X6XX X o O 6X6X6X6X6X6Xy A V %.b.v.v.z.<.=.*.{ _ _ Z e = 6X6X6X6X6X6X",
"6X6X6X6X6X6X6X6X: < < > - * 6X6X6X6X: I d.j.J.Q.R.T.H.s.i.w.| _ _ ` W - 6X6X6X6X6X6X",
"6X6X6X6X6X6X2 3 I 7.4.,.^ p = 6X= 6 &.9.x.'.;X1X%XOXK.a.e.6.| _ _ _ W 4 6X6X6X6X6X6X",
"6X6X6X6X6X: -.s.b.F.v.q.| ~ D 3 D ( q.v.E.2X<X-X~.Y.h.p.>.} _ _ _ _ _ G = 6X6X6X6X6X",
"6X6X6X6Xy T n.#XXX/.I.l.<.+.~ g S U #.q.D.@X+X_.B.x.u.>.+._ _ _ _ _ _ W = o 6X6X6X6X",
"6X6X6XX C h.R.3X:X{.^.Z.s.;._ / z z W #.e.N.S.C.a.u.7.o.} | | { _ _ _ W 1 # 6X6X6X6X",
"6X6X6X. C a.x. X).I.M.a.p.;._ ^ x j z U +.r.s.a.u.q.@.6.q.q.w.*._ _ _ ^ j 7 O 6X6X6X",
"6X6X6X& K p.h.(.W.S.c.t.w.*._ ! x j j F | 6.q.q.q.6.O.q.u.u.e.*._ _ _ ! c 7 O 6X6X6X",
"6X+ = D %.a.u.h.h.s.a.w.O.{ ^ b j j h F ` } } } | }  .w.p.w.O.{ _ _ ^ b k 7 O 6X6X6X",
"6X+ = W +.>.e.u.5.=.;.*.{ _ ^ x j l S W { *.=.*.{ _ { *.;.*.{ _ _ _ ^ x j 7 O 6X6X6X",
"6X+ = W _ } 6.w.*.( _ _ } | _ b z b / { O.y.s.y.O.} _ ^ / _ _ _ _ _ ^ x j 9 $ 6X6X6X",
"6X+ = W _ _ | | { _ { O.8.y.8. .^ / { :.i.H.J.C.i.8. .M H / _ _ _ ( ! x j g t % + 6X",
"6X+ = W _ _ _ _ _ ( $.e.N.S.Z.8.} | 6.z.L.].^.J.F.Z.8.' F v / _ ` L z j j j s % + 6X",
"6X+ = W _ _ _ _ +.=.f.W.$X[.F.j...| q.b.L.^.R.J.J.F.e. .W F F G G m j j j j s % + 6X",
"6X+ = W ` _ _ ( =.u.U.oX5X*XF.V...} 0.b.J.J.J.J.J.F.e.| _ ^ z h j j j j j k d % + 6X",
"6X6X= e Z ` { %.0.c.|.>X,X+XG.A.1.>.e.h.b.b.v.b.b.v.e.| _ ( L m j e 7 7 7 7 7 $ 6X6X",
"6X6X6X. e ! o.r.B.P.&X4X=X`.H.A.s.u.u.e.q.u.u.u.u.u.q.| _ _ ` L x w @ + O O O 6X6X6X",
"6X6X6X6X& 5 2.C.!.}..XXXW.I.F.g.u.u.u.>.X.w.u.u.u.u.q.| _ _ _ ( / Z e $ 6X6X6X6X6X6X",
"6X6X6X6X6X1 y.J.R././.Q.m.v.v.i.u.u.u.5.=.=.5.u.u.e.;.{ _ _ _ _ _ W Z 0 # 6X6X6X6X6X",
"6X6X6X6X: q k.J.J.J.F.C.a.u.u.u.u.u.u.u.w.} *.w.q.6.} / _ _ _ _ _ _ / z , * 6X6X6X6X",
"6X6X6XX N 5.s.F.J.J.b.a.u.u.u.u.u.u.u.u.q.| { | | | ) P Q _ _ _ _ _ _ ^ Q e X 6X6X6X",
"6X6X6X. C a.a.Z.F.F.v.u.u.u.u.u.u.u.u.u.q.| _ _ _ _ ( P W ) _ _ _ _ _ _ { a # 6X6X6X",
"6X6X6X& K a.u.a.a.a.i.u.u.u.u.u.u.u.u.e.6.| _ _ _ _ _ ) W P ~ / ( / ^ ( _ F p % + 6X",
"6X+ = D $.u.u.u.u.u.u.u.u.u.u.u.u.u.p.>.} _ _ _ _ _ _ _ Q D c V J V x H ) _ U = + 6X",
"6X+ = E ;.u.u.u.u.u.u.u.u.u.u.e.>.;.;.+._ _ _ _ _ _ _ ! G b j Z Q U G W _ _ W = + 6X",
"6X+ = R ;.u.u.u.e.q.q.q.q.8.7.3._ ^ ) _ _ _ _ _ _ _ ^ G m z l F / ) _ _ _ _ W = + 6X",
"6X+ = R ;.u.u.u.>.{ } } | Y b n x b ^ _ _ _ _ _ _ ) H z D ~ G m z H _ _ _ _ W = + 6X",
"6X+ = R ;.u.u.u.5.=.=.=.=.@.[ L F H ( W H ( _ _ Q W W G W _ ! Z h Z ! _ _ W m * + 6X",
"6X+ = R ;.p.u.u.u.u.u.u.u.p.w..._ _ _ F z / _ ( H H ) _ _ _ _ G j m P ( ` G a % + 6X",
"6X+ = W +.>.e.u.u.u.u.u.u.u.q.| _ _ _ F k S W _ ! ! _ _ _ _ _ G j x V ^ L m s % + 6X",
"6X+ = F ~ } 6.q.e.u.u.u.u.e.6.| _ _ _ G j h S / ^ ^ ^ _ _ _ / D j j x E x g t % + 6X",
"6X6X6X= a ) } | ;.q.q.q.q.;.} _ _ _ / D j j l x x x b ! ^ ! b l j j j z f 8 % 6X6X6X",
"6X6X6Xo 8 m / _ { .. . ...{ _ _ ] ( m z j j j j j j k x x x j j j j k f ; # 6X6X6X6X",
"6X6X6X6X3 8 i S G G G G G G G S a e 8 7 7 7 7 7 7 7 9 g j j j j j e 7 7 # 6X6X6X6X6X",
"6X6X6X6X6Xo # r s a a a a a s r # X O O O O O O O O $ t s s s s d 7 X O 6X6X6X6X6X6X",
"6X6X6X6X6X6X6X% % % % % % % % % 6X6X6X6X6X6X6X6X6X6X6X% % % % % % $ 6X6X6X6X6X6X6X6X",
"6X6X6X6X6X6X6X+ + + + + + + + + 6X6X6X6X6X6X6X6X6X6X6X+ + + + + + 6X6X6X6X6X6X6X6X6X",
"6X6X6X6X6X6X6X6X6X6X6X6X6X6X6X6X6X6X6X6X6X6X6X6X6X6X6X6X6X6X6X6X6X6X6X6X6X6X6X6X6X6X"
};
