/* XPM */
static char *result[] = {
/* columns rows colors chars-per-pixel */
"42 42 98 2 ",
"   c gray10",
".  c #1B1A1C",
"X  c #1C1A1D",
"o  c #1C1B1D",
"O  c #1D1C1D",
"+  c #1D1D1D",
"@  c #1E1D1D",
"#  c #1D1C1E",
"$  c #1E1C1E",
"%  c #1E1C1F",
"&  c #1E1E1E",
"*  c #1F1E1E",
"=  c #1F1E1F",
"-  c #201F1F",
";  c #1F1C20",
":  c #211E21",
">  c #201A24",
",  c #201A25",
"<  c #211A25",
"1  c #211A26",
"2  c #221C24",
"3  c #221D25",
"4  c #221A28",
"5  c #241A2A",
"6  c #251A2C",
"7  c #251A2D",
"8  c #261A2D",
"9  c #281C2F",
"0  c #291E2F",
"q  c #291D30",
"w  c #2A1A35",
"e  c #2B1A36",
"r  c #2C1A38",
"t  c #212021",
"y  c #222021",
"u  c #222121",
"i  c #222122",
"p  c #232024",
"a  c #242324",
"s  c #252324",
"d  c #27202A",
"f  c #2A2729",
"g  c #2C292B",
"h  c #2D292B",
"j  c #2F2A2E",
"k  c #2F2B2E",
"l  c #302C2E",
"z  c #302C2F",
"x  c #312B30",
"c  c #322D30",
"v  c #332D31",
"b  c #322E30",
"n  c #322E31",
"m  c #332E31",
"M  c #332E32",
"N  c #342E33",
"B  c #342C36",
"V  c #352C37",
"C  c #352C38",
"Z  c #372E38",
"A  c #372E39",
"S  c #382E39",
"D  c #382D3A",
"F  c #382D3B",
"G  c #382E3A",
"H  c #3A2C3F",
"J  c #343032",
"K  c #353032",
"L  c #353033",
"P  c #353034",
"I  c #363034",
"U  c #3B2B41",
"Y  c #3B2B42",
"T  c #3A2C40",
"R  c #3D2946",
"E  c #401E56",
"W  c #421C5A",
"Q  c #431C5D",
"!  c #441E5D",
"~  c #451E5E",
"^  c #451F5E",
"/  c #422057",
"(  c #45235A",
")  c #47205F",
"_  c #461C62",
"`  c #461C63",
"'  c #471C63",
"]  c #471D63",
"[  c #471C64",
"{  c #471D64",
"}  c #481C64",
"|  c #481D64",
" . c #491F65",
".. c #4A1F66",
"X. c #4A1E67",
"o. c #472060",
"O. c #472160",
"+. c None",
/* pixels */
"+.+.+.+.+.+.+.+.+.+.+.+.+.+.+.+.+.+.+.+.+.+.+.+.+.+.+.+.+.+.+.+.+.+.+.+.+.+.+.+.+.+.",
"+.+.+.+.+.+.+.+.+.+.+.+.+.+.+.+.+.+.+.+.+.+.+.+.+.+.+.+.+.+.+.+.+.+.+.+.+.+.+.+.+.+.",
"+.+.+.+.+.+.+.+.+.+.+.+.+.+.+.+.+.+.+.+.+.+.+.+.+.+.+.+.+.+.+.+.+.+.+.+.+.+.+.+.+.+.",
"+.+.+.+.+.+.+.+.+.+.+.+.+.+.+.+.+.+.+.+.+.+.+.+.+.+.+.+.+.+.+.+.+.+.+.+.+.+.+.+.+.+.",
"+.+.+.+.+.+.+.+.+.+.+.+.+.+.+.+.+.+.+.+.+.+.+.+.+.+.+.+.+.+.+.+.+.+.+.+.+.+.+.+.+.+.",
"+.+.+.+.+.+.+.+.+.+.+.+.+.+.+.+.+.+.+.+.+.+.+.+.+.+.+.+.+.+.+.+.+.+.+.+.+.+.+.+.+.+.",
"+.+.+.+.+.+.+.+.+.+.+.+.+.+.+.+.+.+.+.+.+.+.+.+.+.+.+.+.+.+.+.+.+.+.+.+.+.+.+.+.+.+.",
"+.+.+.+.+.+.+.+.+.+.+.+.+.+.+.+.+.+.+.+.+.+.+.+.+.+.+.+.+.+.+.+.+.+.+.+.+.+.+.+.+.+.",
"+.+.+.+.+.+.+.+.+.+.+.+.+.+.+.+.+.+.+.+.+.+.+.+.+.+.+.+.+.+.+.+.+.+.+.+.+.+.+.+.+.+.",
"+.+.+.+.+.+.+.+.+.+.+.+.+.+.+.+.+.+.+.+.+.+.+.+.+.+.+.+.+.+.+.+.+.+.+.+.+.+.+.+.+.+.",
"+.+.+.+.+.+.+.+.+.+.+.+.+.+.+.+.+.+.+.+.+.+.+.+.+.+.+.+.+.+.+.+.+.+.+.+.+.+.+.+.+.+.",
"+.+.+.+.+.+.+.+.+.+.+.+.+.+.+.+.+.+.+.+.+.+.+.+.+.+.+.+.+.+.+.+.+.+.+.+.+.+.+.+.+.+.",
"+.+.+.+.+.+.+.+.+.+.+.+.+.+.+.+.+.+.+.+.+.+.+.+.+.+.+.+.+.+.+.+.+.+.+.+.+.+.+.+.+.+.",
"+.+.+.+.+.+.+.+.+.+.+.+.+.+.+.+.+.+.+.+.+.+.+.+.+.+.+.+.+.+.+.+.+.+.+.+.+.+.+.+.+.+.",
"+.+.+.+.+.+.+.+.+.+.+.+.+.+.+.+.+.+.+.+.+.+.+.+.+.+.+.+.+.+.+.+.+.+.+.+.+.+.+.+.+.+.",
"+.+.+.+.+.+.+.+.+.+.+.+.+.+.+.+.+.+.+.+.+.+.+.+.+.+.+.+.+.+.+.+.+.+.+.+.+.+.+.+.+.+.",
"+.+.+.+.+.+.+.+.+.+.+.+.+.+.+.+.+.+.+.+.+.+.+.+.+.+.+.+.+.+.+.+.+.+.+.+.+.+.+.+.+.+.",
"+.+.+.+.+.+.+.+.+.+.+.+.+.+.+.+.+.+.+.+.+.+.+.+.+.+.+.+.+.+.+.+.+.+.+.+.+.+.+.+.+.+.",
"+.+.+.+.+.+.+.+.+.+.+.+.+.+.+.+.+.+.+.+.+.+.+.+.+.+.+.+.+.+.+.+.+.+.+.+.+.+.+.+.+.+.",
"+.+.+.+.+.+.+.+.+.+.+.+.+.+.+.+.+.+.+.+.+.+.+.+.+.+.+.+.+.+.+.+.+.+.+.+.+.+.+.+.+.+.",
"+.+.+.+.+.+.+.+.+.+.+.+.+.+.+.+.+.+.+.+.+.+.+.+.+.+.+.+.+.+.+.+.+.+.+.+.+.+.+.+.+.+.",
"+.+.+.+.+.+.+.+.+.+.+.+.+.+.+.+.+.+.+.+.+.+.+.+.+.+.+.+.+.+.+.+.+.+.+.+.+.+.+.+.+.+.",
"+.+.+.+.+.+.+.+.+.+.+.+.+.+.+.+.+.+.+.+.+.+.+.+.+.+.+.+.+.+.+.+.+.+.+.+.+.+.+.+.+.+.",
"+.+.+.+.+.+.+.+.+.+.+.+.+.+.+.+.+.+.+.+.+.+.+.+.+.+.+.+.+.+.+.+.+.+.+.+.+.+.+.+.+.+.",
"+.+.+.+.+.+.+.+.+.+.+.+.+.+.+.+.+.+.+.+.+.+.+.+.+.+.+.+.+.+.+.+.+.+.+.+.+.+.+.+.+.+.",
"+.+.+.+.+.+.+.+.+.+.+.+.+.+.+.+.+.+.+.+.+.+.+.+.+.+.+.+.+.+.+.+.+.+.+.+.+.+.+.+.+.+.",
"+.+.+.+.+.+.+.+.+.+.+.+.+.+.+.+.+.+.+.+.+.+.+.+.+.+.+.+.+.+.+.+.+.+.+.+.+.+.+.+.+.+.",
"+.+.+.+.+.+.+.+.+.+.+.+.+.+.+.+.+.+.+.+.+.+.+.+.+.+.+.+.+.+.+.+.+.+.+.+.+.+.+.+.+.+.",
"+.+.+.+.+.+.+.+.+.+.+.+.+.+.+.+.+.+.+.+.+.+.+.+.+.+.+.+.+.+.+.6 6 5 .       . 5 +.+.",
"6 6 8 9 8 9 q +.+.+.6 +.+.+.+.+.+.+.+.+.+.+.+.+.+.8 e r r r e 4 1 < # O O O O $ ; w ",
"% % : j p x N n - + % + + O   . 5 6 6 6 5 X > < , 7 Q | { } [ _ ` ! B b b b b b B ~ ",
"b b b J m L L L b c b c b l = O % % o % $ 2 W _ ' [ R Y U F G G G G I L L L L L I G ",
"L L L L L L L L L L L L L L n b b h * k b m G G T .... .O.H G G S L L L L L L L L L ",
"L L L L L L L L L L L L L L L m l y - m L L L K L S D G H o. . .O.S Z P L L L L L L ",
"L L L L L L L L L L L L L L l = t l n L L L L L L L L K L S G G S G ( A L L L L L L ",
"L L L L L L m L L L L b n b = * l L L L L L L L L L L L m A G S L P A P L L L L L L ",
"L L m L L b u b L L m u i l y l L L L L L L L L L L K z 0 ~ ..O.Z L L L m L L L L L ",
"L m a m L b u b L L L b c c n L L L L L L L L J m S V d E H G G P L L b y l L L L L ",
"L L m L L L m L L L L L m s m L L L L L L J M B d ^ o.V Z L K L L L L b + t z L L L ",
"L L L L L L L L L L L L L m L L L L L L G V d / C A G P L L L L L L L c = f y b L L ",
"L L L L L L L L L L L L m L L L b v A H o.) V Z I L L L L L L L L m L b @ & @ b L L ",
"L L L L L L L L L L L b i b L n - 3 ] X.U G I L L L L L L L L L b i n b - g - c L L "
};
