/* XPM */
static char *result[] = {
/* columns rows colors chars-per-pixel */
"42 42 178 2 ",
"   c #191A19",
".  c #1A1A19",
"X  c gray10",
"o  c #1A1A1B",
"O  c #1B1A1B",
"+  c #1B1A1C",
"@  c #1D1A1F",
"#  c gray11",
"$  c #1D1C1C",
"%  c #1D1C1D",
"&  c #1D1C1E",
"*  c #1E1C1E",
"=  c #1E1D1F",
"-  c #201E1F",
";  c #201F1F",
":  c #1E1A21",
">  c #1E1A22",
",  c #1F1A22",
"<  c #1F1A23",
"1  c #201A23",
"2  c #201E20",
"3  c #201E21",
"4  c #211F21",
"5  c #201A24",
"6  c #201A25",
"7  c #211A25",
"8  c #211A26",
"9  c #211B26",
"0  c #211A27",
"q  c #221A27",
"w  c #221A28",
"e  c #231A29",
"r  c #231A2A",
"t  c #241A2A",
"y  c #241A2B",
"u  c #251E29",
"i  c #241A2C",
"p  c #251A2C",
"a  c #251A2D",
"s  c #261A2D",
"d  c #251A2E",
"f  c #261A2E",
"g  c #261A2F",
"h  c #271A2F",
"j  c #261C2C",
"k  c #271E2C",
"l  c #281E2D",
"z  c #271A30",
"x  c #271A31",
"c  c #281A31",
"v  c #281A32",
"b  c #281A33",
"n  c #2A1C33",
"m  c #291A34",
"M  c #2B1A37",
"N  c #2D1A3B",
"B  c #2E1A3C",
"V  c #222022",
"C  c #2F2B2D",
"Z  c #2F2B2E",
"A  c #2F2C2E",
"S  c #2D2232",
"D  c #312B30",
"F  c #312C30",
"G  c #312D30",
"H  c #322D30",
"J  c #322E30",
"K  c #332E32",
"L  c #342E33",
"P  c #342E34",
"I  c #342C36",
"U  c #352C36",
"Y  c #352B38",
"T  c #352A39",
"R  c #372A3A",
"E  c #362C38",
"W  c #362C39",
"Q  c #372E38",
"!  c #372E39",
"~  c #372C3A",
"^  c #37293C",
"/  c #382E39",
"(  c #382C3A",
")  c #382E3A",
"_  c #392E3B",
"`  c #392C3E",
"'  c #3A2C3F",
"]  c #3A2E3E",
"[  c #3B2E3E",
"{  c #353032",
"}  c #353033",
"|  c #363034",
" . c #363035",
".. c #371C49",
"X. c #3E1A57",
"o. c #3F1E55",
"O. c #3F1E56",
"+. c #3F1A58",
"@. c #3F1A59",
"#. c #392940",
"$. c #401A5A",
"%. c #411A5B",
"&. c #421C5B",
"*. c #421C5C",
"=. c #451E5E",
"-. c #431A60",
";. c #441A60",
":. c #441A61",
">. c #451A61",
",. c #451A62",
"<. c #451A63",
"1. c #461A63",
"2. c #471E61",
"3. c #471C63",
"4. c #461A64",
"5. c #461A65",
"6. c #471A66",
"7. c #481A67",
"8. c #491C67",
"9. c #491A68",
"0. c #491A69",
"q. c #491A6A",
"w. c #4A1A6A",
"e. c #4A1A6B",
"r. c #4B1A6C",
"t. c #4B1A6D",
"y. c #4A1A6E",
"u. c #4C1A6E",
"i. c #4C1A6F",
"p. c #4D1A70",
"a. c #4D1A71",
"s. c #4E1A71",
"d. c #4E1A72",
"f. c #4F1A72",
"g. c #4F1A73",
"h. c #4E1A74",
"j. c #4F1A74",
"k. c #501A74",
"l. c #501A75",
"z. c #511A77",
"x. c #501C75",
"c. c #521E77",
"v. c #511A78",
"b. c #521A78",
"n. c #521A79",
"m. c #531A79",
"M. c #531A7A",
"N. c #531A7B",
"B. c #521C79",
"V. c #541A7C",
"C. c #541A7D",
"Z. c #551A7F",
"A. c #551E7C",
"S. c #551A80",
"D. c #561A81",
"F. c #561A82",
"G. c #571A83",
"H. c #591A86",
"J. c #591A87",
"K. c #5A1A88",
"L. c #5A1A89",
"P. c #5C1A8B",
"I. c #5C1A8C",
"U. c #5D1A8C",
"Y. c #5D1A8D",
"T. c #5D1A8E",
"R. c #5E1A8F",
"E. c #5F1A91",
"W. c #601A93",
"Q. c #611A94",
"!. c #631A97",
"~. c #641A99",
"^. c #641A9A",
"/. c #651A9B",
"(. c #651A9C",
"). c #671A9F",
"_. c #681AA0",
"`. c None",
/* pixels */
"G H } } } } } } } L l = J } } } } } } } } } C 3 H } } } } } } J ; % 7 6 @ t p t 4 J ",
"; V F { { } } } } } D - F } } } } } } } } K u n L } } { { { } ! Y ^ &.$.z q q j F } ",
"J F S ` [  .} } } } J = k E | } } } } } } ( 8.2./ Q P ] _ ) ' =.3.*.y < 6 +.4.x.~ { ",
"J J T A.A.W J J J J Z # 5 o.U J J J J J J R c.#.I O...B.8.3.*.y 5 < o . O < 7 q 2 A ",
"% % * w w * % % % % $ X O , & % % % % % % * 9 & % d y.v 1 5 < o . . X X X . .   X $ ",
"X X X     X X X X X   . .     X X X X X X     X X o 8 5 , X   . X X X X . . . X X X ",
". . . X X . . . X O < 5 5 5 < o X X X X O > o . X , e %.6.p < < X . . X , 5 q + X X ",
"5 5 , X X < 5 < o : $.t.q.0.,.t o X X . < @.i , y ,.:.M C.g.i.,.y < < i 6.d.h.7 . X ",
">.u.7.p y :.,.+.> X g Z.V.m.b.<.< . X . 5 u.p.u.p.C.J.w x F.P.M.p.u.u.j.!.U.N O   . ",
"c D.K.4.:.:.p < O X X v D.Y.L.5., . X . 8 D./.^.T.Y.G.0 X 8 m D.R.^.^.R.T.M.,.y < 5 ",
"O q w 6 5 < X . X X X o q e w < O X X X o b H.H.m w q + X   o 8 m H.H.m g 1.f.e.w.w.",
"X     . .   . . X X . .       . X X X X X o 0 0 o     X X X X   o 0 0 o X t ,.w.w.w.",
"X X . . X < 5 < X X < < o X X X . . X X X X     X X X X X X X X X     X X o < 5 5 < ",
"X o < 1 y ,.w.,.y y ,.,.t X . O < < X . X X X X X X X X X X X X X X X X X X . . o , ",
"X t ,.w.w.f.k.g.w.w.g.g.<.y > 5 :.,.y , o X X . . . X X X X X X X X . . X X X . , X.",
"a ,.g.j.j.`.`.g.j.j.g.g.f.e.;.p 0.j.e.,.t X X < 5 , O . . . X X X o < < o X X X O < ",
"w.f.`.`.`.`.`.`.`.`.`.k.z.l.0.s 7.r.f.j.6.5 r ,.q.-.v 5 5 < o X X t ,.,.t X . .   . ",
"`.`.`.`.`.X `.`.`.`.`.`.W.b.`.`.`.z q.n.K.v ,.g.g.d.r.0.0.>.y O y <.g.j.6.5 < 7 q + ",
"h i.m.`.`.X `.`.r 7 5 q `.`.`.`.`.`.`.`.`.`.g.b.b.z.t.z.n.z.0.`.9.g.b.N.C.d X.r.K.`.",
"u.Q.^.`.`.`.`.`.I.d.t.w.s.`.`.`.`.`.`.`.g.`.`.~.~.S.B Y./.~.`.`.`.`.^.I.b 6 g `.`.`.",
"`.`.`.`.`.`.`.`.).(.!.V.g.`.`.`.`.`.`.g.g.`.`.`.`.e r E._.`.`.`.`.`.`.`.f :.w.d.`.`.",
"`.`.`.`.`.`.`.`.`.).).^.`.`.`.`.`.`.`.`.`.`.`.`.`.`.`.`.`.`.`.`.`.`.`.z.a.v.b.j.`.`.",
"`.`.`.`.`.`.`.`.`.`.`.`.`.`.`.`.`.`.`.`.`.`.`.`.`.`.`.`.`.`.`.`.`.`.`.^.^.^.~.`.`.`.",
"`.`.`.`.`.`.`.`.`.`.`.`.`.`.`.`.`.`.`.`.`.`.`.`.`.`.`.`.`.`.`.`.`.X `.`.`.`.`.`.`.`.",
"`.`.`.`.`.`.`.`.`.`.`.`.`.`.`.`.`.`.`.`.`.`.`.`.`.`.`.`.`.`.`.`.`.`.`.`.`.`.`.`.`.`.",
"`.`.`.`.`.`.`.`.`.`.`.`.`.`.`.`.`.`.`.`.`.`.`.`.`.`.`.`.`.`.`.`.`.`.`.`.`.`.`.`.`.`.",
"`.`.`.`.`.`.`.`.`.`.`.`.`.`.`.`.`.`.`.`.`.`.`.`.`.`.`.`.`.`.`.`.`.`.`.`.`.X `.`.`.`.",
"`.`.`.`.`.`.`.`.`.`.`.`.`.`.`.`.`.`.`.`.`.`.`.`.`.`.`.`.`.`.`.`.`.`.`.`.`.`.`.`.`.`.",
"`.`.`.`.`.`.`.`.`.`.`.`.`.`.`.`.`.`.`.`.`.`.`.`.`.`.`.`.`.g.`.`.`.`.`.`.`.`.`.`.`.`.",
"`.`.`.`.`.`.`.`.`.`.`.`.`.`.`.`.`.`.`.`.`.`.`.`.`.`.`.`.`.`.`.`.`.`.`.`.`.`.`.`.`.`.",
"`.`.`.`.`.`.`.`.`.`.`.`.`.`.`.`.`.`.`.`.`.`.`.`.`.`.`.`.`.`.`.`.`.`.`.`.`.`.`.`.`.`.",
"`.`.`.`.`.`.`.`.`.`.`.`.`.`.`.`.`.`.`.`.`.`.`.`.`.`.`.`.`.`.`.`.`.`.`.`.`.`.`.`.`.`.",
"`.`.`.`.`.`.`.`.`.`.`.`.`.`.`.`.`.`.`.`.`.`.`.`.`.`.`.`.`.`.`.`.`.`.`.`.`.`.`.`.`.`.",
"`.`.`.`.`.`.`.`.`.`.`.`.`.`.`.`.`.`.`.`.`.`.`.`.`.`.`.`.`.`.`.`.`.`.`.`.`.`.`.`.`.`.",
"`.`.`.`.`.`.`.`.`.`.`.`.`.`.`.`.`.`.`.`.`.`.`.`.`.`.`.`.`.`.`.`.`.`.`.`.`.`.`.`.`.`.",
"`.`.`.`.`.`.`.`.`.`.`.`.`.`.`.`.`.`.`.`.`.`.`.`.`.`.`.`.`.`.`.`.`.`.`.`.`.`.`.`.`.`.",
"`.`.`.`.`.`.`.`.`.`.`.`.`.`.`.`.`.`.`.`.`.`.`.`.`.`.`.`.`.`.`.`.`.`.`.`.`.`.`.`.`.`.",
"`.`.`.`.`.`.`.`.`.`.`.`.`.`.`.`.`.`.`.`.`.`.`.`.`.`.`.`.`.`.`.`.`.`.`.`.`.`.`.`.`.`.",
"`.`.`.`.`.`.`.`.`.`.`.`.`.`.`.`.`.`.`.`.`.`.`.`.`.`.`.`.`.`.`.`.`.`.`.`.`.`.`.`.`.`.",
"`.`.`.`.`.`.`.`.`.`.`.`.`.`.`.`.`.`.`.`.`.`.`.`.`.`.`.`.`.`.`.`.`.`.`.`.`.`.`.`.`.`.",
"`.`.`.`.`.`.`.`.`.`.`.`.`.`.`.`.`.`.`.`.`.`.`.`.`.`.`.`.`.`.`.`.`.`.`.`.`.`.`.`.`.`.",
"`.`.`.`.`.`.`.`.`.`.`.`.`.`.`.`.`.`.`.`.`.`.`.`.`.`.`.`.`.`.`.`.`.`.`.`.`.`.`.`.`.`."
};
