/* XPM */
static char *result[] = {
/* columns rows colors chars-per-pixel */
"42 42 158 2 ",
"   c #191A19",
".  c #1A1A19",
"X  c gray10",
"o  c #1A1A1B",
"O  c #1B1A1B",
"+  c #1B1A1C",
"@  c #1C1A1C",
"#  c #1C1A1D",
"$  c #1C1A1E",
"%  c #1D1A1E",
"&  c gray11",
"*  c #1D1C1C",
"=  c #1D1C1D",
"-  c #1D1D1D",
";  c #1D1C1E",
":  c #1E1C1E",
">  c #1E1C1F",
",  c #1E1D1F",
"<  c #1F1E1E",
"1  c #1F1E1F",
"2  c #201E1F",
"3  c #1E1A20",
"4  c #1E1A21",
"5  c #1F1A22",
"6  c #1F1A23",
"7  c #1F1C20",
"8  c #1F1E20",
"9  c #201C21",
"0  c #201E20",
"q  c #201E21",
"w  c #201C22",
"e  c #211C23",
"r  c #221E23",
"t  c #201A24",
"y  c #201A25",
"u  c #211A26",
"i  c #221A27",
"p  c #221C25",
"a  c #221C26",
"s  c #231C26",
"d  c #231C27",
"f  c #241F27",
"g  c #231A28",
"h  c #241A2A",
"j  c #251A2B",
"k  c #241C29",
"l  c #251E28",
"z  c #251E29",
"x  c #251C2B",
"c  c #261C2B",
"v  c #251A2C",
"b  c #261A2C",
"n  c #261A2D",
"m  c #261A2E",
"M  c #271A2F",
"N  c #261C2C",
"B  c #261C2D",
"V  c #271C2D",
"C  c #271D2D",
"Z  c #271E2C",
"A  c #271C2E",
"S  c #271D2E",
"D  c #281E2D",
"F  c #281C2F",
"G  c #281E2F",
"H  c #291E2F",
"J  c #281A31",
"K  c #291A32",
"L  c #291D30",
"P  c #2A1E30",
"I  c #2A1F30",
"U  c #2A1C33",
"Y  c #2A1A34",
"T  c #2A1A35",
"R  c #2B1A35",
"E  c #2B1C34",
"W  c #2C1C35",
"Q  c #2E1F36",
"!  c #2E1A3A",
"~  c #222021",
"^  c #232023",
"/  c #232123",
"(  c #2D272D",
")  c #2D2A2B",
"_  c #2D2A2C",
"`  c #2E2A2D",
"'  c #2F2B2E",
"]  c #2F2C2E",
"[  c #302C2E",
"{  c #302C2F",
"}  c #2B2030",
"|  c #2B2130",
" . c #312B30",
".. c #322A33",
"X. c #312C30",
"o. c #322E30",
"O. c #322E31",
"+. c #332E31",
"@. c #322C32",
"#. c #332C32",
"$. c #332D32",
"%. c #332D33",
"&. c #332E32",
"*. c #342E33",
"=. c #342B37",
"-. c #352B37",
";. c #342C36",
":. c #352C36",
">. c #352C37",
",. c #362B38",
"<. c #372D39",
"1. c #372E38",
"2. c #382E39",
"3. c #382E3A",
"4. c #382E3B",
"5. c #392C3E",
"6. c #3A2C3E",
"7. c #3A2C3F",
"8. c #343032",
"9. c #353032",
"0. c #353033",
"q. c #353034",
"w. c #363034",
"e. c #3A2B40",
"r. c #3B2C40",
"t. c #3B2C41",
"y. c #401E56",
"u. c #401E57",
"i. c #411E57",
"p. c #401A5A",
"a. c #421C5B",
"s. c #431C5D",
"d. c #441E5C",
"f. c #441E5D",
"g. c #451E5D",
"h. c #441F5D",
"j. c #451E5E",
"k. c #451E5F",
"l. c #43205A",
"z. c #47215F",
"x. c #451A61",
"c. c #451A62",
"v. c #451A63",
"b. c #461C63",
"n. c #471C63",
"m. c #461A64",
"M. c #471C64",
"N. c #481C65",
"B. c #491E66",
"V. c #4A1F66",
"C. c #491A69",
"Z. c #4A1A6A",
"A. c #4A1A6B",
"S. c #4B1A6C",
"D. c #4C1C6C",
"F. c #472060",
"G. c #482062",
"H. c None",
/* pixels */
"0.0.0.0.0.0.0.0.0.0.0.0.O.w Y H.H.H.H.H.H.H.H.H.H.H.H.H.H.H.H.H.H.H.H.H.H.H.H.H.H.H.",
"0.0.0.0.0.0.0.0.0.0.0.0.X.E m.H.H.H.H.H.H.H.H.H.H.H.H.H.H.H.H.H.H.H.H.H.H.H.H.H.H.H.",
"0.0.0.0.0.0.0.0.0.0.0.O.r ! S.H.H.H.H.H.H.H.H.H.H.H.H.H.H.H.H.H.H.H.H.H.H.H.H.H.H.H.",
"0.0.0.0.0.0.0.0.0.0.0.&.U m.H.H.H.H.H.H.H.H.H.H.H.H.H.H.H.H.H.H.H.H.H.H.H.H.H.H.H.H.",
"0.0.0.0.0.0.0.0.0.0.0.o.x C.H.H.H.H.H.H.H.H.H.H.H.H.H.H.H.H.H.H.H.H.H.H.H.H.H.H.H.H.",
"0.0.0.0.0.0.0.0.0.0.0.X.W Z.H.H.H.H.H.H.H.H.H.H.H.H.H.H.H.H.H.H.H.H.H.H.H.H.H.H.H.H.",
"0.0.0.0.0.0.0.0.0.0.O.q R A.H.H.H.H.H.H.H.H.H.H.H.H.H.H.H.H.H.H.H.H.H.H.H.H.H.H.H.H.",
"0.0.0.0.0.0.0.0.0.0.[ 7 K m.H.H.H.H.H.H.H.H.H.H.H.H.H.H.H.H.H.H.H.H.H.H.H.H.H.H.H.H.",
"0.0.0.0.0.0.0.0.+.[ 0 i 4 J H.H.H.H.H.H.H.H.H.H.H.H.H.H.H.H.H.H.H.H.H.H.H.H.H.H.H.H.",
"0.0.0.3.3.q.0.[ 1 * + + X # h H.H.H.H.H.H.H.H.H.H.H.H.H.H.H.H.H.H.H.H.H.H.H.H.H.H.H.",
"0.0.5.j.j.5.{ < X $ k @ & O : H.H.H.H.H.H.H.H.H.H.H.H.H.H.H.H.H.H.H.H.H.H.H.H.H.H.H.",
"0.6.i.V S y.p . + c ( ~ _ ~ ' H.H.H.H.H.H.H.H.H.H.H.H.H.H.H.H.H.H.H.H.H.H.H.H.H.H.H.",
"e.i.G [ +.;.8 X + j ^ { 0.+.0.H.H.H.H.H.H.H.H.H.H.H.H.H.H.H.H.H.H.H.H.H.H.H.H.H.H.H.",
"g.H { 0.0.0.[ < + V X.0.o.O.&.H.H.H.H.H.H.H.H.H.H.H.H.H.H.H.H.H.H.H.H.H.H.H.H.H.H.H.",
"<.+.0.0.0.0.q...> V *.+.~ , V H.H.H.H.H.H.H.H.H.H.H.H.H.H.H.H.H.H.H.H.H.H.H.H.H.H.H.",
"0.0.0.0.0.0.2.f.u V *.0.] > v H.H.H.H.H.H.H.H.H.H.H.H.H.H.H.H.H.H.H.H.H.H.H.H.H.H.H.",
"0.0.0.0.0.0.t.M.u x @.0.O.9 v H.H.H.H.H.H.H.H.H.H.H.H.H.H.H.H.H.H.H.H.H.H.H.H.H.H.H.",
"0.0.0.0.0.6.G.b.6 # Z @.@.C H.H.H.H.H.H.H.H.H.H.H.H.H.H.H.H.H.H.H.H.H.H.H.H.H.H.H.H.",
"0.0.0.0.6.l.7.>.0 X 3 A L H.H.H.H.H.H.H.H.H.H.H.H.H.H.H.H.H.H.H.H.H.H.H.H.H.H.H.H.H.",
"0.q.2.7.u.B O.0.[ : g H.H.H.H.H.H.H.H.H.H.H.H.H.H.H.H.H.H.H.H.H.H.H.H.H.H.H.H.H.H.H.",
"8.:.F.k.N 2 o.0.+.2 # H.H.H.H.H.H.H.H.H.H.H.H.H.H.H.H.H.H.H.H.H.H.H.H.H.H.H.H.H.H.H.",
"=.^ -.2.O.o.0.0.8.) ; v H.H.H.H.H.H.H.H.H.H.H.H.H.H.H.H.H.H.H.H.H.H.H.H.H.H.H.H.H.H.",
"d.f o.0.0.0.0.0.>.z u m H.H.H.H.H.H.H.H.H.H.H.H.H.H.H.H.H.H.H.H.H.H.H.H.H.H.H.H.H.H.",
"<.&.0.0.0.q.2.r.B.c.p.T H.H.H.H.H.H.H.H.H.H.H.H.H.H.H.H.H.H.H.H.H.H.H.H.H.H.H.H.H.H.",
"0.0.0.0.9.1.h.M.x.v i m H.H.H.H.H.H.H.H.H.H.H.H.H.H.H.H.H.H.H.H.H.H.H.H.H.H.H.H.H.H.",
"0.0.0.3.4.,.a t 6 % g H.H.H.H.H.H.H.H.H.H.H.H.H.H.H.H.H.H.H.H.H.H.H.H.H.H.H.H.H.H.H.",
"w.2.7.j.n.a.e   O i % H.H.H.H.H.H.H.H.H.H.H.H.H.H.H.H.H.H.H.H.H.H.H.H.H.H.H.H.H.H.H.",
">.z.k.S s l ` 1 = : > b H.H.H.H.H.H.H.H.H.H.H.H.H.H.H.H.H.H.H.H.H.H.H.H.H.H.H.H.H.H.",
"/ >.2.O.o.o.8.O.o.o. .F H.H.H.H.H.H.H.H.H.H.H.H.H.H.H.H.H.H.H.H.H.H.H.H.H.H.H.H.H.H.",
"o.8.0.0.0.0.0.0.0.0.#.L H.H.H.H.H.H.H.H.H.H.H.H.H.H.H.H.H.H.H.H.H.H.H.H.H.H.H.H.H.H.",
"0.0.0.0.0.0.0.0.0.@.P H.H.H.H.H.H.H.H.H.H.H.H.H.H.H.H.H.H.H.H.H.H.H.H.H.H.H.H.H.H.H.",
"0.0.0.0.0.9.O.O.&.P M H.H.H.H.H.H.H.H.H.H.H.H.H.H.H.H.H.H.H.H.H.H.H.H.H.H.H.H.H.H.H.",
"0.0.0.9.q.:.0 - H.H.H.H.H.H.H.H.H.H.H.H.H.H.H.H.H.H.H.H.H.H.H.H.H.H.H.H.H.H.H.H.H.H.",
"q.2.3.3.7.y.5 o h n H.H.H.H.H.H.H.H.H.H.H.H.H.H.H.H.H.H.H.H.H.H.H.H.H.H.H.H.H.H.H.H.",
"3.V.D.M.a.h = = + % n H.H.H.H.H.H.H.H.H.H.H.H.H.H.H.H.H.H.H.H.H.H.H.H.H.H.H.H.H.H.H.",
"e.N.v.m y 1 [ [ < + h H.H.H.H.H.H.H.H.H.H.H.H.H.H.H.H.H.H.H.H.H.H.H.H.H.H.H.H.H.H.H.",
"s.A d N D X.0.0.[ 1 : H.H.H.H.H.H.H.H.H.H.H.H.H.H.H.H.H.H.H.H.H.H.H.H.H.H.H.H.H.H.H.",
"Q X.o.&.*.0.0.0.0.+.[ 1 X H.H.H.H.H.H.H.H.H.H.H.H.H.H.H.H.H.H.H.H.H.H.H.H.H.H.H.H.H.",
"@.0.0.0.*.*.0.0.0.0.0.[ 1 X H.H.H.H.H.H.H.H.H.H.H.H.H.H.H.H.H.H.H.H.H.H.H.H.H.H.H.H.",
"| @.*.@.} | *.0.0.0.0.0.[ 1 X H.H.H.H.H.H.H.H.H.H.H.H.H.H.H.H.H.H.H.H.H.H.H.H.H.H.H.",
"@.| I | @.*.0.0.0.0.0.0.0.[ = H.H.H.H.H.H.H.H.H.H.H.H.H.H.H.H.H.H.H.H.H.H.H.H.H.H.H.",
"0.%.$.%.0.0.0.0.0.0.0.0.0.o.- H.H.H.H.H.H.H.H.H.H.H.H.H.H.H.H.H.H.H.H.H.H.H.H.H.H.H."
};
