/* XPM */
static char *result[] = {
/* columns rows colors chars-per-pixel */
"42 42 28 1 ",
"  c #353033",
". c #322E30",
"X c #302C2E",
"o c #222121",
"O c #322D30",
"+ c #201F1F",
"@ c #242224",
"# c #302C2F",
"$ c #222021",
"% c #222122",
"& c #322E31",
"* c #242223",
"= c #2E2A2C",
"- c #332E31",
"; c #252324",
": c #242324",
"> c #342F32",
", c #343032",
"< c #232223",
"1 c #1D1C1C",
"2 c #1F1E1F",
"3 c #1D1D1D",
"4 c #1D1C1D",
"5 c #2B282A",
"6 c #2F2B2E",
"7 c #2D2A2C",
"8 c #212021",
"9 c white",
/* pixels */
" .         Xo.                  O+O .oX X+",
".@#       .$X                   .%&  #*=@X",
" X$&      .o&                    &.  -X*= ",
" &$X       -                     -;-&oO=*&",
"  #*X           -                 - .%X:# ",
"   X*-         &o.                   ->-  ",
"    -          X$.        -               ",
"              -*#        -*#              ",
"               -          X$.             ",
"                          &o.             ",
"                           -              ",
"        ..                                ",
"       -oo-                               ",
"        ..      ..                        ",
"               -oo-     -,-        -      ",
"                .O.    -@=@-     &X*-     ",
"                 -*X   ,=<#     -o$#      ",
"                  X*-  -@X&    .O..       ",
"                   -    -&;-  -o$#        ",
"                          -    &X*-       ",
"                                 -        ",
"                                          ",
"                                          ",
"        -                                 ",
"       .o.                       ..       ",
"       .o.                     &X$o-      ",
"        -                     #$$X&       ",
"                    -        -*X&         ",
"                  -&;-        -           ",
".&               -*X&               .OO...",
"12X&              X*#              -%++344",
"432%-              X*-              ..X214",
"..O.                -                  &..",
"                                          ",
"                                          ",
"                                 -        ",
"  -,-                           -;-     - ",
".X*=@-                           .&    .%.",
"+$5*X  ..   -                    &o&   .$6",
"O7*#  -o$# -*#                   X8X    #o",
"X*#    &X*# X$.                 .o7*#    .",
"+X       Xo&.+O                 O+OXo.    "
};
