/* XPM */
static char *result[] = {
/* columns rows colors chars-per-pixel */
"42 42 2 1 ",
"  c #FFFFFF",
". c #FFFFFF",
/* pixels */
"            .                    .   .   .",
" .         .                     .    . . ",
"  .        .                           .  ",
"  .                               .  .  . ",
"   .                                 . .  ",
"    .           .                         ",
"                .                         ",
"               .          .               ",
"                           .              ",
"                           .              ",
"                                          ",
"                                          ",
"        ..                                ",
"                                          ",
"                ..                        ",
"                        . .        .      ",
"                  .      .       ..       ",
"                   .    .                 ",
"                          .    ..         ",
"                                 .        ",
"                                          ",
"                                          ",
"                                          ",
"                                          ",
"        .                                 ",
"        .                        ..       ",
"                               ..         ",
"                              .           ",
"                    .                     ",
"                  .                       ",
"..                 .                ......",
"....                .                  ...",
"                                          ",
"                                          ",
"                                          ",
"                                          ",
"                                 .        ",
"  . .                                   . ",
".. .                              .     . ",
"  .    ..   .                     .      .",
" .       .   .                   . .      ",
".         .  .                   .  .     "
};
