/* XPM */
static char *result[] = {
/* columns rows colors chars-per-pixel */
"42 42 5 1 ",
"  c black",
". c #07000A",
"X c #1B191A",
"o c #1B0028",
"O c None",
/* pixels */
"OOOOOOOOOOOOOOOOOOOOOOOOOOOOOOOOOOOOOOOOOO",
"OOOOOOOOOOOOOOOOOOOOOOOOOOOOOOOOOOOOOOOOOO",
"OOOOOOOOOOOOOOOOOOOOOOOOOOOOOOOOOOOOOOOOOO",
"OOOOOOOOOOOOOOOOOOOOOOOOOOOOOOOOOOOOOOOOOO",
"OOOOOOOOOOOOOOOOOOOOOOOOOOOOOOOOOOOOOOOOOO",
"OOOOOOOOOOOOOOOOOOOOOOOOOOOOOOOOOOOOOOOOOO",
"OOOOOOOOOOOOOOOOOOOOOOOOOOOOOOOOOOOOOOOOOO",
"OOOOOOOOOOOOOOOOOOOOOOOOOOOOOOOOOOOOOOOOOO",
"OOOOOOOOOOOOOOOOOOOOOOOOOOOOOOOOOOOOOOOOOO",
"OOOOOOOOOOOOOOOOOOOOOOOOOOOOOOOOOOOOOOOOOO",
"OOOOOOOOOOOOOOOOOOOOOOOOOOOOOOOOOOOOOOOOOO",
"OOOOOOOOOOOOOOOOOOOOOOOOOOOOOOOOOOOOOOOOOO",
"OOOOOOOOOOOOOOOOOOOOOOOOOOOOOOOOOOOOOOOOOO",
"OOOOOOOOOOOOOOOOOOOOOOOOOOOOOOOOOOOOOOOOOO",
"OOOOOOOOOOOOOOOOOOOOOOOOOOOOOOOOOOOOOOOOOO",
"OOOOOOOOOOOOOOOOOOOOOOOOOOOOOOOOOOOOOOOOOO",
"OOOOOOOOOOOOOOOOOOOOOOOOOOOOOOOOOOOOOOOOOO",
"OOOOOOOOOOOOOOOOOOOOOOOOOOOOOOOOOOOOOOOOOO",
"OOOOOOOOOOOOOOOOOOOOOOOOOOOOOOOOOOOOOOOOOO",
"OOOOOOOOOOOOOOOOOOOOOOOOOOOOOOOOOOOOOOOOOO",
"OOOOOOOOOOOOOOOOOOOOOOOOOOOOOOOOOOOOOOOOOO",
"OOOOOOOOOOOOOOOOOOOOOOOOOOOOOOOOOOOOOOOOOO",
"OOOOOOOOOOOOOOOOOOOOOOOOOOOOOOOOOOOOOOOOOO",
"OOOOOOOOOOOOOOOOOOOOOOOOOOOOOOOOOOOOOOOOOO",
"OOOOOOOOOOOOOOOOOOOOOOOOOOOOOOOOOOOOOOOOOO",
"OOOOOOOOOOOOOOOOOOOOOOOOOOOOOOOOOOOOOOOOOO",
"OOOOOOOOOOOOOOOOOOOOOOOOOOOOOOOOOOOOOOOOOO",
"OOOOOOOOOOOOOOOOOOOOOOOOOOOOOOOOOOOOOOOOOO",
"OOOOOOOOOOO.....OOOOOOOOOOOOOOOOOOOOOOOOOO",
"..OOOOOOO..     .OOOOOOOOOOOOOOOOOOOOOOOOO",
"    ..   XXX   o .OOOOOOOOOOOOOOOOOOOOOOOO",
" o     XXXXXXX   .OOOOOOOOOOOOOOOOOOOOOOOO",
"XXXo oXXXXXXXX ..OOOOOOOOOOOOOOOOOOOOOOOOO",
"XXXXo  XXXXX     OOOOOOOOOOOOOOOOOOOOOOOOO",
"XXXXXXX XXX XXXX.OOOOOOOOOOOOOOOOOOOOOOOOO",
"XXXXXXXXX X  XXo.OOOOOOOOOOOOOOOOOOOOOOOOO",
"XXXXXXXXXX X X.o.OOOOOOOOOOOOOOOOOOOOOOOOO",
"XXXXXXXXXXX   o.OOOOOOOOOOOOOOOOOOOOOOOOOO",
"XXXXXXXXXXXX o.OOOOOOOOOOOOOOOOOOOOOOOOOOO",
"XXXXXXXXXXXX  ..OOOOOOOOOOOOOOOOOOOOOOOOOO",
"XXXXXXXXXXXXX   OOOOOOOOOOOOOOOOOOOOOOOOOO",
"XXXXXXXXXXXX   oOOOOOOOOOOOOOOOOOOOOOOOOOO"
};
