/* XPM */
static char *result[] = {
/* columns rows colors chars-per-pixel */
"42 42 20 1 ",
"  c #1B191A",
". c black",
"X c #17191A",
"o c #515151",
"O c #7E7E7E",
"+ c #393A3A",
"@ c #2A2A2A",
"# c #3F2D24",
"$ c #1E0F15",
"% c #351518",
"& c #734E40",
"* c #060607",
"= c #9C7151",
"- c #6F513B",
"; c gray53",
": c #2E211B",
"> c #52382F",
", c #3D2C24",
"< c #2C211B",
"1 c #221915",
/* pixels */
"            .                    .   .   .",
" .         .                     .    . . ",
"  .        .                           .  ",
"  .                               .  .  . ",
"   .                                 . .  ",
"    .           .                         ",
"     XX XXXXXXXXXXXXXXXXXXXXXXXX XX       ",
"    XooXoOoOXoOoOOoo+ooo++Xo+OOXXooX      ",
"    X++Xoo+oX+oo++++++++++X++ooXX++X      ",
"     XXX@XX@XXXXXXXXXXXXXXX+@XX@XXX       ",
"     X+@X##X$%%%%%%%%%%%%%$XX##X@oX       ",
"     XoX#&&#*$$$$$$$$$$$$$$*#&&#XoX       ",
"     XoX#&=#****************#=&#XoX       ",
"     XO@X#=##################=#X@+X       ",
"     XOoX##==================##X+oX       ",
"     Xo+X#-;----------------;-#X+oX.      ",
"     XOoX*::::::::::::::::::::*X+oX       ",
"     Xo+X*:&=:************:-&#*X+oX       ",
"     Xo+X**:-:************:-:**X++X       ",
"     X++X**::::::::::::::::::**X++X       ",
"     X++X**:>-;-----------;-:**X+oX       ",
"     Xo+X***::::::::::::::::***X+oX       ",
"     Xo+X***:>,:********:,,:***X+oX       ",
"     Xo+X****:,:********:,:****X+oX       ",
"     Xo+X*****:<<<<<<<<<<:*****X+oX       ",
"     Xo+X*****1<1******1<1*****X+oX       ",
"     X+oX******1********1******X+oX       ",
"     X+oX**********************X++X       ",
"     Xo+X**********************X+oX       ",
"     X+XX**********************X+oX       ",
"..   X+XX**********************X+oX ......",
".... Xo+X**********************X++X    ...",
"     Xo+X**********************X++X       ",
"     X+XX**********************X++X       ",
"     XXXXXXXXXXXXXXXXXXXXXXXXXXXXXX       ",
"    X+oXOoOoo++++o++ooooo+o+++++X+oX      ",
"    X++XX+o++XXXXXXX+++++++XXXoXX++X      ",
"  . .XXXXXXXXXXXXXXXXXXXXXXXXXXXXXX     . ",
".. .                              .     . ",
"  .    ..   .                     .      .",
" .       .   .                   . .      ",
".         .  .                   .  .     "
};
