/* XPM */
static char *result[] = {
/* columns rows colors chars-per-pixel */
"42 42 9 1 ",
"  c #1B191A",
". c black",
"X c #17191A",
"o c #515151",
"O c #7E7E7E",
"+ c #393A3A",
"@ c #532F2D",
"# c #351518",
"$ c #70443A",
/* pixels */
"            .                    .   .   .",
" .         .                     .    . . ",
"  .        .                           .  ",
"  .                               .  .  . ",
"   .                                 . .  ",
"    .           .                         ",
"     XX XXXXXXXXXXXXXXXXXXXXXXXX XX       ",
"    XooXoOoOXoOoOOoo+ooo++Xo+OOXXooX      ",
"    X++Xoo+oX+oo++++++++++X++ooXX++X      ",
"     XXX++++XXXXXXXXXXXXXXX++++XXXX       ",
"     X+oXXXX@@#@@@@#$@@@#@#XXXXX+oX       ",
"     Xo+X@@$$$#@$$@#$$$@@@#@@@@X+oX       ",
"     Xo+X@$$$$#@$$@#$$@$$@#@$$$X+oX       ",
"     XOoX@$$$$#@$$@#$$$$$@#@$$$X++X       ",
"     XOoX@$$$$#@$$@#$$$$$@#@$$$X+oX       ",
"     Xo+X@$$$@#@$$@#$$$$$@#@$$$X+oX.      ",
"     XOoX@$$$@#$$$$#$$$$$@#@$$$X+oX       ",
"     Xo+X@$$$@#$$$$#@$$$$@#@$$$X+oX       ",
"     Xo+X@$$$@#$$$$#@$$$$@#$$$$X++X       ",
"     X++X@$$$@#$$$$#@$$$$@#$$$$X++X       ",
"     X++X@$$$@#$$$$#@$$$$@#$$$$X+oX       ",
"     Xo+X@$$$@#$$$$#@$$$$@#$$$$X+oX       ",
"     Xo+X@$$$#@$$$$@#$$$$@#$$$$X+oX       ",
"     Xo+X@$$$#@$$$@XX@$$$@#$$$$X+oX       ",
"     Xo+X@$$$#@$$@XOOX@$$$#$$$$X+oX       ",
"     Xo+X@$$$#@$@XXooXX@$$#$$$$X+oX       ",
"     X+oX@$$$#@@XOX++XoX@$#@$$$X+oX       ",
"     X+oX@$$@#@XO+XXXX+oX@#@$$@X++X       ",
"     Xo+X@$$@#@XoX####X+X@#@$$$X+oX       ",
"     X+XX@$$@#$X+oX@#Xo+X@#@$$@X+oX       ",
"..   X+XX@$$@#$#X+OXXo+X#@#@$$@X+oX ......",
".... Xo+X@$$@#$@#X+O++X#$@#@$$@X++X    ...",
"     Xo+X@$$@#@$@#XXXX#@@@#@$$@X++X       ",
"     X+XX@@@@#@@@@@@@@@@@@#@@@@X++X       ",
"     XXXXXXXXXXXXXXXXXXXXXXXXXXXXXX       ",
"    X+oXOoOoo++++o++ooooo+o+++++X+oX      ",
"    X++XX+o++XXXXXXX+++++++XXXoXX++X      ",
"  . .XXXXXXXXXXXXXXXXXXXXXXXXXXXXXX     . ",
".. .                              .     . ",
"  .    ..   .                     .      .",
" .       .   .                   . .      ",
".         .  .                   .  .     "
};
