/* XPM */
static char *result[] = {
/* columns rows colors chars-per-pixel */
"42 42 13 1 ",
"  c black",
". c #030005",
"X c #060009",
"o c #07000A",
"O c #1A1819",
"+ c #1B181A",
"@ c #1B191A",
"# c #1A0026",
"$ c #1A0027",
"% c #1B0028",
"& c #27003B",
"* c #28003C",
"= c None",
/* pixels */
"@@@@@@@@@@o @@@@@@@@@@@ @@@@@@@@     ooo @",
"  @@@@@@@@@ @@@@@@@@@@ o@@@@@@@@@@%%o   @@",
"@@o@@@@@@@@ o@@@@@@@@+%%@@@@@@@%%%   %%*@@",
"@@@**@@@@@@  %@@@@@@@O&O@$X*%%%          @",
"                          &               ",
"                                          ",
"                           %%             ",
"          %%%%%      %   %# *%%%    %%*   ",
"%%%  %%%   *%%%%     %%%%%&  **%%%%%**    ",
" **%%%      ***%     ******    ******%%   ",
"                      **         **  %%%%%",
"                                      %%%%",
"                                          ",
"     %%%  %%                              ",
"  %%%%%%%%%%%   %%                       %",
" %%%%==%%%%%%%% %%%%                      ",
"%%=========%%%% %%%%%  %%$.       %%      ",
"===== ======*%=== %%* %%%%%%%%   %%%%     ",
" %%== ==    ==========%%%%%%%%%=%%%%* %%*=",
"%**=====*%%%%=======%==*** ***====**   ===",
"========***%%======%%====  **======= %%%==",
"=========***=======================%%%%%==",
"===================================****===",
"================================= ========",
"==========================================",
"==========================================",
"===================================== ====",
"==========================================",
"=============================%============",
"==========================================",
"==========================================",
"==========================================",
"==========================================",
"==========================================",
"==========================================",
"==========================================",
"==========================================",
"==========================================",
"==========================================",
"==========================================",
"==========================================",
"=========================================="
};
