/* XPM */
static char *result[] = {
/* columns rows colors chars-per-pixel */
"42 42 5 1 ",
"  c black",
". c #07000A",
"X c #1B191A",
"o c #1B0028",
"O c None",
/* pixels */
"OOOOOOOOOOOOOOOOOOOOOOOOOOOOOOOOOOOOOOOOOO",
"OOOOOOOOOOOOOOOOOOOOOOOOOOOOOOOOOOOOOOOOOO",
"OOOOOOOOOOOOOOOOOOOOOOOOOOOOOOOOOOOOOOOOOO",
"OOOOOOOOOOOOOOOOOOOOOOOOOOOOOOOOOOOOOOOOOO",
"OOOOOOOOOOOOOOOOOOOOOOOOOOOOOOOOOOOOOOOOOO",
"OOOOOOOOOOOOOOOOOOOOOOOOOOOOOOOOOOOOOOOOOO",
"OOOOOOOOOOOOOOOOOOOOOOOOOOOOOOOOOOOOOOOOOO",
"OOOOOOOOOOOOOOOOOOOOOOOOOOOOOOOOOOOOOOOOOO",
"OOOOOOOOOOOOOOOOOOOOOOOOOOOOOOOOOOOOOOOOOO",
"OOOOOOOOOOOOOOOOOOOOOOOOOOOOOOOOOOOOOOOOOO",
"OOOOOOOOOOOOOOOOOOOOOOOOOOOOOOOOOOOOOOOOOO",
"OOOOOOOOOOOOOOOOOOOOOOOOOOOOOOOOOOOOOOOOOO",
"OOOOOOOOOOOOOOOOOOOOOOOOOOOOOOOOOOOOOOOOOO",
"OOOOOOOOOOOOOOOOOOOOOOOOOOOOOOOOOOOOOOOOOO",
"OOOOOOOOOOOOOOOOOOOOOOOOOOOOOOOOOOOOOOOOOO",
"OOOOOOOOOOOOOOOOOOOOOOOOOOOOOOOOOOOOOOOOOO",
"OOOOOOOOOOOOOOOOOOOOOOOOOOOOOOOOOOOOOOOOOO",
"OOOOOOOOOOOOOOOOOOOOOOOOOOOOOOOOOOOOOOOOOO",
"OOOOOOOOOOOOOOOOOOOOOOOOOOOOOOOOOOOOOOOOOO",
"OOOOOOOOOOOOOOOOOOOOOOOOOOOOOOOOOOOOOOOOOO",
"OOOOOOOOOOOOOOOOOOOOOOOOOOOOOOOOOOOOOOOOOO",
"OOOOOOOOOOOOOOOOOOOOOOOOOOOOOOOOOOOOOOOOOO",
"OOOOOOOOOOOOOOOOOOOOOOOOOOOOOOOOOOOOOOOOOO",
"OOOOOOOOOOOOOOOOOOOOOOOOOOOOOOOOOOOOOOOOOO",
"OOOOOOOOOOOOOOOOOOOOOOOOOOOOOOOOOOOOOOOOOO",
"OOOOOOOOOOOOOOOOOOOOOOOOOOOOOOOOOOOOOOOOOO",
"OOOOOOOOOOOOOOOOOOOOOOOOOOOOOOOOOOOOOOOOOO",
"OOOOOOOOOOOOOOOOOOOOOOOOOOOOOOOOOOOOOOOOOO",
"OOOOOOOOOOOOOOOOOOOOOOOOOOOOOOO...     .OO",
".......OOO.OOOOOOOOOOOOOO......          .",
"   X XXX        .....     ooooooooXXXXXXXo",
"XXXXXXXXXXXXXX        ooooXXXXXXXXXXXXXXXX",
"XXXXXXXXXXXXXXXXXX XXXXXXooooXXXXXXXXXXXXX",
"XXXXXXXXXXXXXXXXX  XXXXXXXXXXooooXXXXXXXXX",
"XXXXXXXXXXXXXXX  XXXXXXXXXXXXXXXXXoXXXXXXX",
"XXXXXXXXXXXXXX  XXXXXXXXXXXXXXXXXXXXXXXXXX",
"XXXXXX XXXX  X XXXXXXXXXXXXX oooXXXXXXXXXX",
"XX XXX XXXXXXXXXXXXXXXXXXXX oXXXXXXX XXXXX",
"XXXXXXXXXXXXX XXXXXXXXXX ooXXXXXXXXX  XXXX",
"XXXXXXXXXXXXXXXXXXXXXX oXXXXXXXXXXXX X XXX",
"XXXXXXXXXXXXXXXXXXXXooXXXXXXXXXXXXXX   XXX",
"XXXXXXXXXXXX XXX  ooXXXXXXXXXXXXX XX X XXX"
};
