/* XPM */
static char *result[] = {
/* columns rows colors chars-per-pixel */
"42 42 5 1 ",
"  c black",
". c #07000A",
"X c #1B191A",
"o c #1B0028",
"O c None",
/* pixels */
"OOOOOOOOOOOOOOOOOOOOOOOOOOO. XXXXXXXXXXXXX",
"OOOOOOOOOOOOOOOOOOOOOOOOOOOo.XXXXXXXXXXXXX",
"OOOOOOOOOOOOOOOOOOOOOOOOOOOo. XXXXXXXXXXXX",
"OOOOOOOOOOOOOOOOOOOOOOOOOOOOo.XXXXXXXXXXXX",
"OOOOOOOOOOOOOOOOOOOOOOOOOOOOo XXXXXXXXXXXX",
"OOOOOOOOOOOOOOOOOOOOOOOOOOOOo.XXXXXXXXXXXX",
"OOOOOOOOOOOOOOOOOOOOOOOOOOOOo. XXXXXXXXXXX",
"OOOOOOOOOOOOOOOOOOOOOOOOOOOOo. XXXXXXXXXXX",
"OOOOOOOOOOOOOOOOOOOOOOOOOOOO. . XXXXXXXXXX",
"OOOOOOOOOOOOOOOOOOOOOOOOOOO.      XXXXXXXX",
"OOOOOOOOOOOOOOOOOOOOOOOOOOO    .   XXooXXX",
"OOOOOOOOOOOOOOOOOOOOOOOOOOOX X X.   o  oXX",
"OOOOOOOOOOOOOOOOOOOOOOOOOOOXXXX .   XXX oX",
"OOOOOOOOOOOOOOOOOOOOOOOOOOOXXXXX.  XXXXX o",
"OOOOOOOOOOOOOOOOOOOOOOOOOOO.  XX. XXXXXXXX",
"OOOOOOOOOOOOOOOOOOOOOOOOOOO. XXX. oXXXXXXX",
"OOOOOOOOOOOOOOOOOOOOOOOOOOO. XXX. oXXXXXXX",
"OOOOOOOOOOOOOOOOOOOOOOOOOOOO.XX.  ooXXXXXX",
"OOOOOOOOOOOOOOOOOOOOOOOOOOOOO..   XXoXXXXX",
"OOOOOOOOOOOOOOOOOOOOOOOOOOOOOOO. XXX oXXXX",
"OOOOOOOOOOOOOOOOOOOOOOOOOOOOOOO  XXX  ooXX",
"OOOOOOOOOOOOOOOOOOOOOOOOOOOOOO. XXXXXXXX X",
"OOOOOOOOOOOOOOOOOOOOOOOOOOOOOO.  XXXXXXX o",
"OOOOOOOOOOOOOOOOOOOOOOOOOOOOOO.oooXXXXXXXX",
"OOOOOOOOOOOOOOOOOOOOOOOOOOOOOO.  oooXXXXXX",
"OOOOOOOOOOOOOOOOOOOOOOOOOOOOOOO.    XXXXXX",
"OOOOOOOOOOOOOOOOOOOOOOOOOOOOOOO .   oooXXX",
"OOOOOOOOOOOOOOOOOOOOOOOOOOOOOO.    X   ooX",
"OOOOOOOOOOOOOOOOOOOOOOOOOOOOOO.XXXXXXXXXX ",
"OOOOOOOOOOOOOOOOOOOOOOOOOOOOOO.XXXXXXXXXXX",
"OOOOOOOOOOOOOOOOOOOOOOOOOOOOOOO.XXXXXXXXXX",
"OOOOOOOOOOOOOOOOOOOOOOOOOOOOOOO..XXXXXXXXX",
"OOOOOOOOOOOOOOOOOOOOOOOOOOOOOOOOOO  XXXXXX",
"OOOOOOOOOOOOOOOOOOOOOOOOOOOOOOOO..  oXXXXX",
"OOOOOOOOOOOOOOOOOOOOOOOOOOOOOOO.     ooooX",
"OOOOOOOOOOOOOOOOOOOOOOOOOOOOOOO.  XX   ooX",
"OOOOOOOOOOOOOOOOOOOOOOOOOOOOOOO  XXXX..  o",
"OOOOOOOOOOOOOOOOOOOOOOOOOOOOO  XXXXXXXXXX.",
"OOOOOOOOOOOOOOOOOOOOOOOOOOOO  XXXXXXXXXXXX",
"OOOOOOOOOOOOOOOOOOOOOOOOOOO  XXXXXXX..XXX.",
"OOOOOOOOOOOOOOOOOOOOOOOOOOO XXXXXXXXXX...X",
"OOOOOOOOOOOOOOOOOOOOOOOOOOO XXXXXXXXXXXXXX"
};
