/* XPM */
static char *result[] = {
/* columns rows colors chars-per-pixel */
"84 84 8 1 ",
"  c #17191A",
". c #351518",
"X c #393A3A",
"o c #532F2D",
"O c #70443A",
"+ c #515151",
"@ c #7E7E7E",
"# c None",
/* pixels */
"####################################################################################",
"####################################################################################",
"####################################################################################",
"####################################################################################",
"####################################################################################",
"####################################################################################",
"####################################################################################",
"####################################################################################",
"####################################################################################",
"####################################################################################",
"####################################################################################",
"####################################################################################",
"##########    ##                                                ##    ##############",
"##########    ##                                                ##    ##############",
"########  ++++  ++@@++@@  ++@@++@@@@++++XX++++++XXXX  ++XX@@@@    ++++  ############",
"########  ++++  ++@@++@@  ++@@++@@@@++++XX++++++XXXX  ++XX@@@@    ++++  ############",
"########  XXXX  ++++XX++  XX++++XXXXXXXXXXXXXXXXXXXX  XXXX++++    XXXX  ############",
"########  XXXX  ++++XX++  XX++++XXXXXXXXXXXXXXXXXXXX  XXXX++++    XXXX  ############",
"##########      XXXXXXXX                              XXXXXXXX        ##############",
"##########      XXXXXXXX                              XXXXXXXX        ##############",
"##########  XX++        oooo..oooooooo..OOoooooo..oo..          XX++  ##############",
"##########  XX++        oooo..oooooooo..OOoooooo..oo..          XX++  ##############",
"##########  ++XX  ooooOOOOOO..ooOOOOoo..OOOOOOoooooo..oooooooo  XX++  ##############",
"##########  ++XX  ooooOOOOOO..ooOOOOoo..OOOOOOoooooo..oooooooo  XX++  ##############",
"##########  ++XX  ooOOOOOOOO..ooOOOOoo..OOOOooOOOOoo..ooOOOOOO  XX++  ##############",
"##########  ++XX  ooOOOOOOOO..ooOOOOoo..OOOOooOOOOoo..ooOOOOOO  XX++  ##############",
"##########  @@++  ooOOOOOOOO..ooOOOOoo..OOOOOOOOOOoo..ooOOOOOO  XXXX  ##############",
"##########  @@++  ooOOOOOOOO..ooOOOOoo..OOOOOOOOOOoo..ooOOOOOO  XXXX  ##############",
"##########  @@++  ooOOOOOOOO..ooOOOOoo..OOOOOOOOOOoo..ooOOOOOO  XX++  ##############",
"##########  @@++  ooOOOOOOOO..ooOOOOoo..OOOOOOOOOOoo..ooOOOOOO  XX++  ##############",
"##########  ++XX  ooOOOOOOoo..ooOOOOoo..OOOOOOOOOOoo..ooOOOOOO  XX++  ##############",
"##########  ++XX  ooOOOOOOoo..ooOOOOoo..OOOOOOOOOOoo..ooOOOOOO  XX++  ##############",
"##########  @@++  ooOOOOOOoo..OOOOOOOO..OOOOOOOOOOoo..ooOOOOOO  XX++  ##############",
"##########  @@++  ooOOOOOOoo..OOOOOOOO..OOOOOOOOOOoo..ooOOOOOO  XX++  ##############",
"##########  ++XX  ooOOOOOOoo..OOOOOOOO..ooOOOOOOOOoo..ooOOOOOO  XX++  ##############",
"##########  ++XX  ooOOOOOOoo..OOOOOOOO..ooOOOOOOOOoo..ooOOOOOO  XX++  ##############",
"##########  ++XX  ooOOOOOOoo..OOOOOOOO..ooOOOOOOOOoo..OOOOOOOO  XXXX  ##############",
"##########  ++XX  ooOOOOOOoo..OOOOOOOO..ooOOOOOOOOoo..OOOOOOOO  XXXX  ##############",
"##########  XXXX  ooOOOOOOoo..OOOOOOOO..ooOOOOOOOOoo..OOOOOOOO  XXXX  ##############",
"##########  XXXX  ooOOOOOOoo..OOOOOOOO..ooOOOOOOOOoo..OOOOOOOO  XXXX  ##############",
"##########  XXXX  ooOOOOOOoo..OOOOOOOO..ooOOOOOOOOoo..OOOOOOOO  XX++  ##############",
"##########  XXXX  ooOOOOOOoo..OOOOOOOO..ooOOOOOOOOoo..OOOOOOOO  XX++  ##############",
"##########  ++XX  ooOOOOOOoo..OOOOOOOO..ooOOOOOOOOoo..OOOOOOOO  XX++  ##############",
"##########  ++XX  ooOOOOOOoo..OOOOOOOO..ooOOOOOOOOoo..OOOOOOOO  XX++  ##############",
"##########  ++XX  ooOOOOOO..ooOOOOOOOOoo..OOOOOOOOoo..OOOOOOOO  XX++  ##############",
"##########  ++XX  ooOOOOOO..ooOOOOOOOOoo..OOOOOOOOoo..OOOOOOOO  XX++  ##############",
"##########  ++XX  ooOOOOOO..ooOOOOOOoo    ooOOOOOOoo..OOOOOOOO  XX++  ##############",
"##########  ++XX  ooOOOOOO..ooOOOOOOoo    ooOOOOOOoo..OOOOOOOO  XX++  ##############",
"##########  ++XX  ooOOOOOO..ooOOOOoo  @@@@  ooOOOOOO..OOOOOOOO  XX++  ##############",
"##########  ++XX  ooOOOOOO..ooOOOOoo  @@@@  ooOOOOOO..OOOOOOOO  XX++  ##############",
"##########  ++XX  ooOOOOOO..ooOOoo    ++++    ooOOOO..OOOOOOOO  XX++  ##############",
"##########  ++XX  ooOOOOOO..ooOOoo    ++++    ooOOOO..OOOOOOOO  XX++  ##############",
"##########  XX++  ooOOOOOO..oooo  @@  XXXX  ++  ooOO..ooOOOOOO  XX++  ##############",
"##########  XX++  ooOOOOOO..oooo  @@  XXXX  ++  ooOO..ooOOOOOO  XX++  ##############",
"##########  XX++  ooOOOOoo..oo  @@XX        XX++  oo..ooOOOOoo  XXXX  ##############",
"##########  XX++  ooOOOOoo..oo  @@XX        XX++  oo..ooOOOOoo  XXXX  ##############",
"##########  ++XX  ooOOOOoo..oo  ++  ........  XX  oo..ooOOOOOO  XX++  ##############",
"##########  ++XX  ooOOOOoo..oo  ++  ........  XX  oo..ooOOOOOO  XX++  ##############",
"##########  XX    ooOOOOoo..OO  XX++  oo..  ++XX  oo..ooOOOOoo  XX++  ##############",
"##########  XX    ooOOOOoo..OO  XX++  oo..  ++XX  oo..ooOOOOoo  XX++  ##############",
"##########  XX    ooOOOOoo..OO..  XX@@    ++XX  ..oo..ooOOOOoo  XX++  ##############",
"##########  XX    ooOOOOoo..OO..  XX@@    ++XX  ..oo..ooOOOOoo  XX++  ##############",
"##########  ++XX  ooOOOOoo..OOoo..  XX@@XXXX  ..OOoo..ooOOOOoo  XXXX  ##############",
"##########  ++XX  ooOOOOoo..OOoo..  XX@@XXXX  ..OOoo..ooOOOOoo  XXXX  ##############",
"##########  ++XX  ooOOOOoo..ooOOoo..        ..oooooo..ooOOOOoo  XXXX  ##############",
"##########  ++XX  ooOOOOoo..ooOOoo..        ..oooooo..ooOOOOoo  XXXX  ##############",
"##########  XX    oooooooo..oooooooooooooooooooooooo..oooooooo  XXXX  ##############",
"##########  XX    oooooooo..oooooooooooooooooooooooo..oooooooo  XXXX  ##############",
"##########                                                            ##############",
"##########                                                            ##############",
"########  XX++  @@++@@++++XXXXXXXX++XXXX++++++++++XX++XXXXXXXXXX  XX++  ############",
"########  XX++  @@++@@++++XXXXXXXX++XXXX++++++++++XX++XXXXXXXXXX  XX++  ############",
"########  XXXX    XX++XXXX              XXXXXXXXXXXXXX      ++    XXXX  ############",
"########  XXXX    XX++XXXX              XXXXXXXXXXXXXX      ++    XXXX  ############",
"##########    ##                                                ##    ##############",
"##########    ##                                                ##    ##############",
"####################################################################################",
"####################################################################################",
"####################################################################################",
"####################################################################################",
"####################################################################################",
"####################################################################################",
"####################################################################################",
"####################################################################################"
};
