/* XPM */
static char *result[] = {
/* columns rows colors chars-per-pixel */
"84 84 19 1 ",
"  c #060607",
". c #1E0F15",
"X c #17191A",
"o c #221915",
"O c #351518",
"+ c #2C211B",
"@ c #2E211B",
"# c #2A2A2A",
"$ c #3D2C24",
"% c #3F2D24",
"& c #393A3A",
"* c #52382F",
"= c #6F513B",
"- c #515151",
"; c #734E40",
": c #7E7E7E",
"> c #9C7151",
", c gray53",
"< c None",
/* pixels */
"<<<<<<<<<<<<<<<<<<<<<<<<<<<<<<<<<<<<<<<<<<<<<<<<<<<<<<<<<<<<<<<<<<<<<<<<<<<<<<<<<<<<",
"<<<<<<<<<<<<<<<<<<<<<<<<<<<<<<<<<<<<<<<<<<<<<<<<<<<<<<<<<<<<<<<<<<<<<<<<<<<<<<<<<<<<",
"<<<<<<<<<<<<<<<<<<<<<<<<<<<<<<<<<<<<<<<<<<<<<<<<<<<<<<<<<<<<<<<<<<<<<<<<<<<<<<<<<<<<",
"<<<<<<<<<<<<<<<<<<<<<<<<<<<<<<<<<<<<<<<<<<<<<<<<<<<<<<<<<<<<<<<<<<<<<<<<<<<<<<<<<<<<",
"<<<<<<<<<<<<<<<<<<<<<<<<<<<<<<<<<<<<<<<<<<<<<<<<<<<<<<<<<<<<<<<<<<<<<<<<<<<<<<<<<<<<",
"<<<<<<<<<<<<<<<<<<<<<<<<<<<<<<<<<<<<<<<<<<<<<<<<<<<<<<<<<<<<<<<<<<<<<<<<<<<<<<<<<<<<",
"<<<<<<<<<<<<<<<<<<<<<<<<<<<<<<<<<<<<<<<<<<<<<<<<<<<<<<<<<<<<<<<<<<<<<<<<<<<<<<<<<<<<",
"<<<<<<<<<<<<<<<<<<<<<<<<<<<<<<<<<<<<<<<<<<<<<<<<<<<<<<<<<<<<<<<<<<<<<<<<<<<<<<<<<<<<",
"<<<<<<<<<<<<<<<<<<<<<<<<<<<<<<<<<<<<<<<<<<<<<<<<<<<<<<<<<<<<<<<<<<<<<<<<<<<<<<<<<<<<",
"<<<<<<<<<<<<<<<<<<<<<<<<<<<<<<<<<<<<<<<<<<<<<<<<<<<<<<<<<<<<<<<<<<<<<<<<<<<<<<<<<<<<",
"<<<<<<<<<<<<<<<<<<<<<<<<<<<<<<<<<<<<<<<<<<<<<<<<<<<<<<<<<<<<<<<<<<<<<<<<<<<<<<<<<<<<",
"<<<<<<<<<<<<<<<<<<<<<<<<<<<<<<<<<<<<<<<<<<<<<<<<<<<<<<<<<<<<<<<<<<<<<<<<<<<<<<<<<<<<",
"<<<<<<<<<<XXXX<<XXXXXXXXXXXXXXXXXXXXXXXXXXXXXXXXXXXXXXXXXXXXXXXX<<XXXX<<<<<<<<<<<<<<",
"<<<<<<<<<<XXXX<<XXXXXXXXXXXXXXXXXXXXXXXXXXXXXXXXXXXXXXXXXXXXXXXX<<XXXX<<<<<<<<<<<<<<",
"<<<<<<<<XX----XX--::--::XX--::--::::----&&------&&&&XX--&&::::XXXX----XX<<<<<<<<<<<<",
"<<<<<<<<XX----XX--::--::XX--::--::::----&&------&&&&XX--&&::::XXXX----XX<<<<<<<<<<<<",
"<<<<<<<<XX&&&&XX----&&--XX&&----&&&&&&&&&&&&&&&&&&&&XX&&&&----XXXX&&&&XX<<<<<<<<<<<<",
"<<<<<<<<XX&&&&XX----&&--XX&&----&&&&&&&&&&&&&&&&&&&&XX&&&&----XXXX&&&&XX<<<<<<<<<<<<",
"<<<<<<<<<<XXXXXX##XXXX##XXXXXXXXXXXXXXXXXXXXXXXXXXXXXX&&##XXXX##XXXXXX<<<<<<<<<<<<<<",
"<<<<<<<<<<XXXXXX##XXXX##XXXXXXXXXXXXXXXXXXXXXXXXXXXXXX&&##XXXX##XXXXXX<<<<<<<<<<<<<<",
"<<<<<<<<<<XX&&##XX%%%%XX..OOOOOOOOOOOOOOOOOOOOOOOOOO..XXXX%%%%XX##--XX<<<<<<<<<<<<<<",
"<<<<<<<<<<XX&&##XX%%%%XX..OOOOOOOOOOOOOOOOOOOOOOOOOO..XXXX%%%%XX##--XX<<<<<<<<<<<<<<",
"<<<<<<<<<<XX--XX%%;;;;%%  ............................  %%;;;;%%XX--XX<<<<<<<<<<<<<<",
"<<<<<<<<<<XX--XX%%;;;;%%  ............................  %%;;;;%%XX--XX<<<<<<<<<<<<<<",
"<<<<<<<<<<XX--XX%%;;>>%%                                %%>>;;%%XX--XX<<<<<<<<<<<<<<",
"<<<<<<<<<<XX--XX%%;;>>%%                                %%>>;;%%XX--XX<<<<<<<<<<<<<<",
"<<<<<<<<<<XX::##XX%%>>%%%%%%%%%%%%%%%%%%%%%%%%%%%%%%%%%%%%>>%%XX##&&XX<<<<<<<<<<<<<<",
"<<<<<<<<<<XX::##XX%%>>%%%%%%%%%%%%%%%%%%%%%%%%%%%%%%%%%%%%>>%%XX##&&XX<<<<<<<<<<<<<<",
"<<<<<<<<<<XX::--XX%%%%>>>>>>>>>>>>>>>>>>>>>>>>>>>>>>>>>>>>%%%%XX&&--XX<<<<<<<<<<<<<<",
"<<<<<<<<<<XX::--XX%%%%>>>>>>>>>>>>>>>>>>>>>>>>>>>>>>>>>>>>%%%%XX&&--XX<<<<<<<<<<<<<<",
"<<<<<<<<<<XX--&&XX%%==,,================================,,==%%XX&&--XX<<<<<<<<<<<<<<",
"<<<<<<<<<<XX--&&XX%%==,,================================,,==%%XX&&--XX<<<<<<<<<<<<<<",
"<<<<<<<<<<XX::--XX  @@@@@@@@@@@@@@@@@@@@@@@@@@@@@@@@@@@@@@@@  XX&&--XX<<<<<<<<<<<<<<",
"<<<<<<<<<<XX::--XX  @@@@@@@@@@@@@@@@@@@@@@@@@@@@@@@@@@@@@@@@  XX&&--XX<<<<<<<<<<<<<<",
"<<<<<<<<<<XX--&&XX  @@;;>>@@                        @@==;;%%  XX&&--XX<<<<<<<<<<<<<<",
"<<<<<<<<<<XX--&&XX  @@;;>>@@                        @@==;;%%  XX&&--XX<<<<<<<<<<<<<<",
"<<<<<<<<<<XX--&&XX    @@==@@                        @@==@@    XX&&&&XX<<<<<<<<<<<<<<",
"<<<<<<<<<<XX--&&XX    @@==@@                        @@==@@    XX&&&&XX<<<<<<<<<<<<<<",
"<<<<<<<<<<XX&&&&XX    @@@@@@@@@@@@@@@@@@@@@@@@@@@@@@@@@@@@    XX&&&&XX<<<<<<<<<<<<<<",
"<<<<<<<<<<XX&&&&XX    @@@@@@@@@@@@@@@@@@@@@@@@@@@@@@@@@@@@    XX&&&&XX<<<<<<<<<<<<<<",
"<<<<<<<<<<XX&&&&XX    @@**==,,======================,,==@@    XX&&--XX<<<<<<<<<<<<<<",
"<<<<<<<<<<XX&&&&XX    @@**==,,======================,,==@@    XX&&--XX<<<<<<<<<<<<<<",
"<<<<<<<<<<XX--&&XX      @@@@@@@@@@@@@@@@@@@@@@@@@@@@@@@@      XX&&--XX<<<<<<<<<<<<<<",
"<<<<<<<<<<XX--&&XX      @@@@@@@@@@@@@@@@@@@@@@@@@@@@@@@@      XX&&--XX<<<<<<<<<<<<<<",
"<<<<<<<<<<XX--&&XX      @@**$$@@                @@$$$$@@      XX&&--XX<<<<<<<<<<<<<<",
"<<<<<<<<<<XX--&&XX      @@**$$@@                @@$$$$@@      XX&&--XX<<<<<<<<<<<<<<",
"<<<<<<<<<<XX--&&XX        @@$$@@                @@$$@@        XX&&--XX<<<<<<<<<<<<<<",
"<<<<<<<<<<XX--&&XX        @@$$@@                @@$$@@        XX&&--XX<<<<<<<<<<<<<<",
"<<<<<<<<<<XX--&&XX          @@++++++++++++++++++++@@          XX&&--XX<<<<<<<<<<<<<<",
"<<<<<<<<<<XX--&&XX          @@++++++++++++++++++++@@          XX&&--XX<<<<<<<<<<<<<<",
"<<<<<<<<<<XX--&&XX          oo++oo            oo++oo          XX&&--XX<<<<<<<<<<<<<<",
"<<<<<<<<<<XX--&&XX          oo++oo            oo++oo          XX&&--XX<<<<<<<<<<<<<<",
"<<<<<<<<<<XX&&--XX            oo                oo            XX&&--XX<<<<<<<<<<<<<<",
"<<<<<<<<<<XX&&--XX            oo                oo            XX&&--XX<<<<<<<<<<<<<<",
"<<<<<<<<<<XX&&--XX                                            XX&&&&XX<<<<<<<<<<<<<<",
"<<<<<<<<<<XX&&--XX                                            XX&&&&XX<<<<<<<<<<<<<<",
"<<<<<<<<<<XX--&&XX                                            XX&&--XX<<<<<<<<<<<<<<",
"<<<<<<<<<<XX--&&XX                                            XX&&--XX<<<<<<<<<<<<<<",
"<<<<<<<<<<XX&&XXXX                                            XX&&--XX<<<<<<<<<<<<<<",
"<<<<<<<<<<XX&&XXXX                                            XX&&--XX<<<<<<<<<<<<<<",
"<<<<<<<<<<XX&&XXXX                                            XX&&--XX<<<<<<<<<<<<<<",
"<<<<<<<<<<XX&&XXXX                                            XX&&--XX<<<<<<<<<<<<<<",
"<<<<<<<<<<XX--&&XX                                            XX&&&&XX<<<<<<<<<<<<<<",
"<<<<<<<<<<XX--&&XX                                            XX&&&&XX<<<<<<<<<<<<<<",
"<<<<<<<<<<XX--&&XX                                            XX&&&&XX<<<<<<<<<<<<<<",
"<<<<<<<<<<XX--&&XX                                            XX&&&&XX<<<<<<<<<<<<<<",
"<<<<<<<<<<XX&&XXXX                                            XX&&&&XX<<<<<<<<<<<<<<",
"<<<<<<<<<<XX&&XXXX                                            XX&&&&XX<<<<<<<<<<<<<<",
"<<<<<<<<<<XXXXXXXXXXXXXXXXXXXXXXXXXXXXXXXXXXXXXXXXXXXXXXXXXXXXXXXXXXXX<<<<<<<<<<<<<<",
"<<<<<<<<<<XXXXXXXXXXXXXXXXXXXXXXXXXXXXXXXXXXXXXXXXXXXXXXXXXXXXXXXXXXXX<<<<<<<<<<<<<<",
"<<<<<<<<XX&&--XX::--::----&&&&&&&&--&&&&----------&&--&&&&&&&&&&XX&&--XX<<<<<<<<<<<<",
"<<<<<<<<XX&&--XX::--::----&&&&&&&&--&&&&----------&&--&&&&&&&&&&XX&&--XX<<<<<<<<<<<<",
"<<<<<<<<XX&&&&XXXX&&--&&&&XXXXXXXXXXXXXX&&&&&&&&&&&&&&XXXXXX--XXXX&&&&XX<<<<<<<<<<<<",
"<<<<<<<<XX&&&&XXXX&&--&&&&XXXXXXXXXXXXXX&&&&&&&&&&&&&&XXXXXX--XXXX&&&&XX<<<<<<<<<<<<",
"<<<<<<<<<<XXXX<<XXXXXXXXXXXXXXXXXXXXXXXXXXXXXXXXXXXXXXXXXXXXXXXX<<XXXX<<<<<<<<<<<<<<",
"<<<<<<<<<<XXXX<<XXXXXXXXXXXXXXXXXXXXXXXXXXXXXXXXXXXXXXXXXXXXXXXX<<XXXX<<<<<<<<<<<<<<",
"<<<<<<<<<<<<<<<<<<<<<<<<<<<<<<<<<<<<<<<<<<<<<<<<<<<<<<<<<<<<<<<<<<<<<<<<<<<<<<<<<<<<",
"<<<<<<<<<<<<<<<<<<<<<<<<<<<<<<<<<<<<<<<<<<<<<<<<<<<<<<<<<<<<<<<<<<<<<<<<<<<<<<<<<<<<",
"<<<<<<<<<<<<<<<<<<<<<<<<<<<<<<<<<<<<<<<<<<<<<<<<<<<<<<<<<<<<<<<<<<<<<<<<<<<<<<<<<<<<",
"<<<<<<<<<<<<<<<<<<<<<<<<<<<<<<<<<<<<<<<<<<<<<<<<<<<<<<<<<<<<<<<<<<<<<<<<<<<<<<<<<<<<",
"<<<<<<<<<<<<<<<<<<<<<<<<<<<<<<<<<<<<<<<<<<<<<<<<<<<<<<<<<<<<<<<<<<<<<<<<<<<<<<<<<<<<",
"<<<<<<<<<<<<<<<<<<<<<<<<<<<<<<<<<<<<<<<<<<<<<<<<<<<<<<<<<<<<<<<<<<<<<<<<<<<<<<<<<<<<",
"<<<<<<<<<<<<<<<<<<<<<<<<<<<<<<<<<<<<<<<<<<<<<<<<<<<<<<<<<<<<<<<<<<<<<<<<<<<<<<<<<<<<",
"<<<<<<<<<<<<<<<<<<<<<<<<<<<<<<<<<<<<<<<<<<<<<<<<<<<<<<<<<<<<<<<<<<<<<<<<<<<<<<<<<<<<"
};
