/* XPM */
static char *result[] = {
/* columns rows colors chars-per-pixel */
"84 84 6 1 ",
"  c gray10",
". c #271A2F",
"X c #353033",
"o c #4F1A73",
"O c #671A9F",
"+ c None",
/* pixels */
"XXXXXXXXXXXX..  XXXXXXXXXXXXXX++++++++++++++++++++++++++++++++++++++++++++++++++++++",
"XXXXXXXXXXXX..  XXXXXXXXXXXXXX++++++++++++++++++++++++++++++++++++++++++++++++++++++",
"XXXXXX        ....XXXXXXXXXXoo++++++++++++++++++++++++++++++++++++++++++++++++++++++",
"XXXXXX        ....XXXXXXXXXXoo++++++++++++++++++++++++++++++++++++++++++++++++++++++",
"XXXXXXXXXX  ..XXXXooXXXXXXOO  ++++++++++++++++++++++++++++++++++++++++++++++++++++++",
"XXXXXXXXXX  ..XXXXooXXXXXXOO  ++++++++++++++++++++++++++++++++++++++++++++++++++++++",
"XXXXXXXXXX  ..XXXXooXXXXXXOO  ++++++++++++++++++++++++++++++++++++++++++++++++++++++",
"XXXXXXXXXX  ..XXXXooXXXXXXOO  ++++++++++++++++++++++++++++++++++++++++++++++++++++++",
"XXXXXXXXXXXXXXXXXXXXOOOOOO  ++++++++++++++++++++++++++++++++++++++++++++++++++++++++",
"XXXXXXXXXXXXXXXXXXXXOOOOOO  ++++++++++++++++++++++++++++++++++++++++++++++++++++++++",
"    OOXXXXXXOOOOOO    oooo++++++++++++++++++++++++++++++++++++++++++++++++++++++++++",
"    OOXXXXXXOOOOOO    oooo++++++++++++++++++++++++++++++++++++++++++++++++++++++++++",
"      OOOOOO        oo    ++++++++++++++++++++++++++++++++++++++++++++++++++++++++++",
"      OOOOOO        oo    ++++++++++++++++++++++++++++++++++++++++++++++++++++++++++",
"                oooooo++++++++++++++++++++++++++++++++++++++++++++++++++++++++++++++",
"                oooooo++++++++++++++++++++++++++++++++++++++++++++++++++++++++++++++",
"              oooooooo++++++++++++++++++++++++++++++++++++++++++++++++++++++++++++++",
"              oooooooo++++++++++++++++++++++++++++++++++++++++++++++++++++++++++++++",
"              oooooooo++++++++++++++++++++++++++++++++++++++++++++++++++++++++++++++",
"              oooooooo++++++++++++++++++++++++++++++++++++++++++++++++++++++++++++++",
"          oooooo    ++++++++++++++++++++++++++++++++++++++++++++++++++++++++++++++++",
"          oooooo    ++++++++++++++++++++++++++++++++++++++++++++++++++++++++++++++++",
"                  ++++++++++++++++++++++++++++++++++++++++++++++++++++++++++++++++++",
"                  ++++++++++++++++++++++++++++++++++++++++++++++++++++++++++++++++++",
"              oooo++++++++++++++++++++++++++++++++++++++++++++++++++++++++++++++++++",
"              oooo++++++++++++++++++++++++++++++++++++++++++++++++++++++++++++++++++",
"        oo  ooOO++++++++++++++++++++++++++++++++++++++++++++++++++++++++++++++++++++",
"        oo  ooOO++++++++++++++++++++++++++++++++++++++++++++++++++++++++++++++++++++",
"        oo  ooOO++++++++++++++++++++++++++++++++++++++++++++++++++++++++++++++++++++",
"        oo  ooOO++++++++++++++++++++++++++++++++++++++++++++++++++++++++++++++++++++",
"    oooooo  OO++++++++++++++++++++++++++++++++++++++++++++++++++++++++++++++++++++++",
"    oooooo  OO++++++++++++++++++++++++++++++++++++++++++++++++++++++++++++++++++++++",
"    oooo++++++++++++++++++++++++++++++++++++++++++++++++++++++++++++++++++++++++++++",
"    oooo++++++++++++++++++++++++++++++++++++++++++++++++++++++++++++++++++++++++++++",
"++++++++++++++++++++++++++++++++++++++++++++++++++++++++++++++++++++++++++++++++++++",
"++++++++++++++++++++++++++++++++++++++++++++++++++++++++++++++++++++++++++++++++++++",
"++++++++++++++++++++++++++++++++++++++++++++++++++++++++++++++++++++++++++++++++++++",
"++++++++++++++++++++++++++++++++++++++++++++++++++++++++++++++++++++++++++++++++++++",
"++++++++++++++++++++++++++++++++++++++++++++++++++++++++++++++++++++++++++++++++++++",
"++++++++++++++++++++++++++++++++++++++++++++++++++++++++++++++++++++++++++++++++++++",
"++++++++++++++++++++++++++++++++++++++++++++++++++++++++++++++++++++++++++++++++++++",
"++++++++++++++++++++++++++++++++++++++++++++++++++++++++++++++++++++++++++++++++++++",
"++++++++++++++++++++++++++++++++++++++++++++++++++++++++++++++++++++++++++++++++++++",
"++++++++++++++++++++++++++++++++++++++++++++++++++++++++++++++++++++++++++++++++++++",
"++++++++++++++++++++++++++++++++++++++++++++++++++++++++++++++++++++++++++++++++++++",
"++++++++++++++++++++++++++++++++++++++++++++++++++++++++++++++++++++++++++++++++++++",
"++++++++++++++++++++++++++++++++++++++++++++++++++++++++++++++++++++++++++++++++++++",
"++++++++++++++++++++++++++++++++++++++++++++++++++++++++++++++++++++++++++++++++++++",
"++++++++++++++++++++++++++++++++++++++++++++++++++++++++++++++++++++++++++++++++++++",
"++++++++++++++++++++++++++++++++++++++++++++++++++++++++++++++++++++++++++++++++++++",
"++++++++++++++++++++++++++++++++++++++++++++++++++++++++++++++++++++++++++++++++++++",
"++++++++++++++++++++++++++++++++++++++++++++++++++++++++++++++++++++++++++++++++++++",
"++++++++++++++++++++++++++++++++++++++++++++++++++++++++++++++++++++++++++++++++++++",
"++++++++++++++++++++++++++++++++++++++++++++++++++++++++++++++++++++++++++++++++++++",
"++++++++++++++++++++++++++++++++++++++++++++++++++++++++++++++++++++++++++++++++++++",
"++++++++++++++++++++++++++++++++++++++++++++++++++++++++++++++++++++++++++++++++++++",
"++++++++++++++++++++++++++++++++++++++++++++++++++++++++++++++++++++++++++++++++++++",
"++++++++++++++++++++++++++++++++++++++++++++++++++++++++++++++++++++++++++++++++++++",
"++++++++++++++++++++++++++++++++++++++++++++++++++++++++++++++++++++++++++++++++++++",
"++++++++++++++++++++++++++++++++++++++++++++++++++++++++++++++++++++++++++++++++++++",
"++++++++++++++++++++++++++++++++++++++++++++++++++++++++++++++++++++++++++++++++++++",
"++++++++++++++++++++++++++++++++++++++++++++++++++++++++++++++++++++++++++++++++++++",
"++++++++++++++++++++++++++++++++++++++++++++++++++++++++++++++++++++++++++++++++++++",
"++++++++++++++++++++++++++++++++++++++++++++++++++++++++++++++++++++++++++++++++++++",
"++++++++++++++++++++++++++++++++++++++++++++++++++++++++++++++++++++++++++++++++++++",
"++++++++++++++++++++++++++++++++++++++++++++++++++++++++++++++++++++++++++++++++++++",
"++++++++++++++++++++++++++++++++++++++++++++++++++++++++++++++++++++++++++++++++++++",
"++++++++++++++++++++++++++++++++++++++++++++++++++++++++++++++++++++++++++++++++++++",
"++++++++++++++++++++++++++++++++++++++++++++++++++++++++++++++++++++++++++++++++++++",
"++++++++++++++++++++++++++++++++++++++++++++++++++++++++++++++++++++++++++++++++++++",
"++++++++++++++++++++++++++++++++++++++++++++++++++++++++++++++++++++++++++++++++++++",
"++++++++++++++++++++++++++++++++++++++++++++++++++++++++++++++++++++++++++++++++++++",
"++++++++++++++++++++++++++++++++++++++++++++++++++++++++++++++++++++++++++++++++++++",
"++++++++++++++++++++++++++++++++++++++++++++++++++++++++++++++++++++++++++++++++++++",
"++++++++++++++++++++++++++++++++++++++++++++++++++++++++++++++++++++++++++++++++++++",
"++++++++++++++++++++++++++++++++++++++++++++++++++++++++++++++++++++++++++++++++++++",
"++++++++++++++++++++++++++++++++++++++++++++++++++++++++++++++++++++++++++++++++++++",
"++++++++++++++++++++++++++++++++++++++++++++++++++++++++++++++++++++++++++++++++++++",
"++++++++++++++++++++++++++++++++++++++++++++++++++++++++++++++++++++++++++++++++++++",
"++++++++++++++++++++++++++++++++++++++++++++++++++++++++++++++++++++++++++++++++++++",
"++++++++++++++++++++++++++++++++++++++++++++++++++++++++++++++++++++++++++++++++++++",
"++++++++++++++++++++++++++++++++++++++++++++++++++++++++++++++++++++++++++++++++++++",
"++++++++++++++++++++++++++++++++++++++++++++++++++++++++++++++++++++++++++++++++++++",
"++++++++++++++++++++++++++++++++++++++++++++++++++++++++++++++++++++++++++++++++++++"
};
