/* XPM */
static char *result[] = {
/* columns rows colors chars-per-pixel */
"84 84 31 1 ",
"  c #0B172F",
". c #0B1931",
"X c #0B1731",
"o c #0C1830",
"O c #0B1732",
"+ c #0B1A32",
"@ c #0A1631",
"# c #0A152E",
"$ c #09152D",
"% c #09142D",
"& c #0A162E",
"* c #09152B",
"= c #091529",
"- c #09172C",
"; c #09152A",
": c #09172B",
"> c #09172D",
", c #09172E",
"< c #09172F",
"1 c #09142E",
"2 c #09152C",
"3 c #0A1730",
"4 c #09152F",
"5 c #09172A",
"6 c #0A1630",
"7 c #0A1831",
"8 c #091729",
"9 c #091528",
"0 c #0A132E",
"q c #09132D",
"w c #09132B",
/* pixels */
"  ..X oOOO+  .@#$%#& &%**===-;*:--*::*::::::->>>$$,#<%%%%%1$-*:*:2$>%3XX %*-*;-*%%4 ",
"&@    O+ . . . #<$%#&@3,-;--5-*--2;;*:**:::::*2-,,,1%%%%%%<2$-**:;>>%&   <>2**-;-%%#",
"##6&@X   &37 . 34,14#&32$*;;;->$**-;;-:*::::::::>>2><<4%<%%12$2-;;2%#@o+&%>>2**-:2%%",
"<###6 . &<%#7  #42222<<1$**;;:*$>:>**-;=:*::55::-*>22<<%%%%,1,%>>$$2# X 7%%$2****2><",
"#63##6&&#%%#& @#2%$>*%2>>*-;;;:*>--***--=::::55::-*-1211<2222,,%,2,2#@ .@4,>>-**2>4#",
" X&64%%<<%43& 7#1$-***222*;-==5**-=**:**:;*:::5::---12,2%%%2,2<#6##4#&  &%1%$22**$# ",
"   6%1,1%#67  &4%-;;5;;**-==-=-****::****:-**:55:*-,>12*$>>$$%2#&&&66&@&#%1>$>$*2%  ",
"   6%222<#7 ..&,*:====:-;==::=5**:*****:**>*::55::-*$,>2---**2>,#7  @@&#%,%$>*%2$4  ",
"   34%%2<#&  X&22;==:::==:::::-;*;;;;;-**-->-*:55;**$2>-::**::22%& .  &<1>*>$*%2$4  ",
"   3$>>21%& . &1--=-==:::::::::5;;;-==;***---::55;:>$%2**::::**$2#@ . 64%$>>$>>>1<  ",
"   #$$$>21#&  #>*==--=::::::::==;;;;;==5;****-*;;;:>$%*:5;**::*2>2#7 &4,*2;*$$$*><# ",
"  &4,$$*>2,6@&,-;===:=::::::::==5--;;-===;::-5:*:::*$,>--=5;;::2$2%#3#1*2**->>2*2%%#",
"4#4%2*$*>%23&#125===:::::8::::==;;;5====::-5;==::*=>221$:-=-;:-$>>%112$2****-**-*-24",
"2$<$2%%>%2%361>*5===::8::::==::==-=====-======:9::=>2#12--5-;**,1%*$>2-****:*;--;*->",
"$>21,%22,2<##,$:;====:=:::8::::===========--::9::::*,#32$*:***2##2>2-**-***;-==::;**",
"$$>222%%22##,>2*;====-::::::::::========;-=-::9:::=-16&,>$-2*1#&&#,$2*****:;======*2",
"$$>%%>*>22<%,>-:*5-;==-::::::::====5;;;;-;==-::::*-21&&#,2112#&  &%%$2-*-*-;===::=:-",
"$*%2>$$*2121>2-***--5=--::::::::==-;>:::>-5====::=*>1&7&66##6& .X #2>$2***;=:::99:;-",
">>%%*>>$*%2>**2-***:;-=-=::::::====;-*****;==-=::-2%<&    @@@  XX 62%$-**;==::::9:-*",
"**>>$22*$$>2222;**-:*-=--==:::::===-;;****-5=====*-%%6@ .X    . . #2%>-**-::::::::::",
"-*>*2;-;2--*****:*-**;5===:8::::8=====;*>*:*;-:=--$%%3@ .. &&&@ @&<,>>-**=:::::::8=-",
":*-********--******-**;5==:=::::::8:===5;***;--:2$>2,#&  &64%<###%1%**-**-=::::::==;",
":*****-*--=---;****-**:*;5-:=9::::::=::=-;;-;;*2$>%22<#66#%,%2,1,2%>$$2*:;==:::=:-;;",
"********;======;:*:*::**:*;-==:=::::::8:=-=-5;2>,1,,12%%%1,>$$*>*$$$$*-***-=====;*::",
"--****:;===::::5::*:*****:*;;=:=:=8::::=:===-*$,%%<121,,,22>$>**>$$$*-****;-==5;**-2",
">*-**:*-==::::::;::***-:**:*-5==-==::::::::=;*$1<%%%12>>>2%%>*222$>*2-*****-;*::*2*$",
"$>2-*:;===8::::==--*;5=-;:***5===-==:::::=:-9**1%%%22>$$$%2,2$*2*>%>***::****-222*$$",
"$>*-*:;=-=:::::::-;;5===-*--*;====::::::8==-*->,2212$22>$%1422$>$>2>>*:***-2*$$$$$$*",
"*>2***5=--::::::========;:-**5==:=:::::-5;-;=2>,1,>$-**2$>1%%1>*>,1>$*::**-*$*>>*$*>",
"$>2***5=--::::::8=======-*::*;==:::::==;:*;**2$%%>*-*::*-$1%<222,12$***9::-*$>%%%>>>",
"$>2-**-=-=:::::::========9***;====:::=5*::***2$%*>-*****:2%2%,2221>*-:*99**2$%%%%>>>",
">22-**5===::::::::=======;;:*;-;;55=:=5****:***>$2:*;;-;**$2122222$2*::*9::->*>>>*$$",
"2---**5====:::::::==--===--::*****;;==5:****2$>>>*:*:*;;*-$%22222%$2--*:*::-2>*>>>**",
"-******;5;=:::::::=;;;===5-:::*****;;5::**-2$>>$*-*--**;*=*$*>*>>>*$$*$-*:**-------2",
"***:**:*--;-=----;;-*;5==5-**:****:--;*:*-*$>%>$*2>***-*:*-22*>$$*>%12,$***:***:**:*",
"*::*::******-;;;;-*:*:=*;5-******:****:*-*$>%%>$>$%11>2::***:*-2**2,#3422****-;5-5*:",
":*;;-:*:**=*:****:***---**:**::**==*:**-*$*>%>$$$%%#%1$-:**:*:**2*1#&&&1>****;====;*",
"*9;==5***-2-*:***:****>>2-**:******:*-2*$*>>>*$>$,#6#122*-***;:*-*1#@@&#,-***-=-==5;",
"55-==5*:*-22**=::***-$*$$2*:***::::*-22*$*>>*$*2$,#&&#2>2**:;;;:-*26@7&#2$***5==-===",
"======5:*-2;*::-;**-**>>*$2******--2--2$$$$$$>22$146&&#,>2**--=;*>16&&60%%2***-=====",
"====-==**-;***-;5**-,$>>*$2**:*-2222;;2$$2-222**$1%#&& &1*=**5=;*>%36663#1$-**5=====",
"=:==::-:**:;;-=::;->*2>$$2-*:::2>*22-*2>>-***-22*,446@XX72$2**;*2>%######q22***5=:=:",
"**;559::*;=9:::::::=-***::****:2>>2-::*22*--->*-$%14#@X .#,$-*:*2%2%%11%#422:**;::95",
"****==:5==::*::::::==;-;;5-5;-:2*>2-***--*;;;;**>>21<&X .61>-****>1$,%2,22>****;:=::",
"=:::**=:*:::::::::::=8==-====;:2*>22->*--*-==5;***%2%&.X@#1>*-*2>%122*$$>*2*-;;;-::=",
"=::::*=**:::::::****:8::=:::::;*2>>>222--*=--=;:2$>%43  &122**-*$%1,2$222-*;=-;-;;5;",
";=::::***:::::::****:88*=::::=:**2w$$$*2--=--=;*2$$%2#&&41******>1%%2$22-*:====;;;**",
";:::::***::::::::*****=8:::::::=-*2*$$***;::==;*2$$>1%##1>2:*:*2>1%%,%$*-:5:==:-;***",
"5=8:::**::::::::::*****=:::::::=:;**-2-:;:::::;*2*$>,%4,2>*:**:-$%111,%*2*5=::::5;**",
"5:=:::::::::::::::*******:::::::::;;***;:=::::;*22>>1%%,$-:*:-**2$%22,2>**:9::::=;**",
";5=::::::::::::::::::::**:::::::::=:==8=::::::;*2>>>1%2>2**:*;;*-$>%%%%$2;=:::::-;**",
";--;:=::::::::::::::::::::::::::::::8:::::::==;*2>$%,12$---**:;**2>$**$**=::::::=;**",
"****-====::::=::::**:::::::::::::::::::**::::;:-$$>>%%>$>$>*2:5;*-*****:;=:::::=;**:",
"*>$>--5=-=:::=:=::***::::::::::::::::::559::=;*2$****$$$>1%2%-***:*;-=::=:::::9:;**-",
">%%%>*;-==::::::::***::::::::::9:::::::559:::;*-2>$$2*>>1#&3,***:*5=:8::::::::9:*->$",
"22,%$*;;:::::::::::**:::::::::*5::88*****:::==;:*-2-*-*24&  #,-:*;;::::**:::::9-***>",
"%2%>>*-=::::::::::::::::::::::**:::=====:=::::5;;**::*$26. .&2$:*;;:::::::::::9=*2*>",
">>*>2*;::::::::::::::::::::::::::::======:::::===;;;-->1&  X@#12**;=8:::::::::9:*->*",
"$$*-**5:8:::::::::::::::::::::::::::9:::::::::=::=:=*-,#   X 73,2**;::8::::9:::=5:-2",
"-2-**;::::::::::::::::=::::**:::::::::::::::::::8::::%1&.  XXX <%>---==::::99::::;-*",
"*:*;5=8::::::::::::::===:::::::::::::::::::::=:8::8-226   ..X  &2>**;=::::::=:::8:=;",
"----:=8:::::::::::::::::::::::::::::::::::::;;;==:=:%1&  . @    <2>---===::::=::::=:",
"=:8::8::8:=::::::::::::::::::::8:8=:==:::::;*:*;5:=*,#    63@   4%$--=====9:::::::::",
":9:99:==:-::::::::::::::::::8:=:==;;;55===;:*::**;;*,#   @#<&X .#2-*;;;;;==9::::::::",
":::9:8===-:::::::::::8:::=:::=5***--*:*;5;*--*:::*:-2#   @#4& +X62-*:***:*5=::::**::",
":::==;5===8:**::::::=:::=;;-;*:-*>$$2-:*;-*22-*****-><@X.&##@   &,-:**-22**-:=::**::",
"8=:=5**5:=:::**:::8==;;;********$*>$$>-:--*2*22*$*--*,&  &#6   X&12**-*>>**;-::=:=::",
"==-=;**-:::::**::::;-:::**-****2>$*>**>*:**-2>>%,2$->1#&6##&.   31$2*>$$2:;;5==--===",
"==-==;;==:==:==:==-*:***********-2$*%>$2*::-*>1%#%2*2>2<<4#@.X &%,*>>$>2*;=====--==-",
";==:====-==;;-====;****-;;;;;5;-*->>22*2=**-$2#&@&,$-*>1%#67  6%,%%2>>-:;=::==--=;-*",
"*;==9:=::=;**;-==;**;**;=:::==:-**2>,2>$*--2>1&.. #>22>%,#&&&#,>$>22>-*-=:=:-----:--",
"**;:==:8=-*--*;5;**22*:5:=::::::--2>22%>$$22%#    #,>;2$1#63<1>2**2%>*-===::---=;*$>",
"2**;=::==-*-2*****-22-:;==:::::::->2>>2%>*>2%#.  .&%>22>%2%2%$**2*>$*;=:=9::---=-222",
"%%2*;====5:--*::**2*>-:;=--=:::9::**2>%%%*>*%3.   @32>*>>2,%>***2*$2*==:::::--=;*>1#",
"62%2:-=-5**---****2>*-*5=-=::::9;**-22>>***$1&.. &&&42**%111>2:->*>*;::9::==-==*>13@",
" 32$**;*-22-2****;2*2*:-===:::9:::*-->2$w*2>1&  6##3#1%%2<##2>22$$-;==9::::--=:2,# X",
"X #,>--2212*2-*--2>>2:;===::::::::*::->--2$,#7@6%<<%%1%22#&&#1*$$**5:=:::==-=;-%#@X ",
"   #2>21#&#1>$$$$**>2:;-=:::::::::::::-::2%<#&6%1%%2,%*>1<&@&1%>*>:=::::::==;:-2&.  ",
"   @#13& . #2,,22,2>**;==:::::::::*::::-**>2<#4%2%%%%**>%2#&#1>>>>*=::::::-5*-*,@X  ",
"X+O  @ X    6#4%212,>-*;:::**:::***:::::---$2,$$$$$2%$22$1<<2>$$*$-;:===8-;**2>%7Xoo",
"o OO    +OO  7644%<%2$*5=::*:====*--::::::2-$$,24%%42*>**1,2%2-*$>2*-=;-::::-2>%&ooo",
"o OOOO++OOo+ @3%<%6&#,2;:====:----*;-:::::->$%%1$66#<%>*%,12$-*-*>2*;:2**2***2*46   ",
"o    OO+OOO .7#%<<& @1$*=:==:5;;*$$>--::::*->,<,2%&&%2$$$$,$2***2>>22><4%%-***2,#   ",
" oX  OOOOoO .@3%<%&  #2--====5-*>>**---:::::->>2$1441%<<442>--****$$%<# &$***-*>%&  "
};
