/* XPM */
static char *result[] = {
/* columns rows colors chars-per-pixel */
"84 84 12 1 ",
"  c gray10",
". c #201A25",
"X c #271A2F",
"o c #352D33",
"O c #352F32",
"+ c #353033",
"@ c #4B1A6C",
"# c #4B1A6F",
"$ c #4F1A73",
"% c #641A9C",
"& c #671A9F",
"* c None",
/* pixels */
"++++++++++++++++++++XX  ++++++++++++++++++++++  ++++++++++++++++          XXXXXX  ++",
"++++++++++++++++++++XX  ++++++++++++++++++++++  ++++++++++++++++          XXXXXX  ++",
"    ++++++++++++++++++  ++++++++++++++++++++  XX++++++++++++++++++++$$$$XX      ++++",
"    ++++++++++++++++++  ++++++++++++++++++++  XX++++++++++++++++++++$$$$XX      ++++",
"++++XX++++++++++++++++  XX++++++++++++++++oo$$$$++++++++++++++$$$$$$      $$$$&&++++",
"++++XX++++++++++++++++  XX++++++++++++++++oo$$$$++++++++++++++$$$$$$      $$$$&&++++",
"++++++&&&&++++++++++++    $$++++++++++++++OO%%OO++##XX&&$$$$$$                    ++",
"++++++&&&&++++++++++++    $$++++++++++++++OO%%OO++##XX&&$$$$$$                    ++",
"                                                    %%                              ",
"                                                    %%                              ",
"                                                                                    ",
"                                                                                    ",
"                                                      $$$$                          ",
"                                                      $$$$                          ",
"                    $$$$$$$$$$            $$      $$@@  &&$$$$$$        $$$$&&      ",
"                    $$$$$$$$$$            $$      $$@@  &&$$$$$$        $$$$&&      ",
"$$$$$$    $$$$$$      &&$$$$$$$$          $$$$$$$$$$%%    &&&&$$$$$$$$$$&&&&        ",
"$$$$$$    $$$$$$      &&$$$$$$$$          $$$$$$$$$$%%    &&&&$$$$$$$$$$&&&&        ",
"  &&&&$$$$$$            &&&&&&$$          &&&&&&&&&&&&        &&&&&&&&&&&&$$$$      ",
"  &&&&$$$$$$            &&&&&&$$          &&&&&&&&&&&&        &&&&&&&&&&&&$$$$      ",
"                                            &&&&                  &&&&    $$$$$$$$$$",
"                                            &&&&                  &&&&    $$$$$$$$$$",
"                                                                            $$$$$$$$",
"                                                                            $$$$$$$$",
"                                                                                    ",
"                                                                                    ",
"          $$$$$$    $$$$                                                            ",
"          $$$$$$    $$$$                                                            ",
"    $$$$$$$$$$$$$$$$$$$$$$      $$$$                                              $$",
"    $$$$$$$$$$$$$$$$$$$$$$      $$$$                                              $$",
"  $$$$$$$$****$$$$$$$$$$$$$$$$  $$$$$$$$                                            ",
"  $$$$$$$$****$$$$$$$$$$$$$$$$  $$$$$$$$                                            ",
"$$$$******************$$$$$$$$  $$$$$$$$$$    $$$$##..              $$$$            ",
"$$$$******************$$$$$$$$  $$$$$$$$$$    $$$$##..              $$$$            ",
"**********  ************&&$$******  $$$$&&  $$$$$$$$$$$$$$$$      $$$$$$$$          ",
"**********  ************&&$$******  $$$$&&  $$$$$$$$$$$$$$$$      $$$$$$$$          ",
"  $$$$****  ****        ********************$$$$$$$$$$$$$$$$$$**$$$$$$$$&&  $$$$&&**",
"  $$$$****  ****        ********************$$$$$$$$$$$$$$$$$$**$$$$$$$$&&  $$$$&&**",
"$$&&&&**********&&$$$$$$$$**************$$****&&&&&&  &&&&&&********&&&&      ******",
"$$&&&&**********&&$$$$$$$$**************$$****&&&&&&  &&&&&&********&&&&      ******",
"****************&&&&&&$$$$************$$$$********    &&&&**************  $$$$$$****",
"****************&&&&&&$$$$************$$$$********    &&&&**************  $$$$$$****",
"******************&&&&&&**********************************************$$$$$$$$$$****",
"******************&&&&&&**********************************************$$$$$$$$$$****",
"**********************************************************************&&&&&&&&******",
"**********************************************************************&&&&&&&&******",
"******************************************************************  ****************",
"******************************************************************  ****************",
"************************************************************************************",
"************************************************************************************",
"************************************************************************************",
"************************************************************************************",
"**************************************************************************  ********",
"**************************************************************************  ********",
"************************************************************************************",
"************************************************************************************",
"**********************************************************$$************************",
"**********************************************************$$************************",
"************************************************************************************",
"************************************************************************************",
"************************************************************************************",
"************************************************************************************",
"************************************************************************************",
"************************************************************************************",
"************************************************************************************",
"************************************************************************************",
"************************************************************************************",
"************************************************************************************",
"************************************************************************************",
"************************************************************************************",
"************************************************************************************",
"************************************************************************************",
"************************************************************************************",
"************************************************************************************",
"************************************************************************************",
"************************************************************************************",
"************************************************************************************",
"************************************************************************************",
"************************************************************************************",
"************************************************************************************",
"************************************************************************************",
"************************************************************************************",
"************************************************************************************",
"************************************************************************************"
};
