/* XPM */
static char *result[] = {
/* columns rows colors chars-per-pixel */
"84 84 2 1 ",
"  c #353033",
". c gray10",
/* pixels */
"                        ..                                        ..      ..      ..",
"                        ..                                        ..      ..      ..",
"  ..                  ..                                          ..        ..  ..  ",
"  ..                  ..                                          ..        ..  ..  ",
"    ..                ..                                                      ..    ",
"    ..                ..                                                      ..    ",
"    ..                                                              ..    ..    ..  ",
"    ..                                                              ..    ..    ..  ",
"      ..                                                                  ..  ..    ",
"      ..                                                                  ..  ..    ",
"        ..                      ..                                                  ",
"        ..                      ..                                                  ",
"                                ..                                                  ",
"                                ..                                                  ",
"                              ..                    ..                              ",
"                              ..                    ..                              ",
"                                                      ..                            ",
"                                                      ..                            ",
"                                                      ..                            ",
"                                                      ..                            ",
"                                                                                    ",
"                                                                                    ",
"                                                                                    ",
"                                                                                    ",
"                ....                                                                ",
"                ....                                                                ",
"                                                                                    ",
"                                                                                    ",
"                                ....                                                ",
"                                ....                                                ",
"                                                ..  ..                ..            ",
"                                                ..  ..                ..            ",
"                                    ..            ..              ....              ",
"                                    ..            ..              ....              ",
"                                      ..        ..                                  ",
"                                      ..        ..                                  ",
"                                                    ..        ....                  ",
"                                                    ..        ....                  ",
"                                                                  ..                ",
"                                                                  ..                ",
"                                                                                    ",
"                                                                                    ",
"                                                                                    ",
"                                                                                    ",
"                                                                                    ",
"                                                                                    ",
"                                                                                    ",
"                                                                                    ",
"                ..                                                                  ",
"                ..                                                                  ",
"                ..                                                ....              ",
"                ..                                                ....              ",
"                                                              ....                  ",
"                                                              ....                  ",
"                                                            ..                      ",
"                                                            ..                      ",
"                                        ..                                          ",
"                                        ..                                          ",
"                                    ..                                              ",
"                                    ..                                              ",
"....                                  ..                                ............",
"....                                  ..                                ............",
"........                                ..                                    ......",
"........                                ..                                    ......",
"                                                                                    ",
"                                                                                    ",
"                                                                                    ",
"                                                                                    ",
"                                                                                    ",
"                                                                                    ",
"                                                                                    ",
"                                                                                    ",
"                                                                  ..                ",
"                                                                  ..                ",
"    ..  ..                                                                      ..  ",
"    ..  ..                                                                      ..  ",
"....  ..                                                            ..          ..  ",
"....  ..                                                            ..          ..  ",
"    ..        ....      ..                                          ..            ..",
"    ..        ....      ..                                          ..            ..",
"  ..              ..      ..                                      ..  ..            ",
"  ..              ..      ..                                      ..  ..            ",
"..                  ..    ..                                      ..    ..          ",
"..                  ..    ..                                      ..    ..          "
};
