/* XPM */
static char *result[] = {
/* columns rows colors chars-per-pixel */
"42 42 5 1 ",
"  c black",
". c #07000A",
"X c #1B191A",
"o c #1B0028",
"O c None",
/* pixels */
"OOOOOOOOOOOOOOOOOOOOOOOOOOOOOOOOOOOOOOOOOO",
"OOOOOOOOOOOOOOOOOOOOOOOOOOOOOOOOOOOOOOOOOO",
"OOOOOOOOOOOOOOOOOOOOOOOOOOOOOOOOOOOOOOOOOO",
"OOOOOOOOOOOOOOOOOOOOOOOOOOOOOOOOOOOOOOOOOO",
"OOOOOOOOOOOOOOOOOOOOOOOOOOOOOOOOOOOOOOOOOO",
"OOOOOOOOOOOOOOOOOOOOOOOOOOOOOOOOOOOOOOOOOO",
"OOOOOOOOOOOOOOOOOOOOOOOOOOOOOOOOOOOOOOOOOO",
"OOOOOOOOOOOOOOOOOOOOOOOOOOOOOOOOOOOOOOOOOO",
"OOOOOOOOOOOOOOOOOOOOOOOOOOOOOOOOOOOOOOOOOO",
"OOOOOOOOOOOOOOOOOOOOOOOOOOOOOOOOOOOOOOOOOO",
"OOOOOOOOOOOOOOOOOOOOOOOOOOOOOOOOOOOOOOOOOO",
"OOOOOOOOOOOOOOOOOOOOOOOOOOOOOOOOOOOOOOOOOO",
"OOOOOOOOOOOOOOOOOOOOOOOOOOOOOOOOOOOOOOOOOO",
"OOOOOOOOOOOOOOOOOOOOOOOOOOOOOOOOOOOOOOOOOO",
"OOOOOOOOOOOOOOOOOOOOOOOOOOOOOOOOOOOOOOOOOO",
"OOOOOOOOOOOOOOOOOOOOOOOOOOOOOOOOOOOOOOOOOO",
"OOOOOOOOOOOOOOOOOOOOOOOOOOOOOOOOOOOOOOOOOO",
"OOOOOOOOOOOOOOOOOOOOOOOOOOOOOOOOOOOOOOOOOO",
"OOOOOOOOOOOOOOOOOOOOOOOOOOOOOOOOOOOOOOOOOO",
"OOOOOOOOOOOOOOOOOOOOOOOOOOOOOOOOOOOOOOOOOO",
"OOOOOOOOOOOOOOOOOOOOOOOOOOOOOOOOOOOOOOOOOO",
"OOOOOOOOOOOOOOOOOOOOOOOOOOOOOOOOOOOOOOOOOO",
"OOOOOOOOOOOOOOOOOOOOOOOOOOOOOOOOOOOOOOOOOO",
"OOOOOOOOOOOOOOOOOOOOOOOOOOOOOOOOOOOOOOOOOO",
"OOOOOOOOOOOOOOOOOOOOOOOOOOOOOOOOOOOOOOOOOO",
"OOOOOOOOOOOOOOOOOOOOOOOOOOOOOOOOOOOOOOOOOO",
"OOOOOOOOOOOOOOOOOOOOOOOOOOOOOOOOOOOOOOOOOO",
"OOOOOOOOOOOOOOOOOOOOOOOOOOOOOOOOOOOOOOOOOO",
"OOOOOOOOOOOOOOOOOOOOOOOOOO.....OOOOOOOOOOO",
"OOOOOOOOOOOOOOOOOOOOOOOOO.     ..OOOOOOO..",
"OOOOOOOOOOOOOOOOOOOOOOOO. o   XXX   ..    ",
"OOOOOOOOOOOOOOOOOOOOOOOO.   XXXXXXX     o ",
"OOOOOOOOOOOOOOOOOOOOOOOOO.. XXXXXXXXo oXXX",
"OOOOOOOOOOOOOOOOOOOOOOOOO     XXXXX  oXXXX",
"OOOOOOOOOOOOOOOOOOOOOOOOO.XXXX XXX XXXXXXX",
"OOOOOOOOOOOOOOOOOOOOOOOOO.oXX  X XXXXXXXXX",
"OOOOOOOOOOOOOOOOOOOOOOOOO.o.X X XXXXXXXXXX",
"OOOOOOOOOOOOOOOOOOOOOOOOOO.o   XXXXXXXXXXX",
"OOOOOOOOOOOOOOOOOOOOOOOOOOO.o XXXXXXXXXXXX",
"OOOOOOOOOOOOOOOOOOOOOOOOOO..  XXXXXXXXXXXX",
"OOOOOOOOOOOOOOOOOOOOOOOOOO   XXXXXXXXXXXXX",
"OOOOOOOOOOOOOOOOOOOOOOOOOOo   XXXXXXXXXXXX"
};
