/* XPM */
static char *result[] = {
/* columns rows colors chars-per-pixel */
"42 42 6 1 ",
"  c black",
". c #07000A",
"X c #1B191A",
"o c #1B0028",
"O c #28003C",
"+ c None",
/* pixels */
"+++++++++++++++++++++++++++XXXXXXX .XXXXXX",
"+++++++++++++++++++++++++++oXXXXX..    XXX",
"+++++++++++++++++++++++++++ OXXXoXX. XXXXX",
"+++++++++++++++++++++++++++ OXXXoXX. XXXXX",
"++++++++++++++++++++++++++++ OOOXXXXXXXXXX",
"+++++++++++++++++++++++++++++oo  OOOXXXO  ",
"+++++++++++++++++++++++++++++  o    OOO   ",
"+++++++++++++++++++++++++++++++ooo        ",
"+++++++++++++++++++++++++++++++oooo       ",
"+++++++++++++++++++++++++++++++oooo       ",
"++++++++++++++++++++++++++++++++  ooo     ",
"+++++++++++++++++++++++++++++++++         ",
"+++++++++++++++++++++++++++++++++oo       ",
"++++++++++++++++++++++++++++++++++Oo o    ",
"++++++++++++++++++++++++++++++++++Oo o    ",
"+++++++++++++++++++++++++++++++++++O ooo  ",
"++++++++++++++++++++++++++++++++++++++oo  ",
"++++++++++++++++++++++++++++++++++++++++++",
"++++++++++++++++++++++++++++++++++++++++++",
"++++++++++++++++++++++++++++++++++++++++++",
"++++++++++++++++++++++++++++++++++++++++++",
"++++++++++++++++++++++++++++++++++++++++++",
"++++++++++++++++++++++++++++++++++++++++++",
"++++++++++++++++++++++++++++++++++++++++++",
"++++++++++++++++++++++++++++++++++++++++++",
"++++++++++++++++++++++++++++++++++++++++++",
"++++++++++++++++++++++++++++++++++++++++++",
"++++++++++++++++++++++++++++++++++++++++++",
"++++++++++++++++++++++++++++++++++++++++++",
"++++++++++++++++++++++++++++++++++++++++++",
"++++++++++++++++++++++++++++++++++++++++++",
"++++++++++++++++++++++++++++++++++++++++++",
"++++++++++++++++++++++++++++++++++++++++++",
"++++++++++++++++++++++++++++++++++++++++++",
"++++++++++++++++++++++++++++++++++++++++++",
"++++++++++++++++++++++++++++++++++++++++++",
"++++++++++++++++++++++++++++++++++++++++++",
"++++++++++++++++++++++++++++++++++++++++++",
"++++++++++++++++++++++++++++++++++++++++++",
"++++++++++++++++++++++++++++++++++++++++++",
"++++++++++++++++++++++++++++++++++++++++++",
"++++++++++++++++++++++++++++++++++++++++++"
};
