/* XPM */
static char *result[] = {
/* columns rows colors chars-per-pixel */
"42 42 6 1 ",
"  c black",
". c #07000A",
"X c #1B191A",
"o c #1B0028",
"O c #28003C",
"+ c None",
/* pixels */
"XXXXXX. XXXXXXX+++++++++++++++++++++++++++",
"XXX    ..XXXXXo+++++++++++++++++++++++++++",
"XXXXX .XXoXXXO +++++++++++++++++++++++++++",
"XXXXX .XXoXXXO +++++++++++++++++++++++++++",
"XXXXXXXXXXOOO ++++++++++++++++++++++++++++",
"  OXXXOOO  oo+++++++++++++++++++++++++++++",
"   OOO    o  +++++++++++++++++++++++++++++",
"        ooo+++++++++++++++++++++++++++++++",
"       oooo+++++++++++++++++++++++++++++++",
"       oooo+++++++++++++++++++++++++++++++",
"     ooo  ++++++++++++++++++++++++++++++++",
"         +++++++++++++++++++++++++++++++++",
"       oo+++++++++++++++++++++++++++++++++",
"    o oO++++++++++++++++++++++++++++++++++",
"    o oO++++++++++++++++++++++++++++++++++",
"  ooo O+++++++++++++++++++++++++++++++++++",
"  oo++++++++++++++++++++++++++++++++++++++",
"++++++++++++++++++++++++++++++++++++++++++",
"++++++++++++++++++++++++++++++++++++++++++",
"++++++++++++++++++++++++++++++++++++++++++",
"++++++++++++++++++++++++++++++++++++++++++",
"++++++++++++++++++++++++++++++++++++++++++",
"++++++++++++++++++++++++++++++++++++++++++",
"++++++++++++++++++++++++++++++++++++++++++",
"++++++++++++++++++++++++++++++++++++++++++",
"++++++++++++++++++++++++++++++++++++++++++",
"++++++++++++++++++++++++++++++++++++++++++",
"++++++++++++++++++++++++++++++++++++++++++",
"++++++++++++++++++++++++++++++++++++++++++",
"++++++++++++++++++++++++++++++++++++++++++",
"++++++++++++++++++++++++++++++++++++++++++",
"++++++++++++++++++++++++++++++++++++++++++",
"++++++++++++++++++++++++++++++++++++++++++",
"++++++++++++++++++++++++++++++++++++++++++",
"++++++++++++++++++++++++++++++++++++++++++",
"++++++++++++++++++++++++++++++++++++++++++",
"++++++++++++++++++++++++++++++++++++++++++",
"++++++++++++++++++++++++++++++++++++++++++",
"++++++++++++++++++++++++++++++++++++++++++",
"++++++++++++++++++++++++++++++++++++++++++",
"++++++++++++++++++++++++++++++++++++++++++",
"++++++++++++++++++++++++++++++++++++++++++"
};
