/* XPM */
static char *result[] = {
/* columns rows colors chars-per-pixel */
"42 42 5 1 ",
"  c black",
". c #07000A",
"X c #1B191A",
"o c #1B0028",
"O c None",
/* pixels */
"XXXXXXXXXXXXX .OOOOOOOOOOOOOOOOOOOOOOOOOOO",
"XXXXXXXXXXXXX.oOOOOOOOOOOOOOOOOOOOOOOOOOOO",
"XXXXXXXXXXXX .oOOOOOOOOOOOOOOOOOOOOOOOOOOO",
"XXXXXXXXXXXX.oOOOOOOOOOOOOOOOOOOOOOOOOOOOO",
"XXXXXXXXXXXX oOOOOOOOOOOOOOOOOOOOOOOOOOOOO",
"XXXXXXXXXXXX.oOOOOOOOOOOOOOOOOOOOOOOOOOOOO",
"XXXXXXXXXXX .oOOOOOOOOOOOOOOOOOOOOOOOOOOOO",
"XXXXXXXXXXX .oOOOOOOOOOOOOOOOOOOOOOOOOOOOO",
"XXXXXXXXXX . .OOOOOOOOOOOOOOOOOOOOOOOOOOOO",
"XXXXXXXX      .OOOOOOOOOOOOOOOOOOOOOOOOOOO",
"XXXooXX   .    OOOOOOOOOOOOOOOOOOOOOOOOOOO",
"XXo  o   .X X XOOOOOOOOOOOOOOOOOOOOOOOOOOO",
"Xo XXX   . XXXXOOOOOOOOOOOOOOOOOOOOOOOOOOO",
"o XXXXX  .XXXXXOOOOOOOOOOOOOOOOOOOOOOOOOOO",
"XXXXXXXX .XX  .OOOOOOOOOOOOOOOOOOOOOOOOOOO",
"XXXXXXXo .XXX .OOOOOOOOOOOOOOOOOOOOOOOOOOO",
"XXXXXXXo .XXX .OOOOOOOOOOOOOOOOOOOOOOOOOOO",
"XXXXXXoo  .XX.OOOOOOOOOOOOOOOOOOOOOOOOOOOO",
"XXXXXoXX   ..OOOOOOOOOOOOOOOOOOOOOOOOOOOOO",
"XXXXo XXX .OOOOOOOOOOOOOOOOOOOOOOOOOOOOOOO",
"XXoo  XXX  OOOOOOOOOOOOOOOOOOOOOOOOOOOOOOO",
"X XXXXXXXX .OOOOOOOOOOOOOOOOOOOOOOOOOOOOOO",
"o XXXXXXX  .OOOOOOOOOOOOOOOOOOOOOOOOOOOOOO",
"XXXXXXXXooo.OOOOOOOOOOOOOOOOOOOOOOOOOOOOOO",
"XXXXXXooo  .OOOOOOOOOOOOOOOOOOOOOOOOOOOOOO",
"XXXXXX    .OOOOOOOOOOOOOOOOOOOOOOOOOOOOOOO",
"XXXooo   . OOOOOOOOOOOOOOOOOOOOOOOOOOOOOOO",
"Xoo   X    .OOOOOOOOOOOOOOOOOOOOOOOOOOOOOO",
" XXXXXXXXXX.OOOOOOOOOOOOOOOOOOOOOOOOOOOOOO",
"XXXXXXXXXXX.OOOOOOOOOOOOOOOOOOOOOOOOOOOOOO",
"XXXXXXXXXX.OOOOOOOOOOOOOOOOOOOOOOOOOOOOOOO",
"XXXXXXXXX..OOOOOOOOOOOOOOOOOOOOOOOOOOOOOOO",
"XXXXXX  OOOOOOOOOOOOOOOOOOOOOOOOOOOOOOOOOO",
"XXXXXo  ..OOOOOOOOOOOOOOOOOOOOOOOOOOOOOOOO",
"Xoooo     .OOOOOOOOOOOOOOOOOOOOOOOOOOOOOOO",
"Xoo   XX  .OOOOOOOOOOOOOOOOOOOOOOOOOOOOOOO",
"o  ..XXXX  OOOOOOOOOOOOOOOOOOOOOOOOOOOOOOO",
".XXXXXXXXXX  OOOOOOOOOOOOOOOOOOOOOOOOOOOOO",
"XXXXXXXXXXXX  OOOOOOOOOOOOOOOOOOOOOOOOOOOO",
".XXX..XXXXXXX  OOOOOOOOOOOOOOOOOOOOOOOOOOO",
"X...XXXXXXXXXX OOOOOOOOOOOOOOOOOOOOOOOOOOO",
"XXXXXXXXXXXXXX OOOOOOOOOOOOOOOOOOOOOOOOOOO"
};
