/* XPM */
static char *result[] = {
/* columns rows colors chars-per-pixel */
"84 84 8 1 ",
"  c gray13",
". c #453E3E",
"X c #645C5C",
"o c #7B7070",
"O c #928484",
"+ c #C9C2C2",
"@ c white",
"# c None",
/* pixels */
"####################################################################################",
"####################################################################################",
"####################################################################################",
"####################################################################################",
"####################################################################################",
"####################################################################################",
"####################################################################################",
"####################################################################################",
"####################################################################################",
"####################################################################################",
"####################################################################################",
"####################################################################################",
"####################################################################################",
"####################################################################################",
"####################################################################################",
"####################################################################################",
"####################################################################################",
"####################################################################################",
"####################################################################################",
"####################################################################################",
"####################################################################################",
"####################################################################################",
"####################################################################################",
"####################################################################################",
"####################################################################################",
"####################################################################################",
"################                                                    ################",
"################                                                    ################",
"##############  OOOOOOOOOOOOOOOOOOOOOOOOOOOOOOOOOOOOOOOOOOOOOOOOOOOO  ##############",
"##############  OOOOOOOOOOOOOOOOOOOOOOOOOOOOOOOOOOOOOOOOOOOOOOOOOOOO  ##############",
"##############  OOXXXXOOOOOOOOOOOO                OOOOOOOOOOOOXXXXOO  ##############",
"##############  OOXXXXOOOOOOOOOOOO                OOOOOOOOOOOOXXXXOO  ##############",
"##############  OOXXXXOOOOOOOO    XX@@@@@@++++++XX    OOOOOOOOXXXXOO  ##############",
"##############  OOXXXXOOOOOOOO    XX@@@@@@++++++XX    OOOOOOOOXXXXOO  ##############",
"##############  OOOOOOOOOOOO  XX@@++++OOOOOOOOooXXXXXX  OOOOOOOOOOOO  ##############",
"##############  OOOOOOOOOOOO  XX@@++++OOOOOOOOooXXXXXX  OOOOOOOOOOOO  ##############",
"##############  OOOOOOOOOO  XX++OOooXXXXooooXXXXooOOOOXX  OOOOOOOOOO  ##############",
"##############  OOOOOOOOOO  XX++OOooXXXXooooXXXXooOOOOXX  OOOOOOOOOO  ##############",
"##############  OOOOOOOOOO  @@OOOOOOOOooXXXXooOOOOOOOOOO  OOOOOOOOOO  ##############",
"##############  OOOOOOOOOO  @@OOOOOOOOooXXXXooOOOOOOOOOO  OOOOOOOOOO  ##############",
"##############  OOOOOOOOOO  XXOOOOooXXXXooooXXXXooOOOOXX  OOOOOOOOOO  ##############",
"##############  OOOOOOOOOO  XXOOOOooXXXXooooXXXXooOOOOXX  OOOOOOOOOO  ##############",
"##############  OOOOOOOOOO  ..XXXXXXooOOOOOOOOooXXXXXX..  OOOOOOOOOO  ##############",
"##############  OOOOOOOOOO  ..XXXXXXooOOOOOOOOooXXXXXX..  OOOOOOOOOO  ##############",
"##############  OOOOOOOOOO  ......XXOOOOOOOOOO++XX......  OOOOOOOOOO  ##############",
"##############  OOOOOOOOOO  ......XXOOOOOOOOOO++XX......  OOOOOOOOOO  ##############",
"##############  OOOOOOOOOO  ............................  OOOOOOOOOO  ##############",
"##############  OOOOOOOOOO  ............................  OOOOOOOOOO  ##############",
"##############  OOOOOOOOOOXX  ........................  XXOOOOOOOOOO  ##############",
"##############  OOOOOOOOOOXX  ........................  XXOOOOOOOOOO  ##############",
"##############  OOOOOOOOOOOOXX    ................    XXOOOOOOOOOOOO  ##############",
"##############  OOOOOOOOOOOOXX    ................    XXOOOOOOOOOOOO  ##############",
"##############  OOXXXXOOOOOOOOXXXX                XXXXOOOOOOOOXXXXOO  ##############",
"##############  OOXXXXOOOOOOOOXXXX                XXXXOOOOOOOOXXXXOO  ##############",
"##############  OOXXXXOOOOOOOOOOOOOOXXXXXXXXXXXXOOOOOOOOOOOOOOXXXXOO  ##############",
"##############  OOXXXXOOOOOOOOOOOOOOXXXXXXXXXXXXOOOOOOOOOOOOOOXXXXOO  ##############",
"##############  OOOOOOOOOOOOOOOOOOOOOOOOOOOOOOOOOOOOOOOOOOOOOOOOOOOO  ##############",
"##############  OOOOOOOOOOOOOOOOOOOOOOOOOOOOOOOOOOOOOOOOOOOOOOOOOOOO  ##############",
"##############  XXOOOOOOOOOOOOOOOOOOOOOOOOOOOOOOOOOOOOOOOOOOOOOOOOXX  ##############",
"##############  XXOOOOOOOOOOOOOOOOOOOOOOOOOOOOOOOOOOOOOOOOOOOOOOOOXX  ##############",
"##############  ..XXXXXXXXXXXXXXXXXXXXXXXXXXXXXXXXXXXXXXXXXXXXXXXX..  ##############",
"##############  ..XXXXXXXXXXXXXXXXXXXXXXXXXXXXXXXXXXXXXXXXXXXXXXXX..  ##############",
"################                                                    ################",
"################                                                    ################",
"####################################################################################",
"####################################################################################",
"####################################################################################",
"####################################################################################",
"####################################################################################",
"####################################################################################",
"####################################################################################",
"####################################################################################",
"####################################################################################",
"####################################################################################",
"####################################################################################",
"####################################################################################",
"####################################################################################",
"####################################################################################",
"####################################################################################",
"####################################################################################",
"####################################################################################",
"####################################################################################",
"####################################################################################",
"####################################################################################"
};
