/* XPM */
static char *result[] = {
/* columns rows colors chars-per-pixel */
"84 84 7 1 ",
"  c gray13",
". c #332F2F",
"X c #3C3636",
"o c #453E3E",
"O c #645C5C",
"+ c #928484",
"@ c None",
/* pixels */
"@@@@@@@@@@@@@@@@@@@@@@@@@@@@@@@@@@@@@@@@@@@@@@@@@@@@@@@@@@@@@@@@@@@@@@@@@@@@@@@@@@@@",
"@@@@@@@@@@@@@@@@@@@@@@@@@@@@@@@@@@@@@@@@@@@@@@@@@@@@@@@@@@@@@@@@@@@@@@@@@@@@@@@@@@@@",
"@@@@@@@@@@@@@@@@@@@@@@@@@@@@@@@@@@@@@@@@@@@@@@@@@@@@@@@@@@@@@@@@@@@@@@@@@@@@@@@@@@@@",
"@@@@@@@@@@@@@@@@@@@@@@@@@@@@@@@@@@@@@@@@@@@@@@@@@@@@@@@@@@@@@@@@@@@@@@@@@@@@@@@@@@@@",
"@@@@@@@@@@@@@@@@@@@@@@@@@@@@@@@@@@@@@@@@@@@@@@@@@@@@@@@@@@@@@@@@@@@@@@@@@@@@@@@@@@@@",
"@@@@@@@@@@@@@@@@@@@@@@@@@@@@@@@@@@@@@@@@@@@@@@@@@@@@@@@@@@@@@@@@@@@@@@@@@@@@@@@@@@@@",
"@@@@@@@@@@@@@@@@@@@@@@@@@@@@@@@@@@@@@@@@@@@@@@@@@@@@@@@@@@@@@@@@@@@@@@@@@@@@@@@@@@@@",
"@@@@@@@@@@@@@@@@@@@@@@@@@@@@@@@@@@@@@@@@@@@@@@@@@@@@@@@@@@@@@@@@@@@@@@@@@@@@@@@@@@@@",
"@@@@@@@@@@@@@@@@@@@@@@@@@@@@@@@@@@@@@@@@@@@@@@@@@@@@@@@@@@@@@@@@@@@@@@@@@@@@@@@@@@@@",
"@@@@@@@@@@@@@@@@@@@@@@@@@@@@@@@@@@@@@@@@@@@@@@@@@@@@@@@@@@@@@@@@@@@@@@@@@@@@@@@@@@@@",
"@@@@@@@@@@@@@@@@@@@@@@@@@@@@@@@@@@@@@@@@@@@@@@@@@@@@@@@@@@@@@@@@@@@@@@@@@@@@@@@@@@@@",
"@@@@@@@@@@@@@@@@@@@@@@@@@@@@@@@@@@@@@@@@@@@@@@@@@@@@@@@@@@@@@@@@@@@@@@@@@@@@@@@@@@@@",
"@@@@@@@@@@@@@@@@@@@@@@@@@@@@@@@@@@@@@@@@@@@@@@@@@@@@@@@@@@@@@@@@@@@@@@@@@@@@@@@@@@@@",
"@@@@@@@@@@@@@@@@@@@@@@@@@@@@@@@@@@@@@@@@@@@@@@@@@@@@@@@@@@@@@@@@@@@@@@@@@@@@@@@@@@@@",
"@@@@@@@@@@@@@@@@@@@@@@@@@@@@@@@@@@@@@@@@@@@@@@@@@@@@@@@@@@@@@@@@@@@@@@@@@@@@@@@@@@@@",
"@@@@@@@@@@@@@@@@@@@@@@@@@@@@@@@@@@@@@@@@@@@@@@@@@@@@@@@@@@@@@@@@@@@@@@@@@@@@@@@@@@@@",
"@@@@@@@@@@@@@@@@@@@@@@@@@@@@@@@@@@@@@@@@@@@@@@@@@@@@@@@@@@@@@@@@@@@@@@@@@@@@@@@@@@@@",
"@@@@@@@@@@@@@@@@@@@@@@@@@@@@@@@@@@@@@@@@@@@@@@@@@@@@@@@@@@@@@@@@@@@@@@@@@@@@@@@@@@@@",
"@@@@@@@@@@@@@@@@@@@@@@@@@@@@@@@@@@@@@@@@@@@@@@@@@@@@@@@@@@@@@@@@@@@@@@@@@@@@@@@@@@@@",
"@@@@@@@@@@@@@@@@@@@@@@@@@@@@@@@@@@@@@@@@@@@@@@@@@@@@@@@@@@@@@@@@@@@@@@@@@@@@@@@@@@@@",
"@@@@@@@@@@@@@@@@@@@@@@@@@@@@@@@@@@@@@@@@@@@@@@@@@@@@@@@@@@@@@@@@@@@@@@@@@@@@@@@@@@@@",
"@@@@@@@@@@@@@@@@@@@@@@@@@@@@@@@@@@@@@@@@@@@@@@@@@@@@@@@@@@@@@@@@@@@@@@@@@@@@@@@@@@@@",
"@@@@@@@@@@@@@@@@@@@@@@@@@@@@@@@@@@@@@@@@@@@@@@@@@@@@@@@@@@@@@@@@@@@@@@@@@@@@@@@@@@@@",
"@@@@@@@@@@@@@@@@@@@@@@@@@@@@@@@@@@@@@@@@@@@@@@@@@@@@@@@@@@@@@@@@@@@@@@@@@@@@@@@@@@@@",
"@@@@@@@@@@@@@@@@@@@@@@@@@@@@@@@@@@@@@@@@@@@@@@@@@@@@@@@@@@@@@@@@@@@@@@@@@@@@@@@@@@@@",
"@@@@@@@@@@@@@@@@@@@@@@@@@@@@@@@@@@@@@@@@@@@@@@@@@@@@@@@@@@@@@@@@@@@@@@@@@@@@@@@@@@@@",
"@@@@@@@@@@@@@@@@                                                    @@@@@@@@@@@@@@@@",
"@@@@@@@@@@@@@@@@                                                    @@@@@@@@@@@@@@@@",
"@@@@@@@@@@@@@@  ++++++++++++++++++++++++++++++++++++++++++++++++++++  @@@@@@@@@@@@@@",
"@@@@@@@@@@@@@@  ++++++++++++++++++++++++++++++++++++++++++++++++++++  @@@@@@@@@@@@@@",
"@@@@@@@@@@@@@@  ++OOOO++++++++++++++++++++++++++++++++++++++++OOOO++  @@@@@@@@@@@@@@",
"@@@@@@@@@@@@@@  ++OOOO++++++++++++++++++++++++++++++++++++++++OOOO++  @@@@@@@@@@@@@@",
"@@@@@@@@@@@@@@  ++OOOO++++++++++++++++++++++++++++++++++++++++OOOO++  @@@@@@@@@@@@@@",
"@@@@@@@@@@@@@@  ++OOOO++++++++++++++++++++++++++++++++++++++++OOOO++  @@@@@@@@@@@@@@",
"@@@@@@@@@@@@@@  ++++++++++++++++OO                OO++++++++++++++++  @@@@@@@@@@@@@@",
"@@@@@@@@@@@@@@  ++++++++++++++++OO                OO++++++++++++++++  @@@@@@@@@@@@@@",
"@@@@@@@@@@@@@@  ++++++++++++OO                        OO++++++++++++  @@@@@@@@@@@@@@",
"@@@@@@@@@@@@@@  ++++++++++++OO                        OO++++++++++++  @@@@@@@@@@@@@@",
"@@@@@@@@@@@@@@  ++++++++++OO                            OO++++++++++  @@@@@@@@@@@@@@",
"@@@@@@@@@@@@@@  ++++++++++OO                            OO++++++++++  @@@@@@@@@@@@@@",
"@@@@@@@@@@@@@@  ++++++++++        ..XXooooooooXX..        ++++++++++  @@@@@@@@@@@@@@",
"@@@@@@@@@@@@@@  ++++++++++        ..XXooooooooXX..        ++++++++++  @@@@@@@@@@@@@@",
"@@@@@@@@@@@@@@  ++++++++++    ..ooXX....XXXX....oooo..    ++++++++++  @@@@@@@@@@@@@@",
"@@@@@@@@@@@@@@  ++++++++++    ..ooXX....XXXX....oooo..    ++++++++++  @@@@@@@@@@@@@@",
"@@@@@@@@@@@@@@  ++++++++++  ..ooooooooXX....XXoooooooo..  ++++++++++  @@@@@@@@@@@@@@",
"@@@@@@@@@@@@@@  ++++++++++  ..ooooooooXX....XXoooooooo..  ++++++++++  @@@@@@@@@@@@@@",
"@@@@@@@@@@@@@@  ++++++++++  ..ooooXX....XXXX....XXoooo..  ++++++++++  @@@@@@@@@@@@@@",
"@@@@@@@@@@@@@@  ++++++++++  ..ooooXX....XXXX....XXoooo..  ++++++++++  @@@@@@@@@@@@@@",
"@@@@@@@@@@@@@@  ++++++++++OO  ..XX..XXooooooooXX..XX..  OO++++++++++  @@@@@@@@@@@@@@",
"@@@@@@@@@@@@@@  ++++++++++OO  ..XX..XXooooooooXX..XX..  OO++++++++++  @@@@@@@@@@@@@@",
"@@@@@@@@@@@@@@  ++++++++++++OO    XXooooooooooooXX    OO++++++++++++  @@@@@@@@@@@@@@",
"@@@@@@@@@@@@@@  ++++++++++++OO    XXooooooooooooXX    OO++++++++++++  @@@@@@@@@@@@@@",
"@@@@@@@@@@@@@@  ++OOOO++++++++OOOO                OOOO++++++++OOOO++  @@@@@@@@@@@@@@",
"@@@@@@@@@@@@@@  ++OOOO++++++++OOOO                OOOO++++++++OOOO++  @@@@@@@@@@@@@@",
"@@@@@@@@@@@@@@  ++OOOO++++++++++++++OOOOOOOOOOOO++++++++++++++OOOO++  @@@@@@@@@@@@@@",
"@@@@@@@@@@@@@@  ++OOOO++++++++++++++OOOOOOOOOOOO++++++++++++++OOOO++  @@@@@@@@@@@@@@",
"@@@@@@@@@@@@@@  ++++++++++++++++++++++++++++++++++++++++++++++++++++  @@@@@@@@@@@@@@",
"@@@@@@@@@@@@@@  ++++++++++++++++++++++++++++++++++++++++++++++++++++  @@@@@@@@@@@@@@",
"@@@@@@@@@@@@@@  OO++++++++++++++++++++++++++++++++++++++++++++++++OO  @@@@@@@@@@@@@@",
"@@@@@@@@@@@@@@  OO++++++++++++++++++++++++++++++++++++++++++++++++OO  @@@@@@@@@@@@@@",
"@@@@@@@@@@@@@@  ooOOOOOOOOOOOOOOOOOOOOOOOOOOOOOOOOOOOOOOOOOOOOOOOOoo  @@@@@@@@@@@@@@",
"@@@@@@@@@@@@@@  ooOOOOOOOOOOOOOOOOOOOOOOOOOOOOOOOOOOOOOOOOOOOOOOOOoo  @@@@@@@@@@@@@@",
"@@@@@@@@@@@@@@@@                                                    @@@@@@@@@@@@@@@@",
"@@@@@@@@@@@@@@@@                                                    @@@@@@@@@@@@@@@@",
"@@@@@@@@@@@@@@@@@@@@@@@@@@@@@@@@@@@@@@@@@@@@@@@@@@@@@@@@@@@@@@@@@@@@@@@@@@@@@@@@@@@@",
"@@@@@@@@@@@@@@@@@@@@@@@@@@@@@@@@@@@@@@@@@@@@@@@@@@@@@@@@@@@@@@@@@@@@@@@@@@@@@@@@@@@@",
"@@@@@@@@@@@@@@@@@@@@@@@@@@@@@@@@@@@@@@@@@@@@@@@@@@@@@@@@@@@@@@@@@@@@@@@@@@@@@@@@@@@@",
"@@@@@@@@@@@@@@@@@@@@@@@@@@@@@@@@@@@@@@@@@@@@@@@@@@@@@@@@@@@@@@@@@@@@@@@@@@@@@@@@@@@@",
"@@@@@@@@@@@@@@@@@@@@@@@@@@@@@@@@@@@@@@@@@@@@@@@@@@@@@@@@@@@@@@@@@@@@@@@@@@@@@@@@@@@@",
"@@@@@@@@@@@@@@@@@@@@@@@@@@@@@@@@@@@@@@@@@@@@@@@@@@@@@@@@@@@@@@@@@@@@@@@@@@@@@@@@@@@@",
"@@@@@@@@@@@@@@@@@@@@@@@@@@@@@@@@@@@@@@@@@@@@@@@@@@@@@@@@@@@@@@@@@@@@@@@@@@@@@@@@@@@@",
"@@@@@@@@@@@@@@@@@@@@@@@@@@@@@@@@@@@@@@@@@@@@@@@@@@@@@@@@@@@@@@@@@@@@@@@@@@@@@@@@@@@@",
"@@@@@@@@@@@@@@@@@@@@@@@@@@@@@@@@@@@@@@@@@@@@@@@@@@@@@@@@@@@@@@@@@@@@@@@@@@@@@@@@@@@@",
"@@@@@@@@@@@@@@@@@@@@@@@@@@@@@@@@@@@@@@@@@@@@@@@@@@@@@@@@@@@@@@@@@@@@@@@@@@@@@@@@@@@@",
"@@@@@@@@@@@@@@@@@@@@@@@@@@@@@@@@@@@@@@@@@@@@@@@@@@@@@@@@@@@@@@@@@@@@@@@@@@@@@@@@@@@@",
"@@@@@@@@@@@@@@@@@@@@@@@@@@@@@@@@@@@@@@@@@@@@@@@@@@@@@@@@@@@@@@@@@@@@@@@@@@@@@@@@@@@@",
"@@@@@@@@@@@@@@@@@@@@@@@@@@@@@@@@@@@@@@@@@@@@@@@@@@@@@@@@@@@@@@@@@@@@@@@@@@@@@@@@@@@@",
"@@@@@@@@@@@@@@@@@@@@@@@@@@@@@@@@@@@@@@@@@@@@@@@@@@@@@@@@@@@@@@@@@@@@@@@@@@@@@@@@@@@@",
"@@@@@@@@@@@@@@@@@@@@@@@@@@@@@@@@@@@@@@@@@@@@@@@@@@@@@@@@@@@@@@@@@@@@@@@@@@@@@@@@@@@@",
"@@@@@@@@@@@@@@@@@@@@@@@@@@@@@@@@@@@@@@@@@@@@@@@@@@@@@@@@@@@@@@@@@@@@@@@@@@@@@@@@@@@@",
"@@@@@@@@@@@@@@@@@@@@@@@@@@@@@@@@@@@@@@@@@@@@@@@@@@@@@@@@@@@@@@@@@@@@@@@@@@@@@@@@@@@@",
"@@@@@@@@@@@@@@@@@@@@@@@@@@@@@@@@@@@@@@@@@@@@@@@@@@@@@@@@@@@@@@@@@@@@@@@@@@@@@@@@@@@@",
"@@@@@@@@@@@@@@@@@@@@@@@@@@@@@@@@@@@@@@@@@@@@@@@@@@@@@@@@@@@@@@@@@@@@@@@@@@@@@@@@@@@@",
"@@@@@@@@@@@@@@@@@@@@@@@@@@@@@@@@@@@@@@@@@@@@@@@@@@@@@@@@@@@@@@@@@@@@@@@@@@@@@@@@@@@@"
};
