/* XPM */
static char *result[] = {
/* columns rows colors chars-per-pixel */
"42 42 8 1 ",
"  c #1B191A",
". c black",
"X c gray13",
"o c #928484",
"O c #645C5C",
"+ c #332F2F",
"@ c #3C3636",
"# c #453E3E",
/* pixels */
"            .                    .   .   .",
" .         .                     .    . . ",
"  .        .                           .  ",
"  .                               .  .  . ",
"   .                                 . .  ",
"    .           .                         ",
"                .                         ",
"               .          .               ",
"                           .              ",
"                           .              ",
"                                          ",
"                                          ",
"        ..                                ",
"        XXXXXXXXXXXXXXXXXXXXXXXXXX        ",
"       XooooooooooooooooooooooooooX       ",
"       XoOOooooooooooooooooooooOOoX.      ",
"       XoOOooooooooooooooooooooOOoX       ",
"       XooooooooOXXXXXXXXOooooooooX       ",
"       XooooooOXXXXXXXXXXXXOooooooX       ",
"       XoooooOXXXXXXXXXXXXXXOoooooX       ",
"       XoooooXXXX+@####@+XXXXoooooX       ",
"       XoooooXX+#@++@@++##+XXoooooX       ",
"       XoooooX+####@++@####+XoooooX       ",
"       XoooooX+##@++@@++@##+XoooooX       ",
"       XoooooOX+@+@####@+@+XOoooooX       ",
"       XooooooOXX@######@XXOooooooX       ",
"       XoOOooooOOXXXXXXXXOOooooOOoX       ",
"       XoOOoooooooOOOOOOoooooooOOoX       ",
"       XooooooooooooooooooooooooooX       ",
"       XOooooooooooooooooooooooooOX       ",
"..     X#OOOOOOOOOOOOOOOOOOOOOOOO#X ......",
"....    XXXXXXXXXXXXXXXXXXXXXXXXXX     ...",
"                                          ",
"                                          ",
"                                          ",
"                                          ",
"                                 .        ",
"  . .                                   . ",
".. .                              .     . ",
"  .    ..   .                     .      .",
" .       .   .                   . .      ",
".         .  .                   .  .     "
};
