/* XPM */
static char *result[] = {
/* columns rows colors chars-per-pixel */
"42 42 9 1 ",
"  c #1B191A",
". c black",
"X c gray13",
"o c #928484",
"O c #645C5C",
"+ c white",
"@ c #C9C2C2",
"# c #7B7070",
"$ c #453E3E",
/* pixels */
"            .                    .   .   .",
" .         .                     .    . . ",
"  .        .                           .  ",
"  .                               .  .  . ",
"   .                                 . .  ",
"    .           .                         ",
"                .                         ",
"               .          .               ",
"                           .              ",
"                           .              ",
"                                          ",
"                                          ",
"        ..                                ",
"        XXXXXXXXXXXXXXXXXXXXXXXXXX        ",
"       XooooooooooooooooooooooooooX       ",
"       XoOOooooooXXXXXXXXooooooOOoX.      ",
"       XoOOooooXXO+++@@@OXXooooOOoX       ",
"       XooooooXO+@@oooo#OOOXooooooX       ",
"       XoooooXO@o#OO##OO#ooOXoooooX       ",
"       XoooooX+oooo#OO#oooooXoooooX       ",
"       XoooooXOoo#OO##OO#ooOXoooooX       ",
"       XoooooX$OOO#oooo#OOO$XoooooX       ",
"       XoooooX$$$Oooooo@O$$$XoooooX       ",
"       XoooooX$$$$$$$$$$$$$$XoooooX       ",
"       XoooooOX$$$$$$$$$$$$XOoooooX       ",
"       XooooooOXX$$$$$$$$XXOooooooX       ",
"       XoOOooooOOXXXXXXXXOOooooOOoX       ",
"       XoOOoooooooOOOOOOoooooooOOoX       ",
"       XooooooooooooooooooooooooooX       ",
"       XOooooooooooooooooooooooooOX       ",
"..     X$OOOOOOOOOOOOOOOOOOOOOOOO$X ......",
"....    XXXXXXXXXXXXXXXXXXXXXXXXXX     ...",
"                                          ",
"                                          ",
"                                          ",
"                                          ",
"                                 .        ",
"  . .                                   . ",
".. .                              .     . ",
"  .    ..   .                     .      .",
" .       .   .                   . .      ",
".         .  .                   .  .     "
};
