/* XPM */
static char *result[] = {
/* columns rows colors chars-per-pixel */
"42 42 7 1 ",
"  c #080000",
". c #4A465A",
"X c gray39",
"o c gray64",
"O c gray80",
"+ c white",
"@ c None",
/* pixels */
"@@@@@@@@@@@@@@@@@@@@@@@@@@@@@@@@@@@@@@@@@@",
"@@@@@@@@@@@@@@@@@@@@@@@@@@@@@@@@@@@@@@@@@@",
"@@@@@@@@@@@@@@@@@@@@@@@@@@@@@@@@@@@@@@@@@@",
"@@@@@@@@@@@@@@@@@@@@@@@@@@@@@@@@@@@@@@@@@@",
"@@@@@@@@@@@@@@@@@@@@@@@@@@@@@@@@@@@@@@@@@@",
"@@@@@@@@@@@@@@@@@@@@@@@@@@@@@@@@@@@@@@@@@@",
"@@@@@@@@@@@@@@@@@@@@@@@@@@@@@@@@@@@@@@@@@@",
"@@@@@@@@@@@@@@@@@@@@@@@@@@@@@@@@@@@@@@@@@@",
"@@@@@@@@@@@@@@@@@@@@@@@@@@@@@@@@@@@@@@@@@@",
"@@@@@@@@@@@@@@@@@@@@@@@@@@@@@@@@@@@@@@@@@@",
"@@@@@@@@@@@@@@@@@@@@@@@@@@@@@@@@@@@@@@@@@@",
"@@@@@@@@@@@@@@@@@@      @@@@@@@@@@@@@@@@@@",
"@@@@@@@@@@@@@@@@          @@@@@@@@@@@@@@@@",
"@@@@@@@@@@@@@@@   ooOOoo   @@@@@@@@@@@@@@@",
"@@@@@@@@@@@@@@  oOOOOOOOOo  @@@@@@@@@@@@@@",
"@@@@@@@@@@@@@  oOOOOOOOOOOo  @@@@@@@@@@@@@",
"@@@@@@@@@@@@  oOOOOOOOOOOOOo  @@@@@@@@@@@@",
"@@@@@@@@@@@@     oOOOOOOo     @@@@@@@@@@@@",
"@@@@@@@@@@@   +   Oo  oO +     @@@@@@@@@@@",
"@@@@@@@@@@@       o .. o       @@@@@@@@@@@",
"@@@@@@@@@@@       o    o       @@@@@@@@@@@",
"@@@@@@@@@@@  X   Xo    oX   X  @@@@@@@@@@@",
"@@@@@@@@@@@  Xoooo      ooooX  @@@@@@@@@@@",
"@@@@@@@@@@  X Xooo      oooX X  @@@@@@@@@@",
"@@@@@@@@@@  X XXXo      oXXX X  @@@@@@@@@@",
"@@@@@@@@@@@  X XXX      XXX X  @@@@@@@@@@@",
"@@@@@@@@@@@@    XX .+.. XX    @@@@@@@@@@@@",
"@@@@@@@@@@@@@@@  XX    XX  @@@@@@@@@@@@@@@",
"@@@@@@@@@@@@@@@@   XXXX   @@@@@@@@@@@@@@@@",
"@@@@@@@@@@@@@@@@@        @@@@@@@@@@@@@@@@@",
"@@@@@@@@@@@@@@@@@@@    @@@@@@@@@@@@@@@@@@@",
"@@@@@@@@@@@@@@@@@@@@@@@@@@@@@@@@@@@@@@@@@@",
"@@@@@@@@@@@@@@@@@@@@@@@@@@@@@@@@@@@@@@@@@@",
"@@@@@@@@@@@@@@@@@@@@@@@@@@@@@@@@@@@@@@@@@@",
"@@@@@@@@@@@@@@@@@@@@@@@@@@@@@@@@@@@@@@@@@@",
"@@@@@@@@@@@@@@@@@@@@@@@@@@@@@@@@@@@@@@@@@@",
"@@@@@@@@@@@@@@@@@@@@@@@@@@@@@@@@@@@@@@@@@@",
"@@@@@@@@@@@@@@@@@@@@@@@@@@@@@@@@@@@@@@@@@@",
"@@@@@@@@@@@@@@@@@@@@@@@@@@@@@@@@@@@@@@@@@@",
"@@@@@@@@@@@@@@@@@@@@@@@@@@@@@@@@@@@@@@@@@@",
"@@@@@@@@@@@@@@@@@@@@@@@@@@@@@@@@@@@@@@@@@@",
"@@@@@@@@@@@@@@@@@@@@@@@@@@@@@@@@@@@@@@@@@@"
};
