/* XPM */
static char *result[] = {
/* columns rows colors chars-per-pixel */
"42 42 7 1 ",
"  c #080000",
". c #4A465A",
"X c gray39",
"o c gray64",
"O c gray80",
"+ c white",
"@ c None",
/* pixels */
"@@@@@@@@@@@@@@@@@@@@@@@@@@@@@@@@@@@@@@@@@@",
"@@@@@@@@@@@@@@@@@@@@@@@@@@@@@@@@@@@@@@@@@@",
"@@@@@@@@@@@@@@@@@@@@@@@@@@@@@@@@@@@@@@@@@@",
"@@@@@@@@@@@@@@@@@@@@@@@@@@@@@@@@@@@@@@@@@@",
"@@@@@@@@@@@@@@@@@@@@@@@@@@@@@@@@@@@@@@@@@@",
"@@@@@@@@@@@@@@@@@@@@@@@@@@@@@@@@@@@@@@@@@@",
"@@@@@@@@@@@@@@@@@@@@@@@@@@@@@@@@@@@@@@@@@@",
"@@@@@@@@@@@@@@@@@@@@@@@@@@@@@@@@@@@@@@@@@@",
"@@@@@@@@@@@@@@@@@@@@@@@@@@@@@@@@@@@@@@@@@@",
"@@@@@@@@@@@@@@@@@@@@@@@@@@@@@@@@@@@@@@@@@@",
"@@@@@@@@@@@@@@@@@@@@@@@@@@@@@@@@@@@@@@@@@@",
"@@@@@@@@@@@@@@@@@@      @@@@@@@@@@@@@@@@@@",
"@@@@@@@@@@@@@@@@          @@@@@@@@@@@@@@@@",
"@@@@@@@@@@@@@@@   ooOOoo   @@@@@@@@@@@@@@@",
"@@@@@@@@@@@@@@  oOOOOOOOOo  @@@@@@@@@@@@@@",
"@@@@@@@@@@@@@  oOOOOOOOOOOo  @@@@@@@@@@@@@",
"@@@@@@@@@@@@  oOOOOOOOOOOOOo  @@@@@@@@@@@@",
"@@@@@@@@@@@@     oOOOOOOo     @@@@@@@@@@@@",
"@@@@@@@@@@@   +   OOOOOO +     @@@@@@@@@@@",
"@@@@@@@@@@@       Oo  oO       @@@@@@@@@@@",
"@@@@@@@@@@@       o .. o       @@@@@@@@@@@",
"@@@@@@@@@@@  X   Xo    oX   X  @@@@@@@@@@@",
"@@@@@@@@@@@  Xooooo    oooooX  @@@@@@@@@@@",
"@@@@@@@@@@@   Xooo      oooX   @@@@@@@@@@@",
"@@@@@@@@@@  X XXXo      oXXX X  @@@@@@@@@@",
"@@@@@@@@@@  XX XXX      XXX XX  @@@@@@@@@@",
"@@@@@@@@@@@     XX .+.. XX     @@@@@@@@@@@",
"@@@@@@@@@@@@  @  X      X  @  @@@@@@@@@@@@",
"@@@@@@@@@@@@@@@@  XXXXXX  @@@@@@@@@@@@@@@@",
"@@@@@@@@@@@@@@@@@        @@@@@@@@@@@@@@@@@",
"@@@@@@@@@@@@@@@@@@      @@@@@@@@@@@@@@@@@@",
"@@@@@@@@@@@@@@@@@@@@@@@@@@@@@@@@@@@@@@@@@@",
"@@@@@@@@@@@@@@@@@@@@@@@@@@@@@@@@@@@@@@@@@@",
"@@@@@@@@@@@@@@@@@@@@@@@@@@@@@@@@@@@@@@@@@@",
"@@@@@@@@@@@@@@@@@@@@@@@@@@@@@@@@@@@@@@@@@@",
"@@@@@@@@@@@@@@@@@@@@@@@@@@@@@@@@@@@@@@@@@@",
"@@@@@@@@@@@@@@@@@@@@@@@@@@@@@@@@@@@@@@@@@@",
"@@@@@@@@@@@@@@@@@@@@@@@@@@@@@@@@@@@@@@@@@@",
"@@@@@@@@@@@@@@@@@@@@@@@@@@@@@@@@@@@@@@@@@@",
"@@@@@@@@@@@@@@@@@@@@@@@@@@@@@@@@@@@@@@@@@@",
"@@@@@@@@@@@@@@@@@@@@@@@@@@@@@@@@@@@@@@@@@@",
"@@@@@@@@@@@@@@@@@@@@@@@@@@@@@@@@@@@@@@@@@@"
};
